<?xml version="1.0" encoding="utf-8"?>
<!-- Generator: Adobe Illustrator 16.0.0, SVG Export Plug-In . SVG Version: 6.00 Build 0)  -->
<!DOCTYPE svg PUBLIC "-//W3C//DTD SVG 1.1//EN" "http://www.w3.org/Graphics/SVG/1.1/DTD/svg11.dtd">
<svg version="1.1" xmlns="http://www.w3.org/2000/svg" xmlns:xlink="http://www.w3.org/1999/xlink" x="0px" y="0px" width="544px"
	 height="499px" viewBox="0 0 544 499" enable-background="new 0 0 544 499" xml:space="preserve">
<g id="Calque_1">
	<rect x="90.746" y="197.916" fill="#808081" width="361.498" height="212.387"/>
	<path fill="#B4B4B4" d="M485.037,410.297h-32.032V197.91h32.032v-43.196h20.933v-35.799h33.782L272.257,5.299L4.749,118.914h33.794
		v35.799h20.933v43.195h32.02v212.388h-32.02v43.195H28.205v43.208h488.104v-43.208h-31.271L485.037,410.297L485.037,410.297z
		 M243.472,410.297h-94.408V197.91h94.408V410.297z M395.437,410.297h-94.396V197.91h94.396V410.297z"/>
	<g>
		<rect x="90.746" y="197.903" fill="#9A9999" width="57.568" height="30.598"/>
		<rect x="242.723" y="197.903" fill="#9A9999" width="57.567" height="30.598"/>
		<rect x="394.688" y="197.903" fill="#9A9999" width="57.568" height="30.598"/>
	</g>
	<g>
		<rect x="148.314" y="197.916" fill="#676767" width="94.408" height="45.821"/>
		<rect x="300.292" y="197.916" fill="#676767" width="94.407" height="45.821"/>
	</g>
	<circle fill="none" stroke="#C1282D" stroke-width="7" stroke-miterlimit="10" cx="271.78" cy="69.05" r="32.269"/>
	<g>
		<rect x="58.727" y="154.721" fill="#9A9999" width="425.562" height="13.258"/>
		<rect x="58.727" y="440.229" fill="#9A9999" width="425.562" height="13.259"/>
		<rect x="58.727" y="399.583" fill="#9A9999" width="425.562" height="13.258"/>
		<rect x="37.794" y="118.921" fill="#9A9999" width="467.427" height="13.258"/>
	</g>
	<path fill="#FFFFFF" fill-opacity="0" d="M250,41.335h41.332v41.332H250V41.335z"/>
	<path fill="#9C9B9B" d="M264.309,47.818c-0.72-0.005-1.39,0.158-1.9,0.408c-0.907,0.442-1.622,0.961-2.189,1.526
		c0.266,0.95,0.643,1.816,1.223,2.529c-0.818-0.457-1.502-0.976-2.021-1.573c-0.377,0.546-0.651,1.116-0.856,1.687
		c0.261,1.548,0.674,2.982,1.557,4.064c-0.846-0.471-1.547-1.01-2.07-1.632c-0.074,0.856-0.05,1.605-0.043,2.135
		c0.004,0.294,0.021,0.579,0.053,0.856c1.128,1.473,2.359,2.735,3.88,3.395c-1.051-0.033-2.009-0.186-2.856-0.482
		c0.526,0.815,1.248,1.556,2.177,2.25c2.176,1.625,5.508,2.92,9.917,3.953c2.067,0.484,5.046,1.145,7.762,1.565
		c1.357,0.21,2.65,0.36,3.715,0.4c1.063,0.041,1.916-0.06,2.257-0.202c0.017-0.007,0.487-0.326,0.841-0.817
		c0.353-0.491,0.662-1.156,0.723-1.946c0.121-1.581-0.689-3.839-4.759-6.514c-0.488-0.321-0.936-0.472-1.683-0.499
		c-0.744,1.259-1.536,2.478-2.284,3.645l-0.438,0.684l-3.356-2.723l0.467-0.565c0.152-0.184,0.302-0.369,0.45-0.555
		c-1.013,0.128-2.131,0.27-3.495,0.43c-2.211,0.26-4.594-1.143-5.628-3.167c-0.518-1.012-0.65-2.252-0.099-3.408
		c0.48-1.006,1.428-1.907,2.902-2.658c-0.822-1.491-1.87-2.238-2.916-2.574C265.19,47.885,264.74,47.821,264.309,47.818
		L264.309,47.818z M283.261,50.008c-0.053,0-0.106,0.002-0.159,0.004c-0.29,0.014-0.609,0.057-0.964,0.137
		c-1.306,0.295-1.845,1.013-2.191,1.951c-0.12,0.323-0.201,0.668-0.262,1.018l0.767-0.313c1.645-0.879,3.488-1.506,5.284-1.729
		c-0.194-0.206-0.418-0.406-0.69-0.578C284.601,50.217,284.045,50,283.261,50.008L283.261,50.008z M286.597,52.459
		c-1.275,0.083-2.662,0.432-3.983,0.961c-0.439,1.41-1.077,2.792-1.805,4.135c0.642,0.105,1.19,0.312,1.705,0.65
		c0.144,0.094,0.285,0.19,0.427,0.287l0.646-1.371l0.604,0.19c0.689,0.217,1.147,0.192,1.293,0.105
		c0.46-0.278,1.01-1.449,1.17-2.717c0.081-0.634,0.085-1.279,0.022-1.804C286.658,52.749,286.632,52.603,286.597,52.459
		L286.597,52.459z M280.766,54.246l-1.385,0.564c-0.915,2.049-1.982,3.732-3.387,5.499l0.968,0.786
		C278.381,58.881,279.834,56.558,280.766,54.246L280.766,54.246z M260.926,64.524c1.293,1.489,2.888,2.913,4.791,4.205
		c0.736-0.412,1.478-0.796,2.197-1.151C265.08,66.744,262.743,65.754,260.926,64.524z M270.101,68.167
		c-1.774,0.808-3.81,1.837-5.649,3.025c0.673,0.176,1.305,0.475,1.878,0.84c0.997,0.635,1.584,1.555,1.756,2.541
		c0.172,0.985-0.023,2.005-0.391,3.011c-0.195,0.535-0.443,1.07-0.723,1.598c4.168-2.066,8.004-4.384,11.761-6.753
		c-0.106-0.845-0.201-1.69-0.283-2.538c-2.708-0.432-5.587-1.071-7.603-1.543C270.597,68.289,270.349,68.229,270.101,68.167
		L270.101,68.167z M279.936,70.107c0.554,5.505,1.589,10.803,2.907,16.145h5.747l-0.829-1.946c-0.024-0.047-0.681-0.609-2.446-0.48
		l-0.745,0.054l-0.621-13.534c-0.415,0.025-0.864,0.021-1.35,0.003C281.787,70.319,280.884,70.231,279.936,70.107z M263.12,72.469
		c-0.281,0.006-0.57,0.047-0.866,0.129c-1.182,0.327-2.587,1.364-4.133,3.726c-1.089,1.666-2.391,4.042-2.912,6.046
		c-0.26,1.002-0.314,1.898-0.138,2.53c0.139,0.495,0.382,0.846,0.862,1.106c0.212-0.53,0.481-1.139,0.867-1.704
		c0.529-0.772,1.342-1.493,2.477-1.642c0.788-0.104,1.551-0.139,2.292-0.126c0.438,0.008,0.866,0.033,1.288,0.07
		c0.095-0.104,0.186-0.21,0.273-0.321c1.202-1.532,2.572-3.482,3.198-5.197c0.313-0.857,0.433-1.64,0.323-2.263
		c-0.108-0.623-0.399-1.117-1.104-1.564C264.762,72.757,263.968,72.452,263.12,72.469L263.12,72.469z M261.291,83.985
		c-0.596-0.001-1.203,0.033-1.823,0.115c-0.647,0.085-1.077,0.451-1.467,1.022c-0.198,0.29-0.369,0.626-0.523,0.97l13.396,0.024
		c-0.06-0.098-0.138-0.188-0.273-0.288c-0.375-0.274-1.325-0.621-3.2-0.99c-1.903-0.374-3.819-0.812-5.854-0.85
		C261.461,83.986,261.376,83.986,261.291,83.985L261.291,83.985z"/>
</g>
<g id="Calque_2">
	<g>
		<path fill="#C1282D" d="M180.642,94.37l10.245-0.282l-0.657,7.05l-9.682-0.282v4.418c0,3.76,0.094,8.271,0.188,10.997h-8.366
			c0.095-2.632,0.47-6.768,0.47-12.031v-3.29h-33.461l-0.188-0.752l40.888-52.637h0.563V94.37z M173.028,66.359h-0.188
			c-3.102,4.7-17.389,23.217-20.772,27.917h20.961V66.359z"/>
	</g>
	<g>
		<path fill="#C1282D" d="M363.431,47.561h0.563l40.888,52.637l-0.188,0.752h-33.461v3.29c0,5.264,0.375,9.399,0.47,12.031h-8.366
			c0.095-2.726,0.188-7.237,0.188-10.997v-4.418l-9.682,0.282l-0.657-7.05l10.245,0.282V47.561z M371.044,94.276h20.961
			c-3.384-4.7-17.671-23.216-20.772-27.917h-0.188V94.276z"/>
	</g>
	<g>
		<path fill="#C1282D" d="M90.895,486.588c0.086-1.591,0.172-10.363,0.172-12.986v-3.999c0-0.86-0.086-8.041-0.086-8.6
			c1.635,0,5.289,0.043,7.74,0.43c5.246,0.817,8.471,3.182,8.471,7.052c0,5.246-5.117,9.245-12.426,10.535v2.064
			c0,0.731,0,4.73,0.043,5.504H90.895z M94.766,476.182c4.643-0.903,8.471-3.053,8.471-7.267c0-1.333-0.86-4.945-8.471-5.031
			V476.182z"/>
		<path fill="#C1282D" d="M108.096,485.47c2.064-3.655,13.244-24.337,14.104-25.756h0.086c3.311,5.203,12.6,21.671,15.136,25.499
			l-3.483,2.107c-0.688-1.376-4.729-8.6-5.116-9.245l-13.286,0.516c-0.517,1.161-3.526,7.525-4.129,8.772L108.096,485.47z
			 M127.488,475.451c-0.43-0.817-4.945-9.073-5.332-9.675c-0.559,0.86-4.816,9.503-5.16,10.104L127.488,475.451z"/>
		<path fill="#C1282D" d="M163.049,480.869c0,1.419,0.086,4.687,0.086,5.16c-1.763,0.645-5.375,1.161-8.643,1.161
			c-8.857,0-14.104-4.644-14.104-10.707c0-4.3,4.558-12.427,18.919-16.167l0.774,3.354c-8.471,1.591-15.695,7.052-15.695,12.856
			c0,3.827,3.183,7.869,10.922,7.869c1.635,0,3.269-0.215,4.042-0.516v-5.934c0-1.075-0.086-2.322-0.128-2.537h3.826v2.795V480.869z
			"/>
		<path fill="#C1282D" d="M185.71,486.975c-1.29,0-13.071-0.387-13.846-0.387c0.129-1.935,0.129-9.761,0.129-10.621v-4.859
			c0-0.602-0.086-9.417-0.129-10.105c0.946,0,11.137-0.559,13.072-0.688l0.172,3.096c-1.678,0-8.729,0.172-9.374,0.172v8.944
			c0.73,0,5.719-0.172,8.084-0.387l0.129,3.139c-0.646,0-2.494-0.043-4.3-0.086c-1.764,0-3.483-0.043-3.913-0.043v8.686
			c0.946,0,6.191,0.086,9.847-0.129L185.71,486.975z"/>
		<path fill="#C1282D" d="M206.264,486.588c0.215-2.752,1.29-23.263,1.462-27.046h0.215c1.118,1.204,19.049,19.264,20.253,20.424
			c0-1.032,0.086-17.931,0.129-19.134l3.827,0.172c-0.172,2.193-0.903,17.157-1.075,26.358h-0.172
			c-1.118-0.989-19.951-19.78-20.425-20.295h-0.086c0.086,0.688-0.215,18.576-0.172,19.779L206.264,486.588z"/>
		<path fill="#C1282D" d="M238.428,475.107c0-8.126,5.977-14.706,15.437-14.706c7.567,0,13.114,4.601,13.114,12.47
			c0,5.719-4.041,14.319-15.308,14.319C243.114,487.19,238.428,481.557,238.428,475.107z M262.98,473.043
			c0-6.536-4.559-9.804-9.675-9.804c-6.837,0-10.922,5.074-10.922,11.309c0,5.461,3.654,9.804,9.632,9.804
			C257.906,484.352,262.98,480.267,262.98,473.043z"/>
		<path fill="#C1282D" d="M279.405,486.588c0.215-0.946,0.258-11.61,0.258-17.415v-5.117c-4.429,0-9.976,0.172-10.534,0.344v-3.483
			c1.118,0.301,10.362,0.43,10.793,0.43h3.439c0.731,0,9.245-0.129,10.492-0.43v3.483c-0.086-0.172-7.31-0.344-10.449-0.344v5.676
			c0,7.438,0.388,16.125,0.474,16.855H279.405z"/>
		<path fill="#C1282D" d="M311.87,486.588c0.344-1.935,0.344-9.761,0.344-10.621v-4.859c0-0.602-0.086-9.417-0.172-10.105
			c0.989,0,10.793-0.387,13.028-0.559l0.173,3.096l-9.288,0.172v8.944c0.73,0,6.277-0.215,8.557-0.344l0.129,3.053l-8.686-0.129
			v3.354c0,0.559-0.043,7.482,0.129,7.998H311.87z"/>
		<path fill="#C1282D" d="M330.188,475.107c0-8.126,5.977-14.706,15.437-14.706c7.567,0,13.114,4.601,13.114,12.47
			c0,5.719-4.041,14.319-15.308,14.319C334.875,487.19,330.188,481.557,330.188,475.107z M354.741,473.043
			c0-6.536-4.559-9.804-9.675-9.804c-6.837,0-10.922,5.074-10.922,11.309c0,5.461,3.654,9.804,9.632,9.804
			C349.667,484.352,354.741,480.267,354.741,473.043z"/>
		<path fill="#C1282D" d="M368.458,469.646c0,5.934,0.344,8.643,1.806,11.051c1.505,2.451,3.698,3.526,6.493,3.526
			c3.354,0,5.289-1.548,6.578-3.483c1.807-2.666,1.85-7.052,1.85-12.814v-1.247c0-2.537-0.172-4.687-0.215-6.063h3.912
			c0,0.817,0.043,3.225,0.043,6.106v1.72c0,7.009-0.516,11.438-3.439,14.834c-2.322,2.666-5.074,3.913-9.245,3.913
			c-2.106,0-6.191-0.301-8.943-4.386c-1.807-2.708-2.58-5.59-2.58-14.447v-1.978c0-1.677,0.043-4.343,0.043-5.203h3.87
			c-0.043,0.946-0.172,2.666-0.172,6.02V469.646z"/>
		<path fill="#C1282D" d="M396.881,486.588c0.215-2.752,1.29-23.263,1.462-27.046h0.215c1.118,1.204,19.049,19.264,20.253,20.424
			c0-1.032,0.086-17.931,0.129-19.134l3.827,0.172c-0.172,2.193-0.903,17.157-1.075,26.358h-0.172
			c-1.118-0.989-19.951-19.78-20.425-20.295h-0.086c0.086,0.688-0.215,18.576-0.172,19.779L396.881,486.588z"/>
		<path fill="#C1282D" d="M432.741,470.506c0-0.774-0.043-8.471-0.215-9.503c2.236,0,6.234-0.043,9.632,0.215
			c12.771,0.989,13.889,7.052,13.889,9.589c0,11.696-13.287,15.953-23.563,15.953c0.172-1.677,0.258-10.75,0.258-11.739V470.506z
			 M436.439,483.578c10.491-0.688,15.651-6.579,15.651-11.911c0-5.633-5.805-7.955-15.651-7.783V483.578z"/>
	</g>
</g>
</svg>
