<?xml version="1.0" encoding="utf-8"?>
<!-- Generator: Adobe Illustrator 16.0.0, SVG Export Plug-In . SVG Version: 6.00 Build 0)  -->
<!DOCTYPE svg PUBLIC "-//W3C//DTD SVG 1.1//EN" "http://www.w3.org/Graphics/SVG/1.1/DTD/svg11.dtd">
<svg version="1.1" id="Calque_1" xmlns="http://www.w3.org/2000/svg" xmlns:xlink="http://www.w3.org/1999/xlink" x="0px" y="0px"
	 width="72.503px" height="70.418px" viewBox="0 0 72.503 70.418" enable-background="new 0 0 72.503 70.418" xml:space="preserve">
<g id="Layer_2">
</g>
<path fill="#F9F9F9" d="M36.518,36.281c-6.199,0-11.227-5.06-11.227-11.304c0-6.249,5.028-11.31,11.227-11.31
	c6.197,0,11.226,5.061,11.226,11.31C47.744,31.218,42.715,36.281,36.518,36.281 M36.518,0.042c-13.725,0-24.85,11.201-24.85,25.026
	c0,13.054,11.254,29.898,18.769,38.097c2.807,3.06,6.077,7.188,6.077,7.188s3.513-4.151,6.525-7.302
	c7.511-7.856,18.323-23.631,18.323-37.983C61.363,11.243,50.239,0.042,36.518,0.042"/>
</svg>
