<?xml version="1.0" encoding="utf-8"?>
<!-- Generator: Adobe Illustrator 16.0.0, SVG Export Plug-In . SVG Version: 6.00 Build 0)  -->
<!DOCTYPE svg PUBLIC "-//W3C//DTD SVG 1.1//EN" "http://www.w3.org/Graphics/SVG/1.1/DTD/svg11.dtd">
<svg version="1.1" id="Calque_1" xmlns="http://www.w3.org/2000/svg" xmlns:xlink="http://www.w3.org/1999/xlink" x="0px" y="0px"
	 width="383px" height="602px" viewBox="0 0 383 602" enable-background="new 0 0 383 602" xml:space="preserve">
<g id="Calque_2">
	
		<image overflow="visible" width="1024" height="768" xlink:href="../../../../../../Downloads/3882882123_93f75c2bbe_b.jpg"  transform="matrix(0.1362 0 0 0.1218 42.7803 137.9619)">
	</image>
	
		<image overflow="visible" width="2023" height="1352" xlink:href="../../../../../../Downloads/3257935094_3fc33bfae4_o.jpg"  transform="matrix(0.0692 0 0 0.0692 42.5112 260.8809)">
	</image>
	<g>
		<path fill="#C1272D" d="M56.639,247.979c0.282-0.622,3.453-10.179,3.526-10.534h0.03c0.459,0.934,3.245,6.416,3.689,7.156
			c0.519-0.83,3.6-6.238,3.882-6.697h0.029c0.519,1.215,3.171,8.43,3.808,9.986l-1.274,0.548c-0.371-1.111-2.637-7.319-2.875-7.868
			c-0.533,0.83-3.156,5.467-3.763,6.431h-0.03c-0.859-1.601-2.696-5.201-3.289-6.549c-0.296,0.918-2.341,7.408-2.519,7.986
			L56.639,247.979z"/>
		<path fill="#C1272D" d="M74.708,242.216c0,2.044,0.119,2.978,0.622,3.808c0.519,0.845,1.274,1.215,2.237,1.215
			c1.156,0,1.823-0.533,2.267-1.2c0.622-0.918,0.637-2.43,0.637-4.415v-0.43c0-0.874-0.06-1.615-0.074-2.089h1.348
			c0,0.282,0.015,1.111,0.015,2.104v0.593c0,2.415-0.178,3.941-1.185,5.112c-0.8,0.918-1.749,1.348-3.186,1.348
			c-0.726,0-2.133-0.104-3.082-1.511c-0.623-0.934-0.889-1.926-0.889-4.979v-0.682c0-0.578,0.015-1.496,0.015-1.792h1.333
			c-0.015,0.326-0.059,0.918-0.059,2.074V242.216z"/>
		<path fill="#C1272D" d="M84.557,247.253c1.363-0.267,3.097-0.814,3.097-1.822c0-0.652-0.459-0.963-1.437-1.437
			c-1.156-0.563-2-1.097-2-2.015c0-1.408,2.06-2.637,3.971-2.978l0.282,1.037c-0.874,0.133-2.889,0.637-2.889,1.733
			c0,0.682,0.963,1.022,1.541,1.349c1.022,0.563,1.911,0.963,1.911,2.015c0,1.304-1.497,2.623-4.134,3.156L84.557,247.253z"/>
		<path fill="#C1272D" d="M96.792,248.187c-0.444,0-4.504-0.133-4.771-0.133c0.044-0.667,0.044-3.363,0.044-3.66v-1.674
			c0-0.208-0.029-3.245-0.044-3.482c0.326,0,3.837-0.192,4.504-0.237l0.059,1.067c-0.578,0-3.008,0.059-3.23,0.059v3.082
			c0.252,0,1.971-0.06,2.786-0.133l0.044,1.082c-0.222,0-0.859-0.015-1.481-0.03c-0.608,0-1.2-0.015-1.349-0.015v2.993
			c0.326,0,2.134,0.03,3.393-0.044L96.792,248.187z M95.147,235.89l0.667,0.978l-2.237,1.186l-0.355-0.504L95.147,235.89z"/>
		<path fill="#C1272D" d="M104.612,248.187c-0.444,0-4.504-0.133-4.771-0.133c0.044-0.667,0.044-3.363,0.044-3.66v-1.674
			c0-0.208-0.029-3.245-0.044-3.482c0.326,0,3.837-0.192,4.504-0.237l0.059,1.067c-0.578,0-3.008,0.059-3.23,0.059v3.082
			c0.252,0,1.971-0.06,2.786-0.133l0.044,1.082c-0.222,0-0.859-0.015-1.481-0.03c-0.608,0-1.2-0.015-1.349-0.015v2.993
			c0.326,0,2.134,0.03,3.393-0.044L104.612,248.187z"/>
		<path fill="#C1272D" d="M112.148,242.512c0-0.267-0.015-2.918-0.074-3.274c0.771,0,2.148-0.015,3.319,0.074
			c4.4,0.341,4.786,2.43,4.786,3.304c0,4.03-4.579,5.497-8.12,5.497c0.06-0.578,0.089-3.704,0.089-4.044V242.512z M113.422,247.017
			c3.615-0.237,5.393-2.267,5.393-4.104c0-1.941-2-2.741-5.393-2.682V247.017z"/>
		<path fill="#C1272D" d="M121.863,237.445l1.185,0.533l-1.437,2.563l-0.578-0.267L121.863,237.445z"/>
		<path fill="#C1272D" d="M124.07,244.098c0-2.8,2.06-5.067,5.319-5.067c2.608,0,4.519,1.585,4.519,4.296
			c0,1.971-1.393,4.934-5.274,4.934C125.685,248.261,124.07,246.32,124.07,244.098z M132.53,243.387c0-2.252-1.57-3.378-3.333-3.378
			c-2.356,0-3.763,1.749-3.763,3.897c0,1.881,1.259,3.378,3.319,3.378C130.782,247.283,132.53,245.875,132.53,243.387z"/>
		<path fill="#C1272D" d="M137.829,244.202c0,0.474,0.044,3.66,0.074,3.852h-1.393c0.044-0.296,0.029-4.297,0.029-4.563v-1.022
			c0-0.385-0.029-2.993-0.074-3.23c0.637,0,1.808-0.029,2.934,0.104c1.778,0.208,2.815,0.934,2.815,2.03
			c0,1.037-0.8,1.926-1.911,2.578c0.341,0.459,2.726,3.067,3.111,3.438l-1.022,0.903c-0.148-0.178-3.2-3.911-3.6-4.445
			c0.667-0.341,2.015-1.022,2.015-2.282c0-0.592-0.459-1.348-2.978-1.363V244.202z"/>
		<path fill="#C1272D" d="M145.263,247.253c1.363-0.267,3.097-0.814,3.097-1.822c0-0.652-0.459-0.963-1.437-1.437
			c-1.156-0.563-2-1.097-2-2.015c0-1.408,2.06-2.637,3.971-2.978l0.282,1.037c-0.874,0.133-2.889,0.637-2.889,1.733
			c0,0.682,0.963,1.022,1.541,1.349c1.022,0.563,1.911,0.963,1.911,2.015c0,1.304-1.497,2.623-4.134,3.156L145.263,247.253z"/>
		<path fill="#C1272D" d="M151.024,247.668c0.711-1.259,4.563-8.386,4.86-8.875h0.029c1.141,1.793,4.341,7.467,5.215,8.786
			l-1.2,0.726c-0.237-0.474-1.629-2.963-1.763-3.186l-4.578,0.178c-0.178,0.4-1.215,2.593-1.422,3.022L151.024,247.668z
			 M157.706,244.216c-0.148-0.282-1.704-3.126-1.837-3.333c-0.192,0.296-1.659,3.274-1.778,3.481L157.706,244.216z"/>
		<path fill="#C1272D" d="M163.955,248.054c0-0.296,0.06-1.63,0.06-1.793v-0.889c0-1.645-0.771-2.934-1.689-3.882
			c-0.548-0.563-1.259-1.082-1.822-1.304l0.548-1.082c0.711,0.356,1.6,1.022,1.941,1.393c0.637,0.682,1.452,1.659,1.763,2.711h0.015
			c0.4-1.052,0.904-1.778,1.63-2.549c0.593-0.622,1.733-1.363,2.43-1.585l0.385,1.082c-0.711,0.222-1.63,0.755-2.385,1.57
			c-0.918,0.978-1.526,2.297-1.526,3.645v1.126c0,0.178,0.045,1.304,0.074,1.556H163.955z"/>
	</g>
	<g>
		<path fill="#C1272D" d="M56.688,373.681c0.282-0.622,3.453-10.179,3.526-10.534h0.03c0.459,0.934,3.245,6.416,3.689,7.156
			c0.519-0.83,3.6-6.238,3.882-6.697h0.029c0.519,1.215,3.171,8.431,3.808,9.986l-1.274,0.549c-0.371-1.111-2.637-7.32-2.875-7.868
			c-0.533,0.83-3.156,5.468-3.763,6.431h-0.03c-0.859-1.601-2.696-5.201-3.289-6.549c-0.296,0.918-2.341,7.408-2.519,7.986
			L56.688,373.681z"/>
		<path fill="#C1272D" d="M74.757,367.918c0,2.044,0.119,2.978,0.622,3.807c0.519,0.846,1.274,1.215,2.237,1.215
			c1.156,0,1.823-0.533,2.267-1.199c0.622-0.919,0.637-2.43,0.637-4.416v-0.43c0-0.873-0.06-1.615-0.074-2.089h1.348
			c0,0.282,0.015,1.111,0.015,2.104v0.592c0,2.416-0.178,3.941-1.185,5.112c-0.8,0.919-1.749,1.349-3.186,1.349
			c-0.726,0-2.133-0.104-3.082-1.512c-0.623-0.934-0.889-1.926-0.889-4.979v-0.682c0-0.578,0.015-1.496,0.015-1.793h1.333
			c-0.015,0.326-0.059,0.919-0.059,2.074V367.918z"/>
		<path fill="#C1272D" d="M84.605,372.955c1.363-0.268,3.097-0.814,3.097-1.822c0-0.652-0.459-0.963-1.437-1.438
			c-1.156-0.563-2-1.097-2-2.016c0-1.407,2.06-2.637,3.971-2.978l0.282,1.037c-0.874,0.134-2.889,0.638-2.889,1.733
			c0,0.682,0.963,1.022,1.541,1.349c1.022,0.563,1.911,0.963,1.911,2.015c0,1.305-1.497,2.623-4.134,3.156L84.605,372.955z"/>
		<path fill="#C1272D" d="M96.841,373.889c-0.444,0-4.504-0.134-4.771-0.134c0.044-0.667,0.044-3.363,0.044-3.659v-1.675
			c0-0.208-0.029-3.245-0.044-3.481c0.326,0,3.837-0.193,4.504-0.237l0.059,1.067c-0.578,0-3.008,0.059-3.23,0.059v3.082
			c0.252,0,1.971-0.06,2.786-0.133l0.044,1.081c-0.222,0-0.859-0.015-1.481-0.03c-0.608,0-1.2-0.014-1.349-0.014v2.992
			c0.326,0,2.134,0.029,3.393-0.045L96.841,373.889z M95.196,361.591l0.667,0.978l-2.237,1.186l-0.355-0.504L95.196,361.591z"/>
		<path fill="#C1272D" d="M104.661,373.889c-0.444,0-4.504-0.134-4.771-0.134c0.044-0.667,0.044-3.363,0.044-3.659v-1.675
			c0-0.208-0.029-3.245-0.044-3.481c0.326,0,3.837-0.193,4.504-0.237l0.059,1.067c-0.578,0-3.008,0.059-3.23,0.059v3.082
			c0.252,0,1.971-0.06,2.786-0.133l0.044,1.081c-0.222,0-0.859-0.015-1.481-0.03c-0.608,0-1.2-0.014-1.349-0.014v2.992
			c0.326,0,2.134,0.029,3.393-0.045L104.661,373.889z"/>
		<path fill="#C1272D" d="M112.197,368.213c0-0.266-0.015-2.918-0.074-3.273c0.771,0,2.148-0.016,3.319,0.074
			c4.4,0.34,4.786,2.43,4.786,3.304c0,4.03-4.579,5.497-8.12,5.497c0.06-0.578,0.089-3.705,0.089-4.045V368.213z M113.471,372.718
			c3.615-0.237,5.393-2.267,5.393-4.104c0-1.94-2-2.74-5.393-2.682V372.718z"/>
		<path fill="#C1272D" d="M127.483,373.889c-0.444,0-4.504-0.134-4.771-0.134c0.044-0.667,0.044-3.363,0.044-3.659v-1.675
			c0-0.208-0.029-3.245-0.044-3.481c0.326,0,3.837-0.193,4.504-0.237l0.059,1.067c-0.578,0-3.008,0.059-3.23,0.059v3.082
			c0.252,0,1.971-0.06,2.786-0.133l0.044,1.081c-0.222,0-0.859-0.015-1.481-0.03c-0.608,0-1.2-0.014-1.349-0.014v2.992
			c0.326,0,2.134,0.029,3.393-0.045L127.483,373.889z"/>
		<path fill="#C1272D" d="M136.427,364.939c-0.059,0.281-0.119,2.756-0.119,4.341v3.481c0.326,0,1.926,0,3.363-0.059v1.186
			c-0.43,0-4.43-0.134-4.771-0.134c0.118-0.667,0.118-3.363,0.118-3.659v-1.675c0-0.208-0.029-3.245-0.059-3.481H136.427z"/>
		<path fill="#C1272D" d="M140.558,373.369c0.711-1.259,4.563-8.385,4.86-8.875h0.029c1.141,1.793,4.341,7.468,5.215,8.787
			l-1.2,0.726c-0.237-0.474-1.629-2.964-1.763-3.186l-4.579,0.178c-0.178,0.399-1.215,2.593-1.422,3.022L140.558,373.369z
			 M147.24,369.918c-0.148-0.282-1.704-3.127-1.837-3.334c-0.192,0.297-1.659,3.274-1.778,3.481L147.24,369.918z"/>
		<path fill="#C1272D" d="M59.896,386.994c0,0.563,0.044,4.311,0.074,4.533h-1.437c0.059-0.355,0.03-5.053,0.03-5.363v-1.215
			c0-0.445-0.03-3.512-0.074-3.793c0.696,0,1.941,0.015,3.082,0.148c1.956,0.236,3.067,1.066,3.067,2.326
			c0,1.259-0.845,2.236-2.06,3.008c0.37,0.503,3.037,3.807,3.452,4.252l-1.126,0.903c-0.163-0.208-3.497-4.578-3.941-5.2
			c0.741-0.4,2.223-1.305,2.223-2.756c0-0.667-0.489-1.66-3.289-1.689V386.994z"/>
		<path fill="#C1272D" d="M73.27,391.66c-0.444,0-4.504-0.133-4.771-0.133c0.044-0.666,0.044-3.363,0.044-3.66v-1.674
			c0-0.207-0.029-3.244-0.044-3.482c0.326,0,3.837-0.191,4.504-0.236l0.059,1.066c-0.578,0-3.008,0.06-3.23,0.06v3.082
			c0.252,0,1.971-0.06,2.786-0.134l0.044,1.082c-0.222,0-0.859-0.016-1.481-0.029c-0.608,0-1.2-0.016-1.349-0.016v2.993
			c0.326,0,2.134,0.03,3.393-0.044L73.27,391.66z"/>
		<path fill="#C1272D" d="M75.904,391.527c0.074-0.948,0.444-8.016,0.503-9.319h0.074c0.385,0.415,6.563,6.638,6.979,7.038
			c0-0.355,0.03-6.179,0.044-6.594l1.319,0.059c-0.06,0.756-0.312,5.912-0.371,9.083h-0.059c-0.385-0.341-6.875-6.815-7.038-6.993
			h-0.029c0.029,0.236-0.074,6.4-0.06,6.815L75.904,391.527z"/>
		<path fill="#C1272D" d="M86.508,391.143c0.711-1.26,4.563-8.387,4.86-8.875h0.029c1.141,1.793,4.341,7.467,5.215,8.785l-1.2,0.727
			c-0.237-0.475-1.629-2.963-1.763-3.186l-4.579,0.178c-0.178,0.4-1.215,2.593-1.422,3.022L86.508,391.143z M93.19,387.689
			c-0.148-0.281-1.704-3.126-1.837-3.333c-0.192,0.296-1.659,3.274-1.778,3.481L93.19,387.689z"/>
		<path fill="#C1272D" d="M100.06,387.72c0,1.259,0.044,3.511,0.06,3.808h-1.393c0.03-0.549,0.044-3.496,0.044-3.822v-1.363
			c0-0.223-0.044-3.334-0.074-3.631h1.437c-0.03,0.223-0.074,2.135-0.074,3.646V387.72z"/>
		<path fill="#C1272D" d="M103.584,390.727c1.363-0.266,3.097-0.814,3.097-1.822c0-0.651-0.459-0.963-1.437-1.437
			c-1.156-0.563-2-1.097-2-2.015c0-1.408,2.06-2.638,3.971-2.979l0.282,1.037c-0.874,0.133-2.889,0.637-2.889,1.733
			c0,0.682,0.963,1.022,1.541,1.349c1.022,0.563,1.911,0.963,1.911,2.015c0,1.304-1.497,2.622-4.134,3.155L103.584,390.727z"/>
		<path fill="#C1272D" d="M110.693,390.727c1.363-0.266,3.097-0.814,3.097-1.822c0-0.651-0.459-0.963-1.437-1.437
			c-1.156-0.563-2-1.097-2-2.015c0-1.408,2.06-2.638,3.971-2.979l0.282,1.037c-0.874,0.133-2.889,0.637-2.889,1.733
			c0,0.682,0.963,1.022,1.541,1.349c1.022,0.563,1.911,0.963,1.911,2.015c0,1.304-1.497,2.622-4.134,3.155L110.693,390.727z"/>
		<path fill="#C1272D" d="M116.454,391.143c0.711-1.26,4.563-8.387,4.86-8.875h0.029c1.141,1.793,4.341,7.467,5.215,8.785
			l-1.2,0.727c-0.237-0.475-1.629-2.963-1.763-3.186l-4.578,0.178c-0.178,0.4-1.215,2.593-1.422,3.022L116.454,391.143z
			 M123.136,387.689c-0.148-0.281-1.704-3.126-1.837-3.333c-0.192,0.296-1.659,3.274-1.778,3.481L123.136,387.689z"/>
		<path fill="#C1272D" d="M128.258,391.527c0.074-0.948,0.444-8.016,0.503-9.319h0.074c0.385,0.415,6.563,6.638,6.979,7.038
			c0-0.355,0.03-6.179,0.044-6.594l1.319,0.059c-0.06,0.756-0.312,5.912-0.371,9.083h-0.059c-0.385-0.341-6.875-6.815-7.038-6.993
			h-0.029c0.029,0.236-0.074,6.4-0.06,6.815L128.258,391.527z"/>
		<path fill="#C1272D" d="M146.758,391.631c-0.252,0.045-0.874,0.104-1.689,0.104c-4.593,0-5.719-2.519-5.719-3.733
			c0-2.134,2.015-4.696,6.623-5.512l0.208,1.126c-2.934,0.355-5.453,1.986-5.453,4.178c0,1.482,1.259,2.875,4.475,2.875
			c0.548,0,1.111-0.074,1.422-0.148L146.758,391.631z"/>
		<path fill="#C1272D" d="M153.896,391.66c-0.444,0-4.504-0.133-4.771-0.133c0.044-0.666,0.044-3.363,0.044-3.66v-1.674
			c0-0.207-0.029-3.244-0.044-3.482c0.326,0,3.837-0.191,4.504-0.236l0.059,1.066c-0.578,0-3.008,0.06-3.23,0.06v3.082
			c0.252,0,1.971-0.06,2.786-0.134l0.044,1.082c-0.222,0-0.859-0.016-1.481-0.029c-0.608,0-1.2-0.016-1.349-0.016v2.993
			c0.326,0,2.134,0.03,3.393-0.044L153.896,391.66z"/>
	</g>
	
		<image overflow="visible" width="3888" height="2592" xlink:href="../../../../../../Downloads/3026109526_d1d22d450a_o.jpg"  transform="matrix(0.036 0 0 0.036 213.8516 138.0771)">
	</image>
	<g>
		<path fill="#C1272D" d="M215.303,247.979c0.281-0.622,3.452-10.179,3.525-10.534h0.03c0.46,0.934,3.245,6.416,3.689,7.156
			c0.519-0.83,3.601-6.238,3.882-6.697h0.029c0.519,1.215,3.171,8.43,3.809,9.986l-1.275,0.548c-0.37-1.111-2.637-7.319-2.874-7.868
			c-0.533,0.83-3.155,5.467-3.763,6.431h-0.03c-0.859-1.601-2.696-5.201-3.289-6.549c-0.296,0.918-2.341,7.408-2.519,7.986
			L215.303,247.979z"/>
		<path fill="#C1272D" d="M233.372,242.216c0,2.044,0.118,2.978,0.622,3.808c0.519,0.845,1.274,1.215,2.237,1.215
			c1.155,0,1.822-0.533,2.267-1.2c0.623-0.918,0.638-2.43,0.638-4.415v-0.43c0-0.874-0.06-1.615-0.074-2.089h1.349
			c0,0.282,0.015,1.111,0.015,2.104v0.593c0,2.415-0.179,3.941-1.186,5.112c-0.8,0.918-1.749,1.348-3.186,1.348
			c-0.726,0-2.134-0.104-3.081-1.511c-0.623-0.934-0.89-1.926-0.89-4.979v-0.682c0-0.578,0.015-1.496,0.015-1.792h1.334
			c-0.016,0.326-0.06,0.918-0.06,2.074V242.216z"/>
		<path fill="#C1272D" d="M243.221,247.253c1.363-0.267,3.096-0.814,3.096-1.822c0-0.652-0.459-0.963-1.437-1.437
			c-1.155-0.563-2.001-1.097-2.001-2.015c0-1.408,2.061-2.637,3.971-2.978l0.282,1.037c-0.874,0.133-2.89,0.637-2.89,1.733
			c0,0.682,0.963,1.022,1.541,1.349c1.022,0.563,1.912,0.963,1.912,2.015c0,1.304-1.497,2.623-4.135,3.156L243.221,247.253z"/>
		<path fill="#C1272D" d="M255.455,248.187c-0.443,0-4.504-0.133-4.771-0.133c0.044-0.667,0.044-3.363,0.044-3.66v-1.674
			c0-0.208-0.029-3.245-0.044-3.482c0.326,0,3.837-0.192,4.505-0.237l0.059,1.067c-0.578,0-3.008,0.059-3.23,0.059v3.082
			c0.252,0,1.971-0.06,2.786-0.133l0.044,1.082c-0.222,0-0.859-0.015-1.48-0.03c-0.608,0-1.201-0.015-1.35-0.015v2.993
			c0.326,0,2.135,0.03,3.394-0.044L255.455,248.187z M253.811,235.89l0.667,0.978l-2.237,1.186l-0.355-0.504L253.811,235.89z"/>
		<path fill="#C1272D" d="M263.275,248.187c-0.444,0-4.504-0.133-4.771-0.133c0.045-0.667,0.045-3.363,0.045-3.66v-1.674
			c0-0.208-0.029-3.245-0.045-3.482c0.326,0,3.838-0.192,4.505-0.237l0.06,1.067c-0.578,0-3.008,0.059-3.23,0.059v3.082
			c0.252,0,1.971-0.06,2.785-0.133l0.045,1.082c-0.223,0-0.859-0.015-1.481-0.03c-0.608,0-1.2-0.015-1.349-0.015v2.993
			c0.326,0,2.134,0.03,3.393-0.044L263.275,248.187z"/>
		<path fill="#C1272D" d="M271.078,241.535c0-0.311-0.015-3.438-0.074-3.853c0.845,0,2.49-0.015,3.778,0.148
			c4.831,0.607,5.423,2.756,5.423,3.793c0,4.593-5.838,6.504-9.216,6.504c0.06-0.682,0.089-4.356,0.089-4.756V241.535z
			 M272.412,246.824c4.045-0.355,6.342-2.741,6.342-4.815c0-2.252-2.504-3.26-6.342-3.215V246.824z"/>
		<path fill="#C1272D" d="M283.594,242.216c0,2.044,0.119,2.978,0.622,3.808c0.519,0.845,1.274,1.215,2.237,1.215
			c1.156,0,1.822-0.533,2.268-1.2c0.621-0.918,0.637-2.43,0.637-4.415v-0.43c0-0.874-0.06-1.615-0.074-2.089h1.348
			c0,0.282,0.016,1.111,0.016,2.104v0.593c0,2.415-0.178,3.941-1.186,5.112c-0.801,0.918-1.748,1.348-3.186,1.348
			c-0.727,0-2.133-0.104-3.082-1.511c-0.622-0.934-0.889-1.926-0.889-4.979v-0.682c0-0.578,0.015-1.496,0.015-1.792h1.333
			c-0.014,0.326-0.059,0.918-0.059,2.074V242.216z"/>
		<path fill="#C1272D" d="M300.004,237.682c-0.06,0.326-0.119,3.245-0.119,5.112v4.193c0.355,0,2.104,0,3.526-0.059v1.274
			c-0.207,0-4.608-0.148-4.978-0.148c0.118-0.785,0.118-3.956,0.118-4.312v-1.971c0-0.237-0.03-3.808-0.06-4.089H300.004z"/>
		<path fill="#C1272D" d="M304.875,244.098c0-2.8,2.06-5.067,5.318-5.067c2.608,0,4.52,1.585,4.52,4.296
			c0,1.971-1.393,4.934-5.274,4.934C306.49,248.261,304.875,246.32,304.875,244.098z M313.335,243.387
			c0-2.252-1.57-3.378-3.333-3.378c-2.356,0-3.764,1.749-3.764,3.897c0,1.881,1.26,3.378,3.318,3.378
			C311.587,247.283,313.335,245.875,313.335,243.387z"/>
		<path fill="#C1272D" d="M318.057,242.216c0,2.044,0.119,2.978,0.623,3.808c0.518,0.845,1.273,1.215,2.236,1.215
			c1.156,0,1.823-0.533,2.268-1.2c0.622-0.918,0.637-2.43,0.637-4.415v-0.43c0-0.874-0.059-1.615-0.074-2.089h1.349
			c0,0.282,0.015,1.111,0.015,2.104v0.593c0,2.415-0.178,3.941-1.186,5.112c-0.8,0.918-1.748,1.348-3.186,1.348
			c-0.726,0-2.133-0.104-3.081-1.511c-0.622-0.934-0.89-1.926-0.89-4.979v-0.682c0-0.578,0.016-1.496,0.016-1.792h1.333
			c-0.015,0.326-0.06,0.918-0.06,2.074V242.216z"/>
		<path fill="#C1272D" d="M336.069,239.638c-0.43,0.652-4.519,7.956-4.993,8.831h-0.029c-0.252-0.415-4.209-8.253-4.564-8.831
			l1.23-0.623c0.207,0.578,3.2,6.712,3.467,7.112c0.223-0.311,3.541-6.697,3.704-7.112L336.069,239.638z"/>
		<path fill="#C1272D" d="M339.295,244.202c0,0.474,0.045,3.66,0.074,3.852h-1.393c0.045-0.296,0.029-4.297,0.029-4.563v-1.022
			c0-0.385-0.029-2.993-0.074-3.23c0.637,0,1.809-0.029,2.934,0.104c1.778,0.208,2.815,0.934,2.815,2.03
			c0,1.037-0.8,1.926-1.911,2.578c0.341,0.459,2.727,3.067,3.111,3.438l-1.022,0.903c-0.147-0.178-3.2-3.911-3.601-4.445
			c0.667-0.341,2.016-1.022,2.016-2.282c0-0.592-0.459-1.348-2.979-1.363V244.202z"/>
		<path fill="#C1272D" d="M351.855,248.187c-0.444,0-4.504-0.133-4.771-0.133c0.045-0.667,0.045-3.363,0.045-3.66v-1.674
			c0-0.208-0.029-3.245-0.045-3.482c0.326,0,3.838-0.192,4.505-0.237l0.06,1.067c-0.578,0-3.008,0.059-3.23,0.059v3.082
			c0.252,0,1.971-0.06,2.785-0.133l0.045,1.082c-0.223,0-0.859-0.015-1.481-0.03c-0.608,0-1.2-0.015-1.349-0.015v2.993
			c0.326,0,2.134,0.03,3.393-0.044L351.855,248.187z"/>
	</g>
	
		<image overflow="visible" width="3892" height="2584" xlink:href="../../../../../../Downloads/Chateau_Versailles_Galerie_des_Glaces.jpg"  transform="matrix(0.0362 0 0 0.0362 213.3867 260.8877)">
	</image>
	<g>
		<path fill="#C1272D" d="M245.813,373.755c0.029-0.638,0.074-4.208,0.074-5.26v-1.63c0-0.341-0.045-3.26-0.045-3.482
			c0.623,0,1.867,0.045,2.786,0.193c1.985,0.326,3.229,1.273,3.229,2.845c0,2.03-1.867,3.675-4.682,4.237v0.874
			c0,0.296,0,1.911,0.029,2.223H245.813z M247.176,369.621c1.867-0.4,3.244-1.348,3.244-2.979c0-0.443-0.252-2.118-3.244-2.162
			V369.621z"/>
		<path fill="#C1272D" d="M252.137,373.369c0.711-1.259,4.563-8.385,4.859-8.875h0.029c1.141,1.793,4.342,7.468,5.215,8.787
			l-1.199,0.726c-0.237-0.474-1.63-2.964-1.764-3.186l-4.578,0.178c-0.178,0.399-1.215,2.593-1.422,3.022L252.137,373.369z
			 M258.818,369.918c-0.148-0.282-1.704-3.127-1.838-3.334c-0.191,0.297-1.658,3.274-1.777,3.481L258.818,369.918z"/>
		<path fill="#C1272D" d="M265.807,364.939c-0.059,0.281-0.118,2.756-0.118,4.341v3.481c0.326,0,1.927,0,3.363-0.059v1.186
			c-0.43,0-4.43-0.134-4.771-0.134c0.118-0.667,0.118-3.363,0.118-3.659v-1.675c0-0.208-0.029-3.245-0.06-3.481H265.807z"/>
		<path fill="#C1272D" d="M269.938,373.369c0.711-1.259,4.564-8.385,4.86-8.875h0.029c1.142,1.793,4.341,7.468,5.216,8.787
			l-1.201,0.726c-0.236-0.474-1.629-2.964-1.763-3.186l-4.578,0.178c-0.178,0.399-1.215,2.593-1.423,3.022L269.938,373.369z
			 M276.62,369.918c-0.148-0.282-1.704-3.127-1.837-3.334c-0.193,0.297-1.66,3.274-1.778,3.481L276.62,369.918z"/>
		<path fill="#C1272D" d="M288.483,373.858c-0.252,0.044-0.874,0.104-1.688,0.104c-4.594,0-5.72-2.52-5.72-3.734
			c0-2.133,2.015-4.697,6.623-5.512l0.208,1.126c-2.934,0.356-5.453,1.985-5.453,4.179c0,1.481,1.26,2.874,4.475,2.874
			c0.549,0,1.111-0.074,1.422-0.147L288.483,373.858z"/>
		<path fill="#C1272D" d="M295.621,373.889c-0.444,0-4.504-0.134-4.771-0.134c0.045-0.667,0.045-3.363,0.045-3.659v-1.675
			c0-0.208-0.029-3.245-0.045-3.481c0.326,0,3.838-0.193,4.505-0.237l0.06,1.067c-0.578,0-3.008,0.059-3.23,0.059v3.082
			c0.252,0,1.971-0.06,2.785-0.133l0.045,1.081c-0.223,0-0.859-0.015-1.481-0.03c-0.608,0-1.2-0.014-1.349-0.014v2.992
			c0.326,0,2.134,0.029,3.393-0.045L295.621,373.889z"/>
		<path fill="#C1272D" d="M303.157,368.213c0-0.266-0.015-2.918-0.073-3.273c0.77,0,2.147-0.016,3.318,0.074
			c4.4,0.34,4.785,2.43,4.785,3.304c0,4.03-4.578,5.497-8.119,5.497c0.06-0.578,0.089-3.705,0.089-4.045V368.213z M304.432,372.718
			c3.615-0.237,5.393-2.267,5.393-4.104c0-1.94-2-2.74-5.393-2.682V372.718z"/>
		<path fill="#C1272D" d="M318.443,373.889c-0.444,0-4.504-0.134-4.771-0.134c0.045-0.667,0.045-3.363,0.045-3.659v-1.675
			c0-0.208-0.029-3.245-0.045-3.481c0.326,0,3.838-0.193,4.505-0.237l0.06,1.067c-0.578,0-3.008,0.059-3.23,0.059v3.082
			c0.252,0,1.971-0.06,2.785-0.133l0.045,1.081c-0.223,0-0.859-0.015-1.481-0.03c-0.608,0-1.2-0.014-1.349-0.014v2.992
			c0.326,0,2.134,0.029,3.393-0.045L318.443,373.889z"/>
		<path fill="#C1272D" d="M254.672,381.63c-0.518,0.771-5.037,9.364-5.57,10.386h-0.029c-0.312-0.459-4.652-9.704-5.098-10.386
			l1.275-0.711c0.236,0.667,3.688,7.911,3.984,8.371c0.252-0.355,4.045-7.897,4.223-8.371L254.672,381.63z"/>
		<path fill="#C1272D" d="M261.32,391.66c-0.444,0-4.504-0.133-4.771-0.133c0.045-0.666,0.045-3.363,0.045-3.66v-1.674
			c0-0.207-0.029-3.244-0.045-3.482c0.326,0,3.838-0.191,4.505-0.236l0.06,1.066c-0.578,0-3.008,0.06-3.23,0.06v3.082
			c0.252,0,1.971-0.06,2.785-0.134l0.045,1.082c-0.223,0-0.859-0.016-1.481-0.029c-0.608,0-1.2-0.016-1.349-0.016v2.993
			c0.326,0,2.134,0.03,3.393-0.044L261.32,391.66z"/>
		<path fill="#C1272D" d="M265.703,387.676c0,0.474,0.044,3.659,0.074,3.852h-1.393c0.044-0.297,0.029-4.297,0.029-4.563v-1.022
			c0-0.385-0.029-2.992-0.074-3.23c0.637,0,1.808-0.029,2.934,0.104c1.777,0.208,2.814,0.934,2.814,2.03
			c0,1.037-0.8,1.926-1.91,2.578c0.34,0.459,2.726,3.066,3.111,3.438l-1.023,0.902c-0.147-0.178-3.199-3.91-3.6-4.444
			c0.666-0.341,2.015-1.022,2.015-2.282c0-0.592-0.459-1.348-2.978-1.362V387.676z"/>
		<path fill="#C1272D" d="M273.137,390.727c1.363-0.266,3.097-0.814,3.097-1.822c0-0.651-0.46-0.963-1.437-1.437
			c-1.156-0.563-2.001-1.097-2.001-2.015c0-1.408,2.06-2.638,3.971-2.979l0.282,1.037c-0.875,0.133-2.89,0.637-2.89,1.733
			c0,0.682,0.963,1.022,1.541,1.349c1.022,0.563,1.911,0.963,1.911,2.015c0,1.304-1.496,2.622-4.134,3.155L273.137,390.727z"/>
		<path fill="#C1272D" d="M278.897,391.143c0.711-1.26,4.563-8.387,4.86-8.875h0.029c1.141,1.793,4.341,7.467,5.215,8.785
			l-1.2,0.727c-0.237-0.475-1.63-2.963-1.763-3.186l-4.578,0.178c-0.178,0.4-1.215,2.593-1.423,3.022L278.897,391.143z
			 M285.58,387.689c-0.148-0.281-1.705-3.126-1.838-3.333c-0.192,0.296-1.659,3.274-1.777,3.481L285.58,387.689z"/>
		<path fill="#C1272D" d="M292.449,387.72c0,1.259,0.045,3.511,0.061,3.808h-1.394c0.03-0.549,0.044-3.496,0.044-3.822v-1.363
			c0-0.223-0.044-3.334-0.073-3.631h1.437c-0.029,0.223-0.074,2.135-0.074,3.646V387.72z"/>
		<path fill="#C1272D" d="M297.781,382.711c-0.059,0.282-0.119,2.756-0.119,4.342v3.482c0.326,0,1.927,0,3.363-0.06v1.185
			c-0.43,0-4.43-0.133-4.77-0.133c0.117-0.666,0.117-3.363,0.117-3.66v-1.674c0-0.207-0.029-3.244-0.059-3.482H297.781z"/>
		<path fill="#C1272D" d="M305.068,382.711c-0.06,0.282-0.119,2.756-0.119,4.342v3.482c0.326,0,1.926,0,3.363-0.06v1.185
			c-0.43,0-4.43-0.133-4.771-0.133c0.118-0.666,0.118-3.363,0.118-3.66v-1.674c0-0.207-0.029-3.244-0.059-3.482H305.068z"/>
		<path fill="#C1272D" d="M315.674,391.66c-0.445,0-4.504-0.133-4.771-0.133c0.045-0.666,0.045-3.363,0.045-3.66v-1.674
			c0-0.207-0.029-3.244-0.045-3.482c0.326,0,3.838-0.191,4.504-0.236l0.06,1.066c-0.577,0-3.008,0.06-3.229,0.06v3.082
			c0.252,0,1.971-0.06,2.785-0.134l0.045,1.082c-0.223,0-0.859-0.016-1.482-0.029c-0.607,0-1.199-0.016-1.348-0.016v2.993
			c0.326,0,2.133,0.03,3.393-0.044L315.674,391.66z"/>
		<path fill="#C1272D" d="M318.367,390.727c1.363-0.266,3.096-0.814,3.096-1.822c0-0.651-0.459-0.963-1.437-1.437
			c-1.155-0.563-2.001-1.097-2.001-2.015c0-1.408,2.061-2.638,3.971-2.979l0.282,1.037c-0.874,0.133-2.89,0.637-2.89,1.733
			c0,0.682,0.963,1.022,1.541,1.349c1.022,0.563,1.912,0.963,1.912,2.015c0,1.304-1.497,2.622-4.135,3.155L318.367,390.727z"/>
	</g>
	<g>
		<path fill="#C1272D" d="M73.663,502.757c0.03-0.638,0.074-4.208,0.074-5.26v-1.63c0-0.341-0.044-3.26-0.044-3.482
			c0.622,0,1.867,0.045,2.786,0.193c1.985,0.326,3.229,1.273,3.229,2.845c0,2.03-1.867,3.675-4.682,4.237v0.874
			c0,0.296,0,1.911,0.029,2.223H73.663z M75.026,498.623c1.867-0.4,3.245-1.348,3.245-2.979c0-0.443-0.252-2.118-3.245-2.162
			V498.623z"/>
		<path fill="#C1272D" d="M79.987,502.371c0.711-1.259,4.563-8.385,4.86-8.875h0.029c1.141,1.793,4.341,7.468,5.215,8.787
			l-1.2,0.726c-0.237-0.474-1.629-2.964-1.763-3.186l-4.578,0.178c-0.178,0.399-1.215,2.593-1.422,3.022L79.987,502.371z
			 M86.669,498.92c-0.148-0.282-1.704-3.127-1.837-3.334c-0.192,0.297-1.659,3.274-1.778,3.481L86.669,498.92z"/>
		<path fill="#C1272D" d="M93.658,493.941c-0.059,0.281-0.119,2.756-0.119,4.341v3.481c0.326,0,1.926,0,3.363-0.059v1.186
			c-0.43,0-4.43-0.134-4.771-0.134c0.118-0.667,0.118-3.363,0.118-3.659v-1.675c0-0.208-0.029-3.245-0.059-3.481H93.658z"/>
		<path fill="#C1272D" d="M97.789,502.371c0.711-1.259,4.563-8.385,4.86-8.875h0.029c1.141,1.793,4.341,7.468,5.215,8.787
			l-1.2,0.726c-0.237-0.474-1.629-2.964-1.763-3.186l-4.578,0.178c-0.178,0.399-1.215,2.593-1.422,3.022L97.789,502.371z
			 M104.471,498.92c-0.148-0.282-1.704-3.127-1.837-3.334c-0.192,0.297-1.659,3.274-1.778,3.481L104.471,498.92z"/>
		<path fill="#C1272D" d="M116.334,502.86c-0.252,0.044-0.874,0.104-1.689,0.104c-4.593,0-5.719-2.52-5.719-3.734
			c0-2.133,2.015-4.697,6.623-5.512l0.208,1.126c-2.934,0.356-5.453,1.985-5.453,4.179c0,1.481,1.259,2.874,4.475,2.874
			c0.548,0,1.111-0.074,1.422-0.147L116.334,502.86z"/>
		<path fill="#C1272D" d="M123.472,502.891c-0.444,0-4.504-0.134-4.771-0.134c0.044-0.667,0.044-3.363,0.044-3.659v-1.675
			c0-0.208-0.029-3.245-0.044-3.481c0.326,0,3.837-0.193,4.504-0.237l0.059,1.067c-0.578,0-3.008,0.059-3.23,0.059v3.082
			c0.252,0,1.971-0.06,2.786-0.133l0.044,1.081c-0.222,0-0.859-0.015-1.481-0.03c-0.608,0-1.2-0.014-1.349-0.014v2.992
			c0.326,0,2.134,0.029,3.393-0.045L123.472,502.891z"/>
		<path fill="#C1272D" d="M131.008,497.215c0-0.266-0.015-2.918-0.074-3.273c0.771,0,2.148-0.016,3.319,0.074
			c4.4,0.34,4.786,2.43,4.786,3.304c0,4.03-4.579,5.497-8.12,5.497c0.06-0.578,0.089-3.705,0.089-4.045V497.215z M132.282,501.72
			c3.615-0.237,5.393-2.267,5.393-4.104c0-1.94-2-2.74-5.393-2.682V501.72z"/>
		<path fill="#C1272D" d="M146.294,502.891c-0.444,0-4.504-0.134-4.771-0.134c0.044-0.667,0.044-3.363,0.044-3.659v-1.675
			c0-0.208-0.029-3.245-0.044-3.481c0.326,0,3.837-0.193,4.504-0.237l0.059,1.067c-0.578,0-3.008,0.059-3.23,0.059v3.082
			c0.252,0,1.971-0.06,2.786-0.133l0.044,1.081c-0.222,0-0.859-0.015-1.481-0.03c-0.608,0-1.2-0.014-1.349-0.014v2.992
			c0.326,0,2.134,0.029,3.393-0.045L146.294,502.891z"/>
		<path fill="#C1272D" d="M56.601,520.455c0.282-0.622,3.453-10.179,3.526-10.534h0.03c0.459,0.934,3.245,6.415,3.689,7.156
			c0.519-0.829,3.6-6.237,3.882-6.696h0.029c0.519,1.215,3.171,8.43,3.808,9.985l-1.274,0.548c-0.371-1.111-2.637-7.318-2.875-7.867
			c-0.533,0.83-3.156,5.467-3.763,6.431h-0.03c-0.859-1.601-2.696-5.2-3.289-6.549c-0.296,0.919-2.341,7.408-2.519,7.985
			L56.601,520.455z"/>
		<path fill="#C1272D" d="M74.67,514.691c0,2.045,0.119,2.979,0.622,3.809c0.519,0.844,1.274,1.215,2.237,1.215
			c1.156,0,1.823-0.533,2.267-1.201c0.622-0.918,0.637-2.43,0.637-4.414v-0.43c0-0.875-0.06-1.615-0.074-2.09h1.348
			c0,0.281,0.015,1.111,0.015,2.104v0.594c0,2.414-0.178,3.94-1.185,5.111c-0.8,0.918-1.749,1.348-3.186,1.348
			c-0.726,0-2.133-0.104-3.082-1.511c-0.623-0.934-0.889-1.927-0.889-4.979v-0.682c0-0.577,0.015-1.496,0.015-1.792h1.333
			c-0.015,0.325-0.059,0.918-0.059,2.074V514.691z"/>
		<path fill="#C1272D" d="M84.519,519.729c1.363-0.266,3.097-0.814,3.097-1.822c0-0.651-0.459-0.963-1.437-1.437
			c-1.156-0.563-2-1.097-2-2.015c0-1.408,2.06-2.638,3.971-2.979l0.282,1.037c-0.874,0.133-2.889,0.637-2.889,1.733
			c0,0.682,0.963,1.022,1.541,1.349c1.022,0.563,1.911,0.963,1.911,2.015c0,1.304-1.497,2.622-4.134,3.155L84.519,519.729z"/>
		<path fill="#C1272D" d="M96.754,520.662c-0.444,0-4.504-0.133-4.771-0.133c0.044-0.666,0.044-3.363,0.044-3.66v-1.674
			c0-0.207-0.029-3.244-0.044-3.482c0.326,0,3.837-0.191,4.504-0.236l0.059,1.066c-0.578,0-3.008,0.06-3.23,0.06v3.082
			c0.252,0,1.971-0.06,2.786-0.134l0.044,1.082c-0.222,0-0.859-0.016-1.481-0.029c-0.608,0-1.2-0.016-1.349-0.016v2.993
			c0.326,0,2.134,0.03,3.393-0.044L96.754,520.662z M95.109,508.365l0.667,0.978l-2.237,1.186l-0.355-0.504L95.109,508.365z"/>
		<path fill="#C1272D" d="M104.574,520.662c-0.444,0-4.504-0.133-4.771-0.133c0.044-0.666,0.044-3.363,0.044-3.66v-1.674
			c0-0.207-0.029-3.244-0.044-3.482c0.326,0,3.837-0.191,4.504-0.236l0.059,1.066c-0.578,0-3.008,0.06-3.23,0.06v3.082
			c0.252,0,1.971-0.06,2.786-0.134l0.044,1.082c-0.222,0-0.859-0.016-1.481-0.029c-0.608,0-1.2-0.016-1.349-0.016v2.993
			c0.326,0,2.134,0.03,3.393-0.044L104.574,520.662z"/>
		<path fill="#C1272D" d="M119.785,518.218c0,0.563,0.044,1.882,0.044,2.075c-0.667,0.251-2.044,0.473-3.274,0.473
			c-3.363,0-5.511-1.881-5.511-4.326c0-1.674,1.733-5.052,7.334-6.563l0.296,1.289c-3.378,0.651-6.164,2.934-6.164,5.289
			c0,1.541,1.422,3.26,4.356,3.26c0.622,0,1.229-0.104,1.585-0.223v-2.475c0-0.43-0.029-0.934-0.044-1.021h1.393
			c-0.015,0.355-0.015,0.695-0.015,1.141V518.218z"/>
		<path fill="#C1272D" d="M123.781,514.691c0,2.045,0.119,2.979,0.622,3.809c0.519,0.844,1.274,1.215,2.237,1.215
			c1.156,0,1.823-0.533,2.267-1.201c0.622-0.918,0.637-2.43,0.637-4.414v-0.43c0-0.875-0.06-1.615-0.074-2.09h1.348
			c0,0.281,0.015,1.111,0.015,2.104v0.594c0,2.414-0.178,3.94-1.185,5.111c-0.8,0.918-1.749,1.348-3.186,1.348
			c-0.726,0-2.133-0.104-3.082-1.511c-0.623-0.934-0.889-1.927-0.889-4.979v-0.682c0-0.577,0.015-1.496,0.015-1.792h1.333
			c-0.015,0.325-0.059,0.918-0.059,2.074V514.691z"/>
		<path fill="#C1272D" d="M135.318,516.722c0,1.259,0.044,3.511,0.06,3.808h-1.393c0.03-0.549,0.044-3.496,0.044-3.822v-1.363
			c0-0.223-0.044-3.334-0.074-3.631h1.437c-0.03,0.223-0.074,2.135-0.074,3.646V516.722z"/>
		<path fill="#C1272D" d="M137.73,520.471c0.222-0.534,2.963-8.653,3.038-8.965h0.059c0.4,0.801,2.83,5.394,3.23,6.119
			c0.43-0.711,3.2-5.348,3.438-5.733h0.044c0.4,1.022,2.726,7.171,3.274,8.505l-1.23,0.459c-0.311-0.948-2.148-6.104-2.326-6.594
			c-0.43,0.697-2.771,4.549-3.348,5.467h-0.03c-0.756-1.406-2.326-4.355-2.919-5.496c-0.237,0.785-1.881,6.134-2.015,6.623
			L137.73,520.471z"/>
		<path fill="#C1272D" d="M157.89,520.662c-0.444,0-4.504-0.133-4.771-0.133c0.044-0.666,0.044-3.363,0.044-3.66v-1.674
			c0-0.207-0.029-3.244-0.044-3.482c0.326,0,3.837-0.191,4.504-0.236l0.059,1.066c-0.578,0-3.008,0.06-3.23,0.06v3.082
			c0.252,0,1.971-0.06,2.786-0.134l0.044,1.082c-0.222,0-0.859-0.016-1.481-0.029c-0.608,0-1.2-0.016-1.349-0.016v2.993
			c0.326,0,2.134,0.03,3.393-0.044L157.89,520.662z"/>
		<path fill="#C1272D" d="M162.494,520.529c0.074-0.326,0.089-4,0.089-6v-1.764c-1.526,0-3.437,0.059-3.63,0.119v-1.201
			c0.385,0.104,3.571,0.148,3.719,0.148h1.185c0.252,0,3.186-0.045,3.615-0.148v1.201c-0.03-0.061-2.519-0.119-3.601-0.119v1.955
			c0,2.564,0.134,5.557,0.163,5.809H162.494z"/>
	</g>
	
		<image overflow="visible" width="1500" height="1070" xlink:href="../../../../../../Downloads/P1030795_Paris_XVI_place_dIéna_musée_Guimet_rwk.jpg"  transform="matrix(0.0933 0 0 0.0933 43.5137 401.9043)">
	</image>
	
		<image overflow="visible" width="1000" height="667" xlink:href="../../../../../../Downloads/Back+of+Musée+Picasso.jpg"  transform="matrix(0.1348 0 0 0.1497 216.4209 401.9043)">
	</image>
	<g>
		<path fill="#C1272D" d="M227.92,520.683c0.282-0.622,3.453-10.179,3.527-10.534h0.029c0.459,0.934,3.244,6.416,3.689,7.156
			c0.519-0.83,3.6-6.238,3.882-6.697h0.029c0.519,1.215,3.171,8.431,3.808,9.986l-1.273,0.549c-0.371-1.111-2.638-7.32-2.875-7.868
			c-0.533,0.83-3.156,5.468-3.764,6.431h-0.029c-0.859-1.601-2.696-5.201-3.289-6.549c-0.297,0.918-2.341,7.408-2.519,7.986
			L227.92,520.683z"/>
		<path fill="#C1272D" d="M245.99,514.92c0,2.044,0.119,2.978,0.622,3.807c0.519,0.846,1.274,1.215,2.237,1.215
			c1.156,0,1.822-0.533,2.268-1.199c0.621-0.919,0.637-2.43,0.637-4.416v-0.43c0-0.873-0.06-1.615-0.074-2.089h1.348
			c0,0.282,0.016,1.111,0.016,2.104v0.592c0,2.416-0.178,3.941-1.186,5.112c-0.801,0.919-1.748,1.349-3.186,1.349
			c-0.727,0-2.133-0.104-3.082-1.512c-0.622-0.934-0.889-1.926-0.889-4.979v-0.682c0-0.578,0.015-1.496,0.015-1.793h1.333
			c-0.014,0.326-0.059,0.919-0.059,2.074V514.92z"/>
		<path fill="#C1272D" d="M255.838,519.957c1.363-0.268,3.098-0.814,3.098-1.822c0-0.652-0.46-0.963-1.438-1.438
			c-1.156-0.563-2-1.097-2-2.016c0-1.407,2.059-2.637,3.971-2.978l0.281,1.037c-0.874,0.134-2.889,0.638-2.889,1.733
			c0,0.682,0.963,1.022,1.541,1.349c1.021,0.563,1.91,0.963,1.91,2.015c0,1.305-1.496,2.623-4.133,3.156L255.838,519.957z"/>
		<path fill="#C1272D" d="M268.074,520.891c-0.445,0-4.504-0.134-4.771-0.134c0.045-0.667,0.045-3.363,0.045-3.659v-1.675
			c0-0.208-0.029-3.245-0.045-3.481c0.326,0,3.838-0.193,4.504-0.237l0.06,1.067c-0.577,0-3.008,0.059-3.229,0.059v3.082
			c0.252,0,1.971-0.06,2.785-0.133l0.045,1.081c-0.223,0-0.859-0.015-1.482-0.03c-0.607,0-1.199-0.014-1.348-0.014v2.992
			c0.326,0,2.133,0.029,3.393-0.045L268.074,520.891z M266.43,508.593l0.666,0.978l-2.237,1.186l-0.355-0.504L266.43,508.593z"/>
		<path fill="#C1272D" d="M275.894,520.891c-0.444,0-4.504-0.134-4.771-0.134c0.044-0.667,0.044-3.363,0.044-3.659v-1.675
			c0-0.208-0.029-3.245-0.044-3.481c0.326,0,3.837-0.193,4.504-0.237l0.059,1.067c-0.577,0-3.008,0.059-3.229,0.059v3.082
			c0.252,0,1.971-0.06,2.786-0.133l0.044,1.081c-0.222,0-0.859-0.015-1.481-0.03c-0.607,0-1.2-0.014-1.349-0.014v2.992
			c0.326,0,2.134,0.029,3.394-0.045L275.894,520.891z"/>
		<path fill="#C1272D" d="M283.637,520.757c0.03-0.638,0.074-4.208,0.074-5.26v-1.63c0-0.341-0.044-3.26-0.044-3.482
			c0.622,0,1.866,0.045,2.785,0.193c1.985,0.326,3.229,1.273,3.229,2.845c0,2.03-1.866,3.675-4.682,4.237v0.874
			c0,0.296,0,1.911,0.03,2.223H283.637z M285,516.623c1.867-0.4,3.245-1.348,3.245-2.979c0-0.443-0.252-2.118-3.245-2.162V516.623z"
			/>
		<path fill="#C1272D" d="M293.65,516.949c0,1.26,0.044,3.512,0.059,3.808h-1.393c0.029-0.548,0.045-3.497,0.045-3.823v-1.362
			c0-0.222-0.045-3.334-0.074-3.63h1.438c-0.03,0.223-0.074,2.133-0.074,3.645V516.949z"/>
		<path fill="#C1272D" d="M303.723,520.86c-0.252,0.044-0.874,0.104-1.689,0.104c-4.593,0-5.719-2.52-5.719-3.734
			c0-2.133,2.016-4.697,6.623-5.512l0.207,1.126c-2.934,0.356-5.452,1.985-5.452,4.179c0,1.481,1.259,2.874,4.475,2.874
			c0.548,0,1.111-0.074,1.423-0.147L303.723,520.86z"/>
		<path fill="#C1272D" d="M304.386,520.371c0.711-1.259,4.563-8.385,4.86-8.875h0.029c1.141,1.793,4.341,7.468,5.215,8.787
			l-1.2,0.726c-0.237-0.474-1.63-2.964-1.763-3.186l-4.578,0.178c-0.178,0.399-1.215,2.593-1.423,3.022L304.386,520.371z
			 M311.068,516.92c-0.148-0.282-1.705-3.127-1.838-3.334c-0.192,0.297-1.659,3.274-1.777,3.481L311.068,516.92z"/>
		<path fill="#C1272D" d="M316.249,519.957c1.363-0.268,3.097-0.814,3.097-1.822c0-0.652-0.459-0.963-1.438-1.438
			c-1.155-0.563-2-1.097-2-2.016c0-1.407,2.06-2.637,3.971-2.978l0.281,1.037c-0.873,0.134-2.889,0.638-2.889,1.733
			c0,0.682,0.963,1.022,1.541,1.349c1.021,0.563,1.911,0.963,1.911,2.015c0,1.305-1.497,2.623-4.134,3.156L316.249,519.957z"/>
		<path fill="#C1272D" d="M323.357,519.957c1.363-0.268,3.098-0.814,3.098-1.822c0-0.652-0.46-0.963-1.438-1.438
			c-1.156-0.563-2-1.097-2-2.016c0-1.407,2.059-2.637,3.971-2.978l0.281,1.037c-0.874,0.134-2.889,0.638-2.889,1.733
			c0,0.682,0.963,1.022,1.541,1.349c1.021,0.563,1.91,0.963,1.91,2.015c0,1.305-1.496,2.623-4.133,3.156L323.357,519.957z"/>
		<path fill="#C1272D" d="M329.727,516.801c0-2.801,2.059-5.066,5.318-5.066c2.607,0,4.52,1.584,4.52,4.296
			c0,1.971-1.393,4.935-5.275,4.935C331.341,520.965,329.727,519.023,329.727,516.801z M338.186,516.09
			c0-2.252-1.57-3.379-3.333-3.379c-2.356,0-3.763,1.749-3.763,3.897c0,1.882,1.259,3.378,3.318,3.378
			C336.438,519.986,338.186,518.578,338.186,516.09z"/>
	</g>
</g>
<g>
	<path fill="#C1272D" d="M56.346,24h-2.171c0-0.24-0.806-1.509-2.417-3.806c-1.688-2.42-2.648-4.075-2.883-4.966h-0.141
		c0.146,1.283,0.22,2.443,0.22,3.48c0,1.447,0.041,3.211,0.123,5.291h-2.162c0.088-1.816,0.132-3.812,0.132-5.985
		c0-2.139-0.044-3.958-0.132-5.458h2.61c0,0.311,0.724,1.55,2.171,3.718c1.541,2.303,2.426,3.864,2.654,4.685h0.132
		c-0.141-1.307-0.211-2.479-0.211-3.516c0-1.588-0.041-3.217-0.123-4.887h2.197c-0.082,1.453-0.123,3.272-0.123,5.458
		C56.223,20.218,56.264,22.213,56.346,24z"/>
	<path fill="#C1272D" d="M65.741,23.991l-2.074,0.07c-0.094-0.246-0.141-0.469-0.141-0.668h-0.114
		c-0.645,0.551-1.515,0.826-2.61,0.826c-0.732,0-1.34-0.204-1.824-0.611s-0.725-0.948-0.725-1.622c0-0.891,0.376-1.62,1.129-2.188
		s2.073-0.87,3.959-0.905c0.012-0.105,0.018-0.205,0.018-0.299c0-0.633-0.152-1.05-0.457-1.252s-0.864-0.303-1.679-0.303
		c-0.885,0-1.749,0.117-2.593,0.352l0.193-1.617c0.797-0.275,1.922-0.413,3.375-0.413c1.061,0,1.879,0.223,2.457,0.668
		s0.866,1.225,0.866,2.338c0,0.246-0.01,0.694-0.031,1.345s-0.031,1.084-0.031,1.301C65.46,22.225,65.554,23.218,65.741,23.991z
		 M63.395,22.163c-0.035-0.791-0.053-1.474-0.053-2.048c-1.998,0-2.997,0.507-2.997,1.521c0,0.697,0.439,1.046,1.318,1.046
		C62.354,22.682,62.932,22.509,63.395,22.163z"/>
	<path fill="#C1272D" d="M75.031,15.65c0,0.34-0.524,1.731-1.573,4.175S71.885,23.66,71.885,24h-2.399
		c0-0.375-0.466-1.8-1.397-4.276s-1.397-3.833-1.397-4.074h2.566c0,0.264,0.289,1.282,0.866,3.054s0.866,2.814,0.866,3.125h0.114
		c0-0.281,0.275-1.266,0.826-2.953s0.826-2.763,0.826-3.226H75.031z"/>
	<path fill="#C1272D" d="M78.731,24h-2.364c0.082-1.213,0.123-2.604,0.123-4.175c0-1.559-0.1-2.924-0.299-4.096l2.531-0.255
		c-0.076,1.137-0.114,2.587-0.114,4.351C78.608,21.331,78.649,22.723,78.731,24z M79.136,12.996c0,0.398-0.136,0.747-0.409,1.046
		s-0.652,0.448-1.138,0.448c-0.41,0-0.731-0.129-0.962-0.387s-0.347-0.568-0.347-0.932c0-0.398,0.136-0.744,0.409-1.037
		s0.655-0.439,1.147-0.439c0.416,0,0.737,0.127,0.962,0.382S79.136,12.639,79.136,12.996z"/>
	<path fill="#C1272D" d="M89.489,14.438l-0.193,1.635c-0.914,0-1.485,0.132-1.714,0.396v0.114c0.346,0.439,0.519,0.932,0.519,1.477
		c0,0.838-0.309,1.553-0.927,2.145s-1.54,0.888-2.764,0.888c-0.598,0-1.087-0.047-1.468-0.141c-0.311,0.141-0.466,0.325-0.466,0.554
		c0,0.357,0.186,0.608,0.558,0.751s1.238,0.215,2.597,0.215c2.35,0,3.524,0.8,3.524,2.399c0,1.125-0.489,2.019-1.468,2.681
		s-2.168,0.993-3.568,0.993c-2.742,0-4.113-0.861-4.113-2.584c0-0.533,0.154-0.986,0.461-1.358s0.664-0.599,1.068-0.681v-0.132
		c-0.492-0.311-0.738-0.785-0.738-1.424c0-0.645,0.337-1.184,1.011-1.617v-0.123c-0.949-0.475-1.424-1.216-1.424-2.224
		c0-0.861,0.327-1.582,0.98-2.162s1.663-0.87,3.028-0.87c0.932,0,1.688,0.176,2.268,0.527h0.123c0.17-1.107,0.738-1.661,1.705-1.661
		C88.868,14.235,89.202,14.303,89.489,14.438z M86.984,25.521c0-0.434-0.166-0.747-0.497-0.94s-0.901-0.29-1.709-0.29
		c-0.656,0-1.318-0.029-1.986-0.088c-0.516,0.305-0.773,0.759-0.773,1.362c0,1.125,0.75,1.688,2.25,1.688
		c0.838,0,1.5-0.158,1.986-0.475S86.984,26.042,86.984,25.521z M85.947,18.287c0-0.527-0.17-0.929-0.51-1.204
		s-0.729-0.413-1.169-0.413s-0.825,0.133-1.156,0.4s-0.497,0.658-0.497,1.173c0,0.521,0.17,0.917,0.51,1.187
		s0.735,0.404,1.187,0.404c0.428,0,0.807-0.13,1.138-0.391S85.947,18.797,85.947,18.287z"/>
	<path fill="#C1272D" d="M98.489,23.991l-2.057,0.07c-0.094-0.316-0.141-0.568-0.141-0.756h-0.141
		c-0.768,0.633-1.664,0.949-2.689,0.949c-0.967,0-1.695-0.253-2.184-0.76s-0.734-1.519-0.734-3.037c0-0.182,0.004-0.437,0.013-0.765
		s0.013-0.615,0.013-0.861c0-0.65-0.056-1.688-0.167-3.111l2.452-0.088c-0.094,1.125-0.141,2.191-0.141,3.199
		c0,1.436,0.107,2.402,0.321,2.9s0.634,0.747,1.261,0.747c0.686,0,1.277-0.164,1.775-0.492c0-3.082-0.035-5.174-0.105-6.275
		l2.373-0.079c-0.059,1.107-0.088,2.543-0.088,4.307C98.252,21.246,98.331,22.597,98.489,23.991z"/>
	<path fill="#C1272D" d="M107.999,18.929c0,0.299-0.018,0.688-0.053,1.169l-5.66,0.097c0.082,0.662,0.366,1.213,0.853,1.652
		s1.125,0.659,1.916,0.659c0.879,0,1.813-0.132,2.804-0.396l-0.176,1.705c-0.809,0.293-1.811,0.439-3.006,0.439
		c-1.512,0-2.67-0.425-3.476-1.274s-1.208-1.872-1.208-3.067c0-1.248,0.382-2.331,1.147-3.248s1.827-1.375,3.186-1.375
		c1.242,0,2.165,0.337,2.769,1.011S107.999,17.851,107.999,18.929z M105.942,18.85c0-1.348-0.574-2.021-1.723-2.021
		c-1.096,0-1.746,0.697-1.951,2.092L105.942,18.85z"/>
	<path fill="#C1272D" d="M115.936,22.242L115.892,24h-6.645l0.123-1.679c0.293-0.264,0.981-1.078,2.065-2.443
		c1.16-1.459,1.74-2.294,1.74-2.505v-0.141c-1.395,0-2.678,0.05-3.85,0.149l0.044-1.731h6.381l-0.132,1.688
		c-0.369,0.404-1.028,1.225-1.978,2.461c-1.107,1.441-1.661,2.268-1.661,2.479v0.132C113.311,22.409,114.629,22.354,115.936,22.242z
		"/>
	<path fill="#C1272D" d="M129.787,19.465c0,1.271-0.363,2.388-1.09,3.349s-1.72,1.441-2.979,1.441c-0.938,0-1.582-0.199-1.934-0.598
		h-0.105c0,1.436,0.021,2.889,0.062,4.359h-2.391c0.105-1.682,0.158-3.621,0.158-5.818c0-2.836-0.152-4.998-0.457-6.486l2.25-0.246
		l0.132,0.756h0.141c0.627-0.58,1.479-0.87,2.558-0.87c1.125,0,2.016,0.406,2.672,1.217S129.787,18.346,129.787,19.465z
		 M127.449,19.693c0-0.738-0.185-1.374-0.554-1.907s-0.879-0.8-1.529-0.8c-0.809,0-1.4,0.237-1.775,0.712
		c0.088,1.646,0.132,3.155,0.132,4.526c0.369,0.287,0.847,0.431,1.433,0.431c0.779,0,1.356-0.289,1.731-0.866
		S127.449,20.514,127.449,19.693z"/>
	<path fill="#C1272D" d="M138.532,23.991l-2.074,0.07c-0.094-0.246-0.141-0.469-0.141-0.668h-0.114
		c-0.645,0.551-1.515,0.826-2.61,0.826c-0.732,0-1.34-0.204-1.824-0.611s-0.725-0.948-0.725-1.622c0-0.891,0.376-1.62,1.129-2.188
		s2.073-0.87,3.959-0.905c0.012-0.105,0.018-0.205,0.018-0.299c0-0.633-0.152-1.05-0.457-1.252s-0.864-0.303-1.679-0.303
		c-0.885,0-1.749,0.117-2.593,0.352l0.193-1.617c0.797-0.275,1.922-0.413,3.375-0.413c1.061,0,1.879,0.223,2.457,0.668
		s0.866,1.225,0.866,2.338c0,0.246-0.01,0.694-0.031,1.345s-0.031,1.084-0.031,1.301C138.251,22.225,138.345,23.218,138.532,23.991z
		 M136.186,22.163c-0.035-0.791-0.053-1.474-0.053-2.048c-1.998,0-2.997,0.507-2.997,1.521c0,0.697,0.439,1.046,1.318,1.046
		C135.146,22.682,135.723,22.509,136.186,22.163z"/>
	<path fill="#C1272D" d="M146.021,15.65l-0.51,2.057c-0.434-0.176-0.873-0.264-1.318-0.264c-0.861,0-1.43,0.387-1.705,1.16
		c0,2.338,0.018,4.137,0.053,5.396h-2.338c0.1-1.764,0.149-3.205,0.149-4.324c0-1.395-0.146-2.716-0.439-3.964l2.241-0.246
		c0.1,0.645,0.149,1.022,0.149,1.134h0.141c0.539-0.826,1.257-1.239,2.153-1.239C145.019,15.36,145.493,15.457,146.021,15.65z"/>
	<path fill="#C1272D" d="M160.18,24h-2.329c0.123-1.482,0.185-2.924,0.185-4.324c0-1.049-0.135-1.734-0.404-2.057
		s-0.7-0.483-1.292-0.483c-0.475,0-0.976,0.173-1.503,0.519c-0.023,0.732-0.035,1.389-0.035,1.969c0,0.979,0.018,2.438,0.053,4.377
		h-2.355c0.129-1.605,0.193-3.167,0.193-4.685c0-0.785-0.11-1.345-0.33-1.679s-0.675-0.501-1.367-0.501
		c-0.639,0-1.169,0.214-1.591,0.642c0.029,2.32,0.044,4.395,0.044,6.223h-2.364c0.105-1.828,0.158-3.27,0.158-4.324
		c0-1.371-0.144-2.692-0.431-3.964l2.25-0.246l0.149,0.932h0.141c0.762-0.691,1.62-1.037,2.575-1.037
		c1.195,0,2.036,0.346,2.522,1.037h0.141c0.867-0.691,1.726-1.037,2.575-1.037c0.996,0,1.748,0.215,2.254,0.646
		s0.76,1.211,0.76,2.342c0,0.111-0.006,0.324-0.018,0.637s-0.018,0.526-0.018,0.637C160.145,20.602,160.156,22.061,160.18,24z"/>
	<path fill="#C1272D" d="M164.627,24h-2.364c0.082-1.213,0.123-2.604,0.123-4.175c0-1.559-0.1-2.924-0.299-4.096l2.531-0.255
		c-0.076,1.137-0.114,2.587-0.114,4.351C164.504,21.331,164.545,22.723,164.627,24z M165.031,12.996
		c0,0.398-0.136,0.747-0.409,1.046s-0.652,0.448-1.138,0.448c-0.41,0-0.731-0.129-0.962-0.387s-0.347-0.568-0.347-0.932
		c0-0.398,0.136-0.744,0.409-1.037s0.655-0.439,1.147-0.439c0.416,0,0.737,0.127,0.962,0.382S165.031,12.639,165.031,12.996z"/>
	<path fill="#C1272D" d="M172.59,21.601c0,1.758-1.301,2.637-3.902,2.637c-0.949,0-1.778-0.103-2.487-0.308l0.299-1.731
		c0.732,0.264,1.462,0.396,2.188,0.396c0.703,0,1.191-0.059,1.463-0.176s0.409-0.313,0.409-0.589c0-0.428-0.492-0.835-1.477-1.222
		c-0.861-0.34-1.488-0.674-1.881-1.002c-0.539-0.457-0.809-1.017-0.809-1.679c0-0.779,0.29-1.406,0.87-1.881
		s1.424-0.712,2.531-0.712c1.037,0,1.852,0.091,2.443,0.272l-0.299,1.74c-0.662-0.258-1.377-0.387-2.145-0.387
		c-0.938,0-1.406,0.24-1.406,0.721c0,0.246,0.1,0.444,0.299,0.593s0.606,0.338,1.222,0.567c0.85,0.311,1.468,0.63,1.854,0.958
		C172.314,20.268,172.59,20.868,172.59,21.601z"/>
	<path fill="#C1272D" d="M183.277,22.356l-0.149,1.564c-0.41,0.176-0.926,0.264-1.547,0.264c-0.949,0-1.664-0.258-2.145-0.773
		s-0.721-1.509-0.721-2.979c0-0.885,0.006-1.887,0.018-3.006c-0.299,0-0.703,0.018-1.213,0.053l0.062-1.731
		c0.451,0.035,0.87,0.053,1.257,0.053c0.006-0.311,0.029-1.128,0.07-2.452l2.083-0.255c-0.088,1.166-0.132,2.068-0.132,2.707
		c0.492,0,1.228-0.023,2.206-0.07l-0.07,1.749c-0.891-0.035-1.614-0.053-2.171-0.053c-0.012,0.779-0.018,1.597-0.018,2.452
		c0,1.043,0.105,1.742,0.316,2.096s0.583,0.532,1.116,0.532C182.563,22.506,182.908,22.456,183.277,22.356z"/>
	<path fill="#C1272D" d="M193.068,19.632c0,1.477-0.454,2.631-1.362,3.463s-1.978,1.248-3.208,1.248
		c-1.172,0-2.177-0.379-3.015-1.138s-1.257-1.827-1.257-3.204c0-1.482,0.457-2.643,1.371-3.48s1.986-1.257,3.217-1.257
		c1.166,0,2.167,0.382,3.001,1.147S193.068,18.249,193.068,19.632z M190.774,19.896c0-0.85-0.199-1.563-0.598-2.14
		s-0.917-0.866-1.556-0.866c-0.621,0-1.126,0.27-1.516,0.809s-0.584,1.213-0.584,2.021c0,0.85,0.199,1.563,0.598,2.14
		s0.917,0.866,1.556,0.866c0.621,0,1.126-0.27,1.516-0.809S190.774,20.704,190.774,19.896z"/>
	<path fill="#C1272D" d="M202.508,23.991l-2.057,0.07c-0.094-0.316-0.141-0.568-0.141-0.756h-0.141
		c-0.768,0.633-1.664,0.949-2.689,0.949c-0.967,0-1.695-0.253-2.184-0.76s-0.734-1.519-0.734-3.037c0-0.182,0.004-0.437,0.013-0.765
		s0.013-0.615,0.013-0.861c0-0.65-0.056-1.688-0.167-3.111l2.452-0.088c-0.094,1.125-0.141,2.191-0.141,3.199
		c0,1.436,0.107,2.402,0.321,2.9s0.634,0.747,1.261,0.747c0.686,0,1.277-0.164,1.775-0.492c0-3.082-0.035-5.174-0.105-6.275
		l2.373-0.079c-0.059,1.107-0.088,2.543-0.088,4.307C202.271,21.246,202.35,22.597,202.508,23.991z"/>
	<path fill="#C1272D" d="M210.356,21.601c0,1.758-1.301,2.637-3.902,2.637c-0.949,0-1.778-0.103-2.487-0.308l0.299-1.731
		c0.732,0.264,1.462,0.396,2.188,0.396c0.703,0,1.19-0.059,1.464-0.176c0.271-0.117,0.408-0.313,0.408-0.589
		c0-0.428-0.492-0.835-1.477-1.222c-0.861-0.34-1.488-0.674-1.881-1.002c-0.539-0.457-0.809-1.017-0.809-1.679
		c0-0.779,0.29-1.406,0.87-1.881s1.424-0.712,2.531-0.712c1.037,0,1.852,0.091,2.443,0.272l-0.299,1.74
		c-0.662-0.258-1.377-0.387-2.145-0.387c-0.938,0-1.406,0.24-1.406,0.721c0,0.246,0.1,0.444,0.299,0.593s0.606,0.338,1.222,0.567
		c0.85,0.311,1.468,0.63,1.854,0.958C210.081,20.268,210.356,20.868,210.356,21.601z"/>
	<path fill="#C1272D" d="M223.435,15.65c0,0.34-0.524,1.731-1.573,4.175s-1.573,3.835-1.573,4.175h-2.399
		c0-0.375-0.466-1.8-1.397-4.276s-1.397-3.833-1.397-4.074h2.566c0,0.264,0.289,1.282,0.865,3.054
		c0.578,1.772,0.866,2.814,0.866,3.125h0.114c0-0.281,0.275-1.266,0.826-2.953s0.826-2.763,0.826-3.226H223.435z"/>
	<path fill="#C1272D" d="M233.111,19.632c0,1.477-0.454,2.631-1.362,3.463s-1.978,1.248-3.208,1.248
		c-1.172,0-2.177-0.379-3.015-1.138s-1.257-1.827-1.257-3.204c0-1.482,0.457-2.643,1.371-3.48s1.986-1.257,3.217-1.257
		c1.166,0,2.166,0.382,3.002,1.147C232.693,17.175,233.111,18.249,233.111,19.632z M230.817,19.896c0-0.85-0.199-1.563-0.598-2.14
		s-0.917-0.866-1.556-0.866c-0.621,0-1.127,0.27-1.516,0.809c-0.391,0.539-0.585,1.213-0.585,2.021c0,0.85,0.199,1.563,0.598,2.14
		s0.917,0.866,1.556,0.866c0.621,0,1.127-0.27,1.516-0.809C230.623,21.378,230.817,20.704,230.817,19.896z"/>
	<path fill="#C1272D" d="M240.67,21.601c0,1.758-1.301,2.637-3.902,2.637c-0.949,0-1.778-0.103-2.487-0.308l0.299-1.731
		c0.732,0.264,1.462,0.396,2.188,0.396c0.703,0,1.191-0.059,1.463-0.176c0.273-0.117,0.409-0.313,0.409-0.589
		c0-0.428-0.492-0.835-1.477-1.222c-0.861-0.34-1.488-0.674-1.881-1.002c-0.539-0.457-0.809-1.017-0.809-1.679
		c0-0.779,0.29-1.406,0.87-1.881s1.424-0.712,2.531-0.712c1.037,0,1.852,0.091,2.443,0.272l-0.299,1.74
		c-0.662-0.258-1.377-0.387-2.145-0.387c-0.938,0-1.406,0.24-1.406,0.721c0,0.246,0.1,0.444,0.299,0.593s0.606,0.338,1.222,0.567
		c0.85,0.311,1.468,0.63,1.854,0.958C240.395,20.268,240.67,20.868,240.67,21.601z"/>
	<path fill="#C1272D" d="M251.647,11.528l-0.316,1.564c-0.334-0.082-0.677-0.123-1.028-0.123c-0.422,0-0.712,0.193-0.87,0.58
		s-0.237,1.137-0.237,2.25c0.521,0,1.239-0.023,2.153-0.07l-0.07,1.749c-0.914-0.035-1.608-0.053-2.083-0.053
		c0,2.209,0.044,4.4,0.132,6.574h-2.32c0.088-2.145,0.132-4.336,0.132-6.574c-0.346,0-0.858,0.018-1.538,0.053l0.07-1.74
		c0.621,0.041,1.11,0.062,1.468,0.062c0-2.947,0.99-4.421,2.971-4.421C250.701,11.379,251.214,11.429,251.647,11.528z"/>
	<path fill="#C1272D" d="M259.813,23.991l-2.074,0.07c-0.094-0.246-0.141-0.469-0.141-0.668h-0.114
		c-0.645,0.551-1.515,0.826-2.61,0.826c-0.732,0-1.34-0.204-1.824-0.611c-0.482-0.407-0.725-0.948-0.725-1.622
		c0-0.891,0.377-1.62,1.129-2.188c0.754-0.568,2.073-0.87,3.96-0.905c0.012-0.105,0.018-0.205,0.018-0.299
		c0-0.633-0.152-1.05-0.457-1.252s-0.864-0.303-1.679-0.303c-0.885,0-1.749,0.117-2.593,0.352l0.193-1.617
		c0.797-0.275,1.922-0.413,3.375-0.413c1.061,0,1.88,0.223,2.456,0.668c0.578,0.445,0.866,1.225,0.866,2.338
		c0,0.246-0.011,0.694-0.03,1.345c-0.021,0.65-0.031,1.084-0.031,1.301C259.531,22.225,259.625,23.218,259.813,23.991z
		 M257.466,22.163c-0.035-0.791-0.053-1.474-0.053-2.048c-1.998,0-2.997,0.507-2.997,1.521c0,0.697,0.439,1.046,1.318,1.046
		C256.426,22.682,257.003,22.509,257.466,22.163z"/>
	<path fill="#C1272D" d="M269.103,15.65c0,0.34-0.524,1.731-1.573,4.175s-1.573,3.835-1.573,4.175h-2.399
		c0-0.375-0.466-1.8-1.397-4.276s-1.397-3.833-1.397-4.074h2.566c0,0.264,0.288,1.282,0.866,3.054
		c0.576,1.772,0.865,2.814,0.865,3.125h0.114c0-0.281,0.275-1.266,0.826-2.953s0.826-2.763,0.826-3.226H269.103z"/>
	<path fill="#C1272D" d="M278.779,19.632c0,1.477-0.454,2.631-1.362,3.463s-1.978,1.248-3.208,1.248
		c-1.172,0-2.177-0.379-3.015-1.138s-1.257-1.827-1.257-3.204c0-1.482,0.457-2.643,1.371-3.48s1.986-1.257,3.217-1.257
		c1.166,0,2.167,0.382,3.001,1.147C278.362,17.175,278.779,18.249,278.779,19.632z M276.485,19.896c0-0.85-0.199-1.563-0.598-2.14
		s-0.917-0.866-1.556-0.866c-0.621,0-1.127,0.27-1.517,0.809s-0.584,1.213-0.584,2.021c0,0.85,0.199,1.563,0.598,2.14
		s0.917,0.866,1.556,0.866c0.621,0,1.126-0.27,1.517-0.809C276.29,21.378,276.485,20.704,276.485,19.896z"/>
	<path fill="#C1272D" d="M286.162,15.65l-0.51,2.057c-0.434-0.176-0.873-0.264-1.318-0.264c-0.861,0-1.43,0.387-1.705,1.16
		c0,2.338,0.018,4.137,0.053,5.396h-2.338c0.1-1.764,0.149-3.205,0.149-4.324c0-1.395-0.146-2.716-0.439-3.964l2.241-0.246
		c0.1,0.645,0.149,1.022,0.149,1.134h0.141c0.539-0.826,1.257-1.239,2.153-1.239C285.16,15.36,285.635,15.457,286.162,15.65z"/>
	<path fill="#C1272D" d="M289.792,24h-2.364c0.082-1.213,0.123-2.604,0.123-4.175c0-1.559-0.1-2.924-0.299-4.096l2.531-0.255
		c-0.076,1.137-0.114,2.587-0.114,4.351C289.669,21.331,289.71,22.723,289.792,24z M290.196,12.996c0,0.398-0.136,0.747-0.409,1.046
		c-0.271,0.299-0.651,0.448-1.138,0.448c-0.41,0-0.731-0.129-0.962-0.387c-0.232-0.258-0.348-0.568-0.348-0.932
		c0-0.398,0.137-0.744,0.408-1.037c0.273-0.293,0.655-0.439,1.147-0.439c0.416,0,0.736,0.127,0.962,0.382
		S290.196,12.639,290.196,12.996z"/>
	<path fill="#C1272D" d="M297.755,21.601c0,1.758-1.301,2.637-3.902,2.637c-0.949,0-1.778-0.103-2.487-0.308l0.299-1.731
		c0.732,0.264,1.462,0.396,2.188,0.396c0.703,0,1.19-0.059,1.464-0.176c0.271-0.117,0.408-0.313,0.408-0.589
		c0-0.428-0.492-0.835-1.477-1.222c-0.861-0.34-1.488-0.674-1.881-1.002c-0.539-0.457-0.809-1.017-0.809-1.679
		c0-0.779,0.29-1.406,0.87-1.881s1.424-0.712,2.531-0.712c1.037,0,1.852,0.091,2.443,0.272l-0.299,1.74
		c-0.662-0.258-1.377-0.387-2.145-0.387c-0.938,0-1.406,0.24-1.406,0.721c0,0.246,0.1,0.444,0.299,0.593s0.606,0.338,1.222,0.567
		c0.85,0.311,1.468,0.63,1.854,0.958C297.479,20.268,297.755,20.868,297.755,21.601z"/>
	<path fill="#C1272D" d="M311.281,23.991l-2.083,0.07c-0.041-0.205-0.062-0.419-0.062-0.642h-0.132
		c-0.645,0.557-1.468,0.835-2.47,0.835c-1.125,0-2.019-0.407-2.681-1.222s-0.993-1.781-0.993-2.9c0-1.283,0.36-2.401,1.081-3.353
		s1.723-1.428,3.006-1.428c0.832,0,1.456,0.155,1.872,0.466h0.123c0-1.383-0.067-2.774-0.202-4.175l2.487-0.07
		c-0.094,1.365-0.141,3.328-0.141,5.889C311.088,20.057,311.152,22.233,311.281,23.991z M309.075,21.996
		c0-1.869-0.044-3.416-0.132-4.641c-0.404-0.281-0.888-0.422-1.45-0.422c-0.773,0-1.348,0.287-1.723,0.861s-0.563,1.277-0.563,2.109
		c0,0.738,0.182,1.375,0.545,1.912s0.867,0.804,1.512,0.804C308.126,22.62,308.729,22.412,309.075,21.996z"/>
	<path fill="#C1272D" d="M320.29,23.991l-2.074,0.07c-0.094-0.246-0.141-0.469-0.141-0.668h-0.114
		c-0.645,0.551-1.515,0.826-2.61,0.826c-0.732,0-1.341-0.204-1.823-0.611c-0.484-0.407-0.726-0.948-0.726-1.622
		c0-0.891,0.376-1.62,1.13-2.188c0.752-0.568,2.072-0.87,3.959-0.905c0.012-0.105,0.018-0.205,0.018-0.299
		c0-0.633-0.152-1.05-0.457-1.252s-0.864-0.303-1.679-0.303c-0.885,0-1.749,0.117-2.593,0.352l0.193-1.617
		c0.797-0.275,1.922-0.413,3.375-0.413c1.061,0,1.879,0.223,2.457,0.668c0.576,0.445,0.865,1.225,0.865,2.338
		c0,0.246-0.011,0.694-0.031,1.345s-0.03,1.084-0.03,1.301C320.009,22.225,320.103,23.218,320.29,23.991z M317.943,22.163
		c-0.035-0.791-0.053-1.474-0.053-2.048c-1.998,0-2.997,0.507-2.997,1.521c0,0.697,0.439,1.046,1.318,1.046
		C316.903,22.682,317.48,22.509,317.943,22.163z"/>
	<path fill="#C1272D" d="M329.923,24h-2.338c0.129-1.482,0.193-2.982,0.193-4.5c0-0.92-0.136-1.544-0.409-1.872
		c-0.271-0.328-0.687-0.492-1.243-0.492c-0.668,0-1.301,0.229-1.898,0.686c0.029,2.285,0.044,4.345,0.044,6.179h-2.364
		c0.105-1.834,0.158-3.275,0.158-4.324c0-1.4-0.144-2.722-0.431-3.964l2.25-0.246l0.149,0.932h0.141
		c0.803-0.691,1.726-1.037,2.769-1.037c0.902,0,1.624,0.212,2.166,0.637s0.813,1.208,0.813,2.351c0,0.17-0.008,0.397-0.022,0.681
		s-0.021,0.576-0.021,0.875C329.879,20.695,329.894,22.061,329.923,24z"/>
	<path fill="#C1272D" d="M337.851,21.601c0,1.758-1.301,2.637-3.902,2.637c-0.949,0-1.778-0.103-2.487-0.308l0.299-1.731
		c0.732,0.264,1.462,0.396,2.188,0.396c0.703,0,1.19-0.059,1.464-0.176c0.271-0.117,0.408-0.313,0.408-0.589
		c0-0.428-0.492-0.835-1.477-1.222c-0.861-0.34-1.488-0.674-1.881-1.002c-0.539-0.457-0.809-1.017-0.809-1.679
		c0-0.779,0.29-1.406,0.87-1.881s1.424-0.712,2.531-0.712c1.037,0,1.852,0.091,2.443,0.272l-0.299,1.74
		c-0.662-0.258-1.377-0.387-2.145-0.387c-0.938,0-1.406,0.24-1.406,0.721c0,0.246,0.1,0.444,0.299,0.593s0.606,0.338,1.222,0.567
		c0.85,0.311,1.468,0.63,1.854,0.958C337.575,20.268,337.851,20.868,337.851,21.601z"/>
	<path fill="#C1272D" d="M106.795,45.591l-2.057,0.07c-0.094-0.316-0.141-0.568-0.141-0.756h-0.141
		c-0.768,0.633-1.664,0.949-2.689,0.949c-0.967,0-1.695-0.253-2.184-0.76s-0.734-1.519-0.734-3.037c0-0.182,0.004-0.437,0.013-0.765
		s0.013-0.615,0.013-0.861c0-0.65-0.056-1.688-0.167-3.111l2.452-0.088c-0.094,1.125-0.141,2.191-0.141,3.199
		c0,1.436,0.107,2.402,0.321,2.9s0.634,0.747,1.261,0.747c0.686,0,1.277-0.164,1.775-0.492c0-3.082-0.035-5.174-0.105-6.275
		l2.373-0.079c-0.059,1.107-0.088,2.543-0.088,4.307C106.558,42.846,106.637,44.197,106.795,45.591z"/>
	<path fill="#C1272D" d="M116.612,45.6h-2.338c0.129-1.482,0.193-2.982,0.193-4.5c0-0.92-0.136-1.544-0.409-1.872
		s-0.687-0.492-1.244-0.492c-0.668,0-1.301,0.229-1.898,0.686c0.029,2.285,0.044,4.345,0.044,6.179h-2.364
		c0.105-1.834,0.158-3.275,0.158-4.324c0-1.4-0.144-2.722-0.431-3.964l2.25-0.246l0.149,0.932h0.141
		c0.803-0.691,1.726-1.037,2.769-1.037c0.902,0,1.625,0.212,2.167,0.637s0.813,1.208,0.813,2.351c0,0.17-0.007,0.397-0.022,0.681
		s-0.022,0.576-0.022,0.875C116.568,42.295,116.583,43.661,116.612,45.6z"/>
	<path fill="#C1272D" d="M128.442,43.201c0,1.758-1.301,2.637-3.902,2.637c-0.949,0-1.778-0.103-2.487-0.308l0.299-1.731
		c0.732,0.264,1.462,0.396,2.188,0.396c0.703,0,1.191-0.059,1.463-0.176s0.409-0.313,0.409-0.589c0-0.428-0.492-0.835-1.477-1.222
		c-0.861-0.34-1.488-0.674-1.881-1.002c-0.539-0.457-0.809-1.017-0.809-1.679c0-0.779,0.29-1.406,0.87-1.881
		s1.424-0.712,2.531-0.712c1.037,0,1.852,0.091,2.443,0.272l-0.299,1.74c-0.662-0.258-1.377-0.387-2.145-0.387
		c-0.938,0-1.406,0.24-1.406,0.721c0,0.246,0.1,0.444,0.299,0.593s0.606,0.338,1.222,0.567c0.85,0.311,1.468,0.63,1.854,0.958
		C128.167,41.868,128.442,42.468,128.442,43.201z"/>
	<path fill="#C1272D" d="M137.653,40.529c0,0.299-0.018,0.688-0.053,1.169l-5.66,0.097c0.082,0.662,0.366,1.213,0.853,1.652
		s1.125,0.659,1.916,0.659c0.879,0,1.813-0.132,2.804-0.396l-0.176,1.705c-0.809,0.293-1.811,0.439-3.006,0.439
		c-1.512,0-2.67-0.425-3.476-1.274s-1.208-1.872-1.208-3.067c0-1.248,0.382-2.331,1.147-3.248s1.827-1.375,3.186-1.375
		c1.242,0,2.165,0.337,2.769,1.011S137.653,39.451,137.653,40.529z M135.597,40.45c0-1.348-0.574-2.021-1.723-2.021
		c-1.096,0-1.746,0.697-1.951,2.092L135.597,40.45z"/>
	<path fill="#C1272D" d="M147.093,45.591l-2.057,0.07c-0.094-0.316-0.141-0.568-0.141-0.756h-0.141
		c-0.768,0.633-1.664,0.949-2.689,0.949c-0.967,0-1.695-0.253-2.184-0.76s-0.734-1.519-0.734-3.037c0-0.182,0.004-0.437,0.013-0.765
		s0.013-0.615,0.013-0.861c0-0.65-0.056-1.688-0.167-3.111l2.452-0.088c-0.094,1.125-0.141,2.191-0.141,3.199
		c0,1.436,0.107,2.402,0.321,2.9s0.634,0.747,1.261,0.747c0.686,0,1.277-0.164,1.775-0.492c0-3.082-0.035-5.174-0.105-6.275
		l2.373-0.079c-0.059,1.107-0.088,2.543-0.088,4.307C146.855,42.846,146.935,44.197,147.093,45.591z"/>
	<path fill="#C1272D" d="M151.593,45.6h-2.399c0.088-2.01,0.132-4.187,0.132-6.53c0-2.285-0.091-4.228-0.272-5.827l2.54-0.141
		c-0.088,1.658-0.132,3.647-0.132,5.968C151.461,41.425,151.505,43.602,151.593,45.6z"/>
	<path fill="#C1272D" d="M165.146,40.529c0,0.299-0.018,0.688-0.053,1.169l-5.66,0.097c0.082,0.662,0.366,1.213,0.853,1.652
		s1.125,0.659,1.916,0.659c0.879,0,1.813-0.132,2.804-0.396l-0.176,1.705c-0.809,0.293-1.811,0.439-3.006,0.439
		c-1.512,0-2.67-0.425-3.476-1.274s-1.208-1.872-1.208-3.067c0-1.248,0.382-2.331,1.147-3.248s1.827-1.375,3.186-1.375
		c1.242,0,2.165,0.337,2.769,1.011S165.146,39.451,165.146,40.529z M163.089,40.45c0-1.348-0.574-2.021-1.723-2.021
		c-1.096,0-1.746,0.697-1.951,2.092L163.089,40.45z"/>
	<path fill="#C1272D" d="M171.939,43.957l-0.149,1.564c-0.41,0.176-0.926,0.264-1.547,0.264c-0.949,0-1.664-0.258-2.145-0.773
		s-0.721-1.509-0.721-2.979c0-0.885,0.006-1.887,0.018-3.006c-0.299,0-0.703,0.018-1.213,0.053l0.062-1.731
		c0.451,0.035,0.87,0.053,1.257,0.053c0.006-0.311,0.029-1.128,0.07-2.452l2.083-0.255c-0.088,1.166-0.132,2.068-0.132,2.707
		c0.492,0,1.228-0.023,2.206-0.07l-0.07,1.749c-0.891-0.035-1.614-0.053-2.171-0.053c-0.012,0.779-0.018,1.597-0.018,2.452
		c0,1.043,0.105,1.742,0.316,2.096s0.583,0.532,1.116,0.532C171.225,44.106,171.57,44.056,171.939,43.957z"/>
	<path fill="#C1272D" d="M190.186,45.6h-2.329c0.123-1.482,0.185-2.924,0.185-4.324c0-1.049-0.135-1.734-0.404-2.057
		s-0.7-0.483-1.292-0.483c-0.475,0-0.976,0.173-1.503,0.519c-0.023,0.732-0.035,1.389-0.035,1.969c0,0.979,0.018,2.438,0.053,4.377
		h-2.355c0.129-1.605,0.193-3.167,0.193-4.685c0-0.785-0.11-1.345-0.33-1.679s-0.675-0.501-1.367-0.501
		c-0.639,0-1.169,0.214-1.591,0.642c0.029,2.32,0.044,4.395,0.044,6.223h-2.364c0.105-1.828,0.158-3.27,0.158-4.324
		c0-1.371-0.144-2.692-0.431-3.964l2.25-0.246l0.149,0.932h0.141c0.762-0.691,1.62-1.037,2.575-1.037
		c1.195,0,2.036,0.346,2.522,1.037h0.141c0.867-0.691,1.726-1.037,2.575-1.037c0.996,0,1.748,0.215,2.254,0.646
		s0.76,1.211,0.76,2.342c0,0.111-0.006,0.324-0.018,0.637s-0.018,0.526-0.018,0.637C190.15,42.202,190.162,43.661,190.186,45.6z"/>
	<path fill="#C1272D" d="M199.774,40.529c0,0.299-0.018,0.688-0.053,1.169l-5.66,0.097c0.082,0.662,0.366,1.213,0.853,1.652
		s1.125,0.659,1.916,0.659c0.879,0,1.813-0.132,2.804-0.396l-0.176,1.705c-0.809,0.293-1.811,0.439-3.006,0.439
		c-1.512,0-2.67-0.425-3.476-1.274s-1.208-1.872-1.208-3.067c0-1.248,0.382-2.331,1.147-3.248s1.827-1.375,3.186-1.375
		c1.242,0,2.165,0.337,2.769,1.011S199.774,39.451,199.774,40.529z M198.86,36.055h-1.362c0-0.094-0.486-0.662-1.459-1.705
		c-0.973,1.043-1.459,1.611-1.459,1.705h-1.362c0-0.094,0.278-0.576,0.835-1.446s0.835-1.337,0.835-1.402h2.303
		c0,0.064,0.278,0.532,0.835,1.402S198.86,35.961,198.86,36.055z M197.718,40.45c0-1.348-0.574-2.021-1.723-2.021
		c-1.096,0-1.746,0.697-1.951,2.092L197.718,40.45z"/>
	<path fill="#C1272D" d="M214.382,45.6h-2.329c0.123-1.482,0.185-2.924,0.185-4.324c0-1.049-0.135-1.734-0.404-2.057
		s-0.7-0.483-1.292-0.483c-0.475,0-0.976,0.173-1.503,0.519c-0.023,0.732-0.035,1.389-0.035,1.969c0,0.979,0.018,2.438,0.053,4.377
		H206.7c0.129-1.605,0.193-3.167,0.193-4.685c0-0.785-0.11-1.345-0.329-1.679c-0.221-0.334-0.676-0.501-1.367-0.501
		c-0.639,0-1.169,0.214-1.591,0.642c0.029,2.32,0.044,4.395,0.044,6.223h-2.364c0.105-1.828,0.158-3.27,0.158-4.324
		c0-1.371-0.144-2.692-0.431-3.964l2.25-0.246l0.149,0.932h0.141c0.762-0.691,1.62-1.037,2.575-1.037
		c1.195,0,2.036,0.346,2.522,1.037h0.141c0.867-0.691,1.726-1.037,2.575-1.037c0.996,0,1.748,0.215,2.254,0.646
		c0.508,0.431,0.761,1.211,0.761,2.342c0,0.111-0.006,0.324-0.018,0.637s-0.018,0.526-0.018,0.637
		C214.347,42.202,214.358,43.661,214.382,45.6z"/>
	<path fill="#C1272D" d="M223.971,40.529c0,0.299-0.018,0.688-0.053,1.169l-5.66,0.097c0.082,0.662,0.366,1.213,0.853,1.652
		s1.125,0.659,1.916,0.659c0.879,0,1.813-0.132,2.804-0.396l-0.176,1.705c-0.809,0.293-1.811,0.439-3.006,0.439
		c-1.512,0-2.67-0.425-3.477-1.274c-0.805-0.85-1.208-1.872-1.208-3.067c0-1.248,0.382-2.331,1.147-3.248
		c0.764-0.917,1.826-1.375,3.186-1.375c1.242,0,2.165,0.337,2.769,1.011S223.971,39.451,223.971,40.529z M221.914,40.45
		c0-1.348-0.574-2.021-1.723-2.021c-1.096,0-1.746,0.697-1.951,2.092L221.914,40.45z"/>
	<path fill="#C1272D" d="M237.093,40.529c0,0.299-0.018,0.688-0.053,1.169l-5.66,0.097c0.082,0.662,0.366,1.213,0.853,1.652
		s1.125,0.659,1.916,0.659c0.879,0,1.813-0.132,2.804-0.396l-0.176,1.705c-0.809,0.293-1.811,0.439-3.006,0.439
		c-1.512,0-2.671-0.425-3.476-1.274c-0.807-0.85-1.209-1.872-1.209-3.067c0-1.248,0.383-2.331,1.146-3.248
		c0.766-0.917,1.827-1.375,3.187-1.375c1.242,0,2.165,0.337,2.769,1.011S237.093,39.451,237.093,40.529z M235.036,40.45
		c0-1.348-0.574-2.021-1.723-2.021c-1.096,0-1.746,0.697-1.951,2.092L235.036,40.45z"/>
	<path fill="#C1272D" d="M246.62,45.6h-2.338c0.129-1.482,0.193-2.982,0.193-4.5c0-0.92-0.136-1.544-0.409-1.872
		c-0.271-0.328-0.687-0.492-1.243-0.492c-0.668,0-1.301,0.229-1.898,0.686c0.029,2.285,0.044,4.345,0.044,6.179h-2.364
		c0.105-1.834,0.158-3.275,0.158-4.324c0-1.4-0.144-2.722-0.431-3.964l2.25-0.246l0.149,0.932h0.141
		c0.803-0.691,1.726-1.037,2.769-1.037c0.902,0,1.625,0.212,2.166,0.637c0.543,0.425,0.813,1.208,0.813,2.351
		c0,0.17-0.007,0.397-0.022,0.681c-0.014,0.284-0.021,0.576-0.021,0.875C246.576,42.295,246.591,43.661,246.62,45.6z"/>
	<path fill="#C1272D" d="M256.622,45.591l-2.083,0.07c-0.041-0.205-0.062-0.419-0.062-0.642h-0.132
		c-0.645,0.557-1.468,0.835-2.47,0.835c-1.125,0-2.019-0.407-2.681-1.222s-0.993-1.781-0.993-2.9c0-1.283,0.36-2.401,1.081-3.353
		s1.723-1.428,3.006-1.428c0.832,0,1.456,0.155,1.872,0.466h0.123c0-1.383-0.067-2.774-0.202-4.175l2.487-0.07
		c-0.094,1.365-0.141,3.328-0.141,5.889C256.429,41.657,256.493,43.833,256.622,45.591z M254.416,43.596
		c0-1.869-0.044-3.416-0.132-4.641c-0.404-0.281-0.888-0.422-1.45-0.422c-0.773,0-1.348,0.287-1.723,0.861s-0.563,1.277-0.563,2.109
		c0,0.738,0.182,1.375,0.545,1.912s0.867,0.804,1.512,0.804C253.467,44.22,254.07,44.012,254.416,43.596z"/>
	<path fill="#C1272D" d="M264.277,37.25l-0.51,2.057c-0.434-0.176-0.873-0.264-1.318-0.264c-0.861,0-1.43,0.387-1.705,1.16
		c0,2.338,0.018,4.137,0.053,5.396h-2.338c0.1-1.764,0.149-3.205,0.149-4.324c0-1.395-0.146-2.716-0.439-3.964l2.241-0.246
		c0.1,0.645,0.149,1.022,0.149,1.134h0.141c0.539-0.826,1.257-1.239,2.153-1.239C263.275,36.96,263.75,37.057,264.277,37.25z"/>
	<path fill="#C1272D" d="M273.884,41.232c0,1.477-0.454,2.631-1.362,3.463s-1.978,1.248-3.208,1.248
		c-1.172,0-2.177-0.379-3.015-1.138s-1.257-1.827-1.257-3.204c0-1.482,0.457-2.643,1.371-3.48s1.986-1.257,3.217-1.257
		c1.166,0,2.167,0.382,3.001,1.147C273.467,38.775,273.884,39.849,273.884,41.232z M271.59,41.496c0-0.85-0.199-1.563-0.598-2.14
		s-0.917-0.866-1.556-0.866c-0.621,0-1.127,0.27-1.517,0.809s-0.584,1.213-0.584,2.021c0,0.85,0.199,1.563,0.598,2.14
		s0.917,0.866,1.556,0.866c0.621,0,1.126-0.27,1.517-0.809C271.395,42.978,271.59,42.304,271.59,41.496z"/>
	<path fill="#C1272D" d="M277.962,45.6h-2.364c0.082-1.213,0.123-2.604,0.123-4.175c0-1.559-0.1-2.924-0.299-4.096l2.531-0.255
		c-0.076,1.137-0.114,2.587-0.114,4.351C277.839,42.931,277.88,44.323,277.962,45.6z M278.366,34.596
		c0,0.398-0.136,0.747-0.409,1.046c-0.271,0.299-0.651,0.448-1.138,0.448c-0.41,0-0.731-0.129-0.962-0.387
		c-0.232-0.258-0.348-0.568-0.348-0.932c0-0.398,0.137-0.744,0.408-1.037c0.273-0.293,0.655-0.439,1.147-0.439
		c0.416,0,0.736,0.127,0.962,0.382S278.366,34.239,278.366,34.596z"/>
	<path fill="#C1272D" d="M285.16,43.957l-0.149,1.564c-0.41,0.176-0.926,0.264-1.547,0.264c-0.949,0-1.664-0.258-2.145-0.773
		s-0.721-1.509-0.721-2.979c0-0.885,0.006-1.887,0.018-3.006c-0.299,0-0.703,0.018-1.213,0.053l0.062-1.731
		c0.451,0.035,0.87,0.053,1.257,0.053c0.006-0.311,0.029-1.128,0.07-2.452l2.083-0.255c-0.088,1.166-0.132,2.068-0.132,2.707
		c0.492,0,1.228-0.023,2.206-0.07l-0.07,1.749c-0.891-0.035-1.614-0.053-2.171-0.053c-0.012,0.779-0.018,1.597-0.018,2.452
		c0,1.043,0.105,1.742,0.316,2.096s0.583,0.532,1.116,0.532C284.445,44.106,284.791,44.056,285.16,43.957z"/>
	<path fill="#C1272D" d="M289.282,44.071c0,0.428-0.148,0.804-0.443,1.129c-0.297,0.325-0.705,0.488-1.227,0.488
		c-0.439,0-0.782-0.141-1.028-0.422s-0.369-0.618-0.369-1.011c0-0.428,0.147-0.798,0.444-1.112c0.295-0.313,0.707-0.47,1.234-0.47
		c0.445,0,0.788,0.136,1.028,0.409S289.282,43.684,289.282,44.071z"/>
</g>
</svg>
