<?xml version="1.0" encoding="utf-8"?>
<!-- Generator: Adobe Illustrator 16.0.0, SVG Export Plug-In . SVG Version: 6.00 Build 0)  -->
<!DOCTYPE svg PUBLIC "-//W3C//DTD SVG 1.1//EN" "http://www.w3.org/Graphics/SVG/1.1/DTD/svg11.dtd">
<svg version="1.1" id="Calque_1" xmlns="http://www.w3.org/2000/svg" xmlns:xlink="http://www.w3.org/1999/xlink" x="0px" y="0px"
	 width="408.949px" height="646.919px" viewBox="0 0 408.949 646.919" enable-background="new 0 0 408.949 646.919"
	 xml:space="preserve">
<image overflow="visible" width="409" height="647" xlink:href="descript1.png"  transform="matrix(0.9999 0 0 0.9999 0 0)">
</image>
<path fill="#73B84D" d="M345.326,327.263c-4.687,4.687-12.285,4.686-16.971,0L148.482,147.39c-4.687-4.687-4.687-12.284,0-16.971
	l66.735-66.735c4.686-4.686,12.284-4.686,16.971,0l179.873,179.873c4.686,4.687,4.686,12.284,0,16.971L345.326,327.263z"/>
<g>
	<path fill="#F7F7F7" d="M240.376,179.416l-4.541,4.185l-23.361-23.361c5.125-4.65,12.011-11.298,20.659-19.947
		c7.441-7.44,13.438-13.674,17.988-18.701l5.521,5.521c-4.234,3.76-10.469,9.756-18.701,17.988
		c-6.768,6.768-12.299,12.081-16.592,15.939C227.287,166.978,233.628,173.103,240.376,179.416z"/>
	<path fill="#F7F7F7" d="M247.887,195.652l-5.641-5.64c6.708-6.114,13.625-12.735,20.748-19.858
		c7.006-7.006,12.973-13.269,17.899-18.79l5.641,5.64c-5.681,5.125-11.933,11.102-18.761,17.929
		C260.611,182.096,253.981,189.002,247.887,195.652z"/>
	<path fill="#F7F7F7" d="M288.791,236.555l-6.501-6.501c0.217-0.217,0.812-3.067,1.78-8.549c1.129-6.353,1.831-11.823,2.108-16.414
		c0.375-6.234-0.139-10.053-1.544-11.458l-0.92-0.92c-4.63,4.63-10.993,11.191-19.087,19.68l-5.58-5.581
		c6.431-5.837,13.348-12.457,20.748-19.858c6.966-6.965,12.933-13.229,17.899-18.79l5.581,5.581
		c-5.462,5.065-10.904,10.31-16.326,15.732l0.683,0.683c1.088,1.088,6.327,1.281,15.717,0.579s14.383-1.351,14.976-1.944
		l6.175,6.174c-0.594,0.593-5.155,0.93-13.685,1.009s-14.564-0.169-18.106-0.742l-0.298,0.297
		c1.405,3.146,1.268,10.864-0.415,23.153C290.452,230.004,289.384,235.962,288.791,236.555z"/>
	<path fill="#F7F7F7" d="M323.609,262.411l-4.66,4.303l-23.925-23.925c6.411-5.856,13.317-12.486,20.719-19.888
		c6.966-6.965,12.941-13.219,17.929-18.76l22.441,22.441l-4.661,4.186c-5.204-5.68-10.854-11.567-16.948-17.662
		c-2.949,3.187-7.035,7.391-12.26,12.615c5.265,5.264,10.072,9.836,14.427,13.714l-4.423,4.423
		c-4.215-4.571-8.816-9.35-13.804-14.337c-5.085,5.086-9.766,9.943-14.04,14.574C310.974,250.665,317.375,256.771,323.609,262.411z"
		/>
</g>
</svg>
