<?xml version="1.0" encoding="utf-8"?>
<!-- Generator: Adobe Illustrator 16.0.0, SVG Export Plug-In . SVG Version: 6.00 Build 0)  -->
<!DOCTYPE svg PUBLIC "-//W3C//DTD SVG 1.1//EN" "http://www.w3.org/Graphics/SVG/1.1/DTD/svg11.dtd">
<svg version="1.1" xmlns="http://www.w3.org/2000/svg" xmlns:xlink="http://www.w3.org/1999/xlink" x="0px" y="0px" width="383px"
	 height="602px" viewBox="0 0 383 602" enable-background="new 0 0 383 602" xml:space="preserve">
<g id="Calque_1">
	<g>
		<path fill="#C1272D" d="M104.475,425.224c0.399-0.881,4.892-14.424,4.997-14.928h0.042c0.651,1.322,4.598,9.092,5.228,10.141
			c0.735-1.176,5.102-8.839,5.501-9.49h0.042c0.735,1.723,4.493,11.947,5.396,14.152l-1.806,0.776
			c-0.525-1.575-3.737-10.372-4.073-11.149c-0.756,1.176-4.472,7.748-5.333,9.113h-0.042c-1.218-2.268-3.821-7.37-4.661-9.281
			c-0.42,1.303-3.317,10.498-3.569,11.317L104.475,425.224z"/>
		<path fill="#C1272D" d="M130.165,416.992c0,2.917,0.126,4.25,0.828,5.492c0.702,1.225,1.819,1.746,3.115,1.746
			c1.549,0,2.539-0.774,3.133-1.71c0.864-1.351,0.882-3.547,0.882-6.374v-0.63c0-1.243-0.072-2.305-0.108-2.972h1.711
			c0,0.396,0.018,1.585,0.018,3.007v0.829c0,3.457-0.198,5.653-1.548,7.328c-1.062,1.296-2.413,1.908-4.321,1.908
			c-0.972,0-2.935-0.144-4.195-2.143c-0.846-1.351-1.152-2.755-1.152-7.13v-0.973c0-0.828,0.018-2.143,0.018-2.557h1.71
			c-0.036,0.468-0.09,1.314-0.09,2.953V416.992z"/>
		<path fill="#C1272D" d="M143.7,424.303c1.765-0.36,4.015-1.261,4.015-2.719c0-0.9-0.576-1.368-1.873-2.07
			c-1.53-0.828-2.593-1.585-2.593-2.863c0-1.908,2.665-3.691,5.132-4.249l0.378,1.387c-1.099,0.18-3.763,1.044-3.763,2.557
			c0,0.936,1.278,1.512,2.035,1.962c1.368,0.811,2.467,1.387,2.467,2.845c0,1.765-1.873,3.691-5.33,4.502L143.7,424.303z"/>
		<path fill="#C1272D" d="M159.74,425.509c-0.288,0-5.708-0.18-6.068-0.18c0.054-0.954,0.054-4.808,0.054-5.222v-2.413
			c0-0.287-0.036-4.627-0.054-4.969c0.432,0,5.131-0.271,5.708-0.343l0.072,1.423c-0.576,0-3.817,0.09-4.105,0.09v4.573
			c0.324,0,2.629-0.09,3.511-0.198l0.054,1.423c-0.396,0-3.205-0.072-3.565-0.072v4.394c0.432,0,2.845,0.054,4.321-0.054
			L159.74,425.509z M157.867,408.854l0.864,1.26l-2.863,1.513l-0.468-0.648L157.867,408.854z"/>
		<path fill="#C1272D" d="M170.071,425.509c-0.288,0-5.708-0.18-6.067-0.18c0.054-0.954,0.054-4.808,0.054-5.222v-2.413
			c0-0.287-0.036-4.627-0.054-4.969c0.432,0,5.131-0.271,5.708-0.343l0.072,1.423c-0.576,0-3.817,0.09-4.105,0.09v4.573
			c0.324,0,2.629-0.09,3.511-0.198l0.054,1.423c-0.396,0-3.205-0.072-3.565-0.072v4.394c0.432,0,2.845,0.054,4.321-0.054
			L170.071,425.509z"/>
		<path fill="#C1272D" d="M181.138,416.091c0-0.441-0.021-4.871-0.105-5.459c1.197,0,3.527-0.021,5.354,0.21
			c6.845,0.86,7.685,3.905,7.685,5.375c0,6.509-8.272,9.218-13.06,9.218c0.084-0.967,0.126-6.174,0.126-6.74V416.091z
			 M183.028,423.587c5.732-0.504,8.986-3.885,8.986-6.824c0-3.191-3.548-4.619-8.986-4.557V423.587z"/>
		<path fill="#C1272D" d="M198.954,416.992c0,2.917,0.126,4.25,0.828,5.492c0.702,1.225,1.819,1.746,3.115,1.746
			c1.549,0,2.539-0.774,3.133-1.71c0.865-1.351,0.883-3.547,0.883-6.374v-0.63c0-1.243-0.072-2.305-0.108-2.972h1.711
			c0,0.396,0.018,1.585,0.018,3.007v0.829c0,3.457-0.198,5.653-1.548,7.328c-1.063,1.296-2.413,1.908-4.322,1.908
			c-0.972,0-2.935-0.144-4.195-2.143c-0.846-1.351-1.152-2.755-1.152-7.13v-0.973c0-0.828,0.018-2.143,0.018-2.557h1.71
			c-0.036,0.468-0.09,1.314-0.09,2.953V416.992z"/>
		<path fill="#C1272D" d="M221.835,410.632c-0.084,0.462-0.168,4.598-0.168,7.244v5.941c0.504,0,2.981,0,4.997-0.084v1.806
			c-0.294,0-6.529-0.21-7.055-0.21c0.168-1.113,0.168-5.605,0.168-6.109v-2.793c0-0.336-0.042-5.396-0.084-5.795H221.835z"/>
		<path fill="#C1272D" d="M228.901,419.676c0-3.997,2.827-7.238,7.166-7.238c3.403,0,5.978,2.25,5.978,6.14
			c0,2.809-1.873,7.04-6.986,7.04C231.134,425.617,228.901,422.845,228.901,419.676z M240.299,418.667
			c0-3.223-2.125-4.897-4.483-4.897c-3.224,0-5.186,2.557-5.186,5.636c0,2.683,1.765,4.88,4.591,4.88
			C237.922,424.285,240.299,422.214,240.299,418.667z"/>
		<path fill="#C1272D" d="M246.561,416.992c0,2.917,0.125,4.25,0.828,5.492c0.701,1.225,1.818,1.746,3.114,1.746
			c1.549,0,2.539-0.774,3.134-1.71c0.863-1.351,0.882-3.547,0.882-6.374v-0.63c0-1.243-0.072-2.305-0.108-2.972h1.711
			c0,0.396,0.018,1.585,0.018,3.007v0.829c0,3.457-0.197,5.653-1.549,7.328c-1.062,1.296-2.412,1.908-4.32,1.908
			c-0.973,0-2.936-0.144-4.195-2.143c-0.847-1.351-1.152-2.755-1.152-7.13v-0.973c0-0.828,0.018-2.143,0.018-2.557h1.711
			c-0.036,0.468-0.09,1.314-0.09,2.953V416.992z"/>
		<path fill="#C1272D" d="M271.204,413.302c-0.63,0.936-6.122,11.379-6.77,12.621h-0.036c-0.378-0.558-5.654-11.793-6.193-12.621
			l1.548-0.864c0.288,0.81,4.483,9.614,4.844,10.173c0.306-0.433,4.915-9.597,5.132-10.173L271.204,413.302z"/>
		<path fill="#C1272D" d="M275.485,419.819c0,0.685,0.054,5.239,0.09,5.51h-1.746c0.072-0.432,0.036-6.14,0.036-6.518v-1.477
			c0-0.54-0.036-4.268-0.091-4.609c0.847,0,2.359,0.018,3.745,0.18c2.377,0.288,3.728,1.297,3.728,2.827s-1.026,2.719-2.503,3.655
			c0.45,0.611,3.691,4.627,4.195,5.167l-1.368,1.099c-0.198-0.252-4.249-5.563-4.789-6.32c0.899-0.486,2.7-1.584,2.7-3.349
			c0-0.811-0.594-2.017-3.997-2.053V419.819z"/>
		<path fill="#C1272D" d="M292.335,425.509c-0.288,0-5.708-0.18-6.068-0.18c0.055-0.954,0.055-4.808,0.055-5.222v-2.413
			c0-0.287-0.036-4.627-0.055-4.969c0.433,0,5.132-0.271,5.708-0.343l0.072,1.423c-0.576,0-3.817,0.09-4.105,0.09v4.573
			c0.324,0,2.629-0.09,3.511-0.198l0.055,1.423c-0.396,0-3.205-0.072-3.565-0.072v4.394c0.433,0,2.845,0.054,4.321-0.054
			L292.335,425.509z"/>
	</g>
	<g>
		<path fill="#C1272D" d="M158.065,456c0.042-0.902,0.105-5.963,0.105-7.453v-2.311c0-0.482-0.063-4.619-0.063-4.934
			c0.882,0,2.646,0.063,3.947,0.273c2.813,0.461,4.577,1.805,4.577,4.031c0,2.876-2.646,5.207-6.635,6.004v1.239
			c0,0.42,0,2.708,0.042,3.149H158.065z M159.997,450.143c2.646-0.567,4.598-1.911,4.598-4.221c0-0.63-0.357-3.002-4.598-3.065
			V450.143z"/>
		<path fill="#C1272D" d="M167.264,455.307c1.155-2.016,7.202-13.941,7.706-14.738h0.042c1.848,2.98,6.824,12.45,8.251,14.634
			l-1.785,1.176c-0.42-0.798-2.646-5.103-2.876-5.438l-7.286,0.295c-0.252,0.398-1.974,4.451-2.331,5.164L167.264,455.307z
			 M177.972,449.596c-0.231-0.461-2.813-5.354-3.023-5.689c-0.315,0.462-2.729,5.605-2.918,5.941L177.972,449.596z"/>
		<path fill="#C1272D" d="M188.683,449.575c0,0.798,0.063,6.11,0.105,6.425h-2.037c0.084-0.504,0.042-7.16,0.042-7.601v-1.722
			c0-0.63-0.042-4.977-0.105-5.375c0.987,0,2.75,0.021,4.367,0.21c2.771,0.336,4.346,1.512,4.346,3.296
			c0,1.785-1.197,3.171-2.918,4.263c0.525,0.714,4.304,5.396,4.892,6.026l-1.596,1.28c-0.231-0.294-4.955-6.487-5.585-7.37
			c1.05-0.566,3.149-1.848,3.149-3.904c0-0.945-0.693-2.352-4.661-2.395V449.575z"/>
		<path fill="#C1272D" d="M203.215,449.659c0,2.1,0.063,5.858,0.084,6.341h-2.037c0.043-0.924,0.063-5.837,0.063-6.383v-2.268
			c0-0.357-0.063-5.543-0.104-6.047h2.1c-0.043,0.378-0.105,3.569-0.105,6.089V449.659z"/>
		<path fill="#C1272D" d="M208.885,454.803c2.059-0.42,4.683-1.469,4.683-3.17c0-1.05-0.672-1.596-2.184-2.414
			c-1.784-0.967-3.023-1.848-3.023-3.339c0-2.226,3.107-4.304,5.983-4.955l0.441,1.616c-1.281,0.211-4.389,1.219-4.389,2.982
			c0,1.092,1.491,1.764,2.373,2.288c1.596,0.944,2.877,1.616,2.877,3.317c0,2.058-2.184,4.305-6.215,5.249L208.885,454.803z"/>
	</g>
	
		<image overflow="visible" width="3008" height="2000" xlink:href="../../../../../../Desktop/2518653159_e1617ca9e2_o.jpg"  transform="matrix(0.1611 0 0 0.1601 -33.0322 80.5122)">
	</image>
	<circle fill="none" stroke="#E41818" stroke-width="8" stroke-miterlimit="10" cx="86.083" cy="506.477" r="34.879"/>
	<g>
		
			<rect x="83.146" y="487.295" transform="matrix(-0.7071 0.7071 -0.7071 -0.7071 504.5629 802.5509)" fill="#E52321" stroke="#E41818" stroke-width="4" stroke-miterlimit="10" width="5.871" height="36.94"/>
		
			<rect x="83.147" y="487.295" transform="matrix(0.7071 0.7071 -0.7071 0.7071 382.843 87.2655)" fill="#E52321" stroke="#E41818" stroke-width="4" stroke-miterlimit="10" width="5.871" height="36.94"/>
	</g>
	<ellipse fill="none" stroke="#FBAE17" stroke-width="8" stroke-miterlimit="10" cx="195.22" cy="516.661" rx="26.78" ry="26.032"/>
	<path fill="#FBAE17" stroke="#FBAE17" stroke-width="2" stroke-miterlimit="10" d="M211.611,512.346
		c-0.289-0.852-1.023-1.474-1.904-1.607l-8.594-1.318l-3.735-8.005c-0.39-0.843-1.234-1.378-2.158-1.378
		c-0.922,0-1.765,0.535-2.16,1.378l-3.735,8.005l-8.595,1.318c-0.883,0.135-1.614,0.757-1.899,1.607
		c-0.284,0.854-0.072,1.795,0.555,2.436l6.3,6.491l-1.464,9c-0.148,0.911,0.234,1.817,0.976,2.351
		c0.411,0.29,0.896,0.438,1.376,0.438c0.395,0,0.792-0.098,1.151-0.301l7.491-4.163l7.492,4.163c0.363,0.203,0.76,0.301,1.155,0.301
		c0.482,0,0.962-0.147,1.373-0.438c0.745-0.533,1.126-1.441,0.98-2.351l-1.462-9l6.3-6.491
		C211.678,514.141,211.893,513.199,211.611,512.346z"/>
	<circle fill="none" stroke="#71B84C" stroke-width="8" stroke-miterlimit="10" cx="303.568" cy="505.766" r="38.169"/>
	<path fill="#73B84D" d="M293.447,490.802h0.466c2.415,0.063,4.821,0.806,6.794,2.21c1.125,0.796,2.107,1.794,2.861,2.948
		c1.316-2.02,3.329-3.548,5.583-4.382c1.306-0.49,2.694-0.731,4.087-0.776h0.465c1.722,0.051,3.443,0.406,5.008,1.139
		c1.871,0.859,3.526,2.218,4.669,3.935c1.068,1.565,1.65,3.444,1.701,5.336v0.378c-0.037,1.672-0.369,3.342-1.044,4.875
		c-0.996,2.294-2.633,4.249-4.447,5.945c-1.205,1.172-2.51,2.235-3.813,3.291c-2.697,2.216-5.471,4.356-7.93,6.842
		c-1.462,1.414-2.772,2.978-3.977,4.612h-0.588c-1.275-1.626-2.629-3.195-4.139-4.609c-2.996-2.939-6.406-5.404-9.619-8.095
		c-0.724-0.639-1.469-1.254-2.148-1.942c-1.576-1.487-2.992-3.188-3.955-5.143c-0.898-1.792-1.33-3.793-1.367-5.791v-0.392
		c0.047-1.117,0.241-2.234,0.649-3.279c0.913-2.418,2.788-4.421,5.058-5.629C289.499,491.321,291.476,490.854,293.447,490.802z"/>
	<g>
		<path fill="#C1272D" d="M50.601,21.493L50.54,23h-8.07c0.082-1.688,0.123-4.026,0.123-7.014c0-2.57-0.041-4.683-0.123-6.337h1.907
			c-0.082,1.381-0.123,3.493-0.123,6.337c0,2.338-0.038,4.211-0.113,5.619C46.192,21.605,48.345,21.568,50.601,21.493z"/>
		<path fill="#C1272D" d="M54.036,23H52.18c0.096-1.367,0.144-2.929,0.144-4.686c0-1.976-0.12-3.633-0.359-4.973l2.051-0.277
			c-0.082,1.429-0.123,3.179-0.123,5.25C53.893,19.955,53.94,21.517,54.036,23z M54.467,10.183c0,0.349-0.113,0.651-0.338,0.907
			c-0.226,0.257-0.543,0.385-0.954,0.385c-0.349,0-0.621-0.111-0.815-0.333c-0.195-0.222-0.292-0.491-0.292-0.805
			c0-0.342,0.116-0.639,0.349-0.892s0.554-0.379,0.964-0.379c0.335,0,0.6,0.111,0.794,0.333C54.37,9.621,54.467,9.882,54.467,10.183
			z"/>
		<path fill="#C1272D" d="M65.541,23h-2.41c0-0.239-0.663-1.152-1.989-2.738c-1.36-1.634-2.215-2.451-2.563-2.451h-0.072
			c0,1.463,0.038,3.192,0.113,5.188h-1.805c0.089-2.502,0.133-5.052,0.133-7.649c0-2.646-0.099-4.905-0.297-6.778L58.62,8.47
			c-0.075,1.477-0.113,4.344-0.113,8.603h0.072c0.226,0,0.935-0.576,2.128-1.728c1.192-1.152,1.789-1.848,1.789-2.087h2.266
			c0,0.219-0.537,0.786-1.61,1.702c-1.005,0.854-1.924,1.559-2.758,2.112v0.082c0.848,0.643,1.938,1.743,3.271,3.302
			C64.916,21.927,65.541,22.774,65.541,23z"/>
		<path fill="#C1272D" d="M75.416,16.981c0,0.287-0.014,0.684-0.041,1.189l-7.044,0.123c0.068,0.998,0.455,1.834,1.159,2.507
			s1.637,1.01,2.799,1.01c1.039,0,2.013-0.126,2.922-0.379l-0.174,1.446c-0.67,0.267-1.637,0.4-2.902,0.4
			c-1.777,0-3.133-0.485-4.065-1.456c-0.934-0.971-1.4-2.153-1.4-3.548c0-1.49,0.425-2.774,1.277-3.85
			c0.851-1.077,1.994-1.615,3.43-1.615c1.319,0,2.322,0.39,3.01,1.169C75.072,14.756,75.416,15.757,75.416,16.981z M73.703,17.001
			c0-1.921-0.803-2.881-2.41-2.881c-1.641,0-2.608,0.998-2.902,2.994L73.703,17.001z"/>
		<path fill="#C1272D" d="M84.982,21.349L84.921,23h-7.475l0.082-1.589c0.362-0.349,1.289-1.429,2.779-3.24
			c1.62-1.976,2.43-3.083,2.43-3.322l-0.01-0.113c-2.194,0-3.934,0.044-5.219,0.133l0.062-1.61h7.116l-0.103,1.61
			c-0.567,0.622-1.466,1.709-2.697,3.261c-1.531,1.935-2.297,3.035-2.297,3.302v0.082C81.653,21.513,83.451,21.458,84.982,21.349z"
			/>
		<path fill="#C1272D" d="M99.358,21.431l-0.103,1.374c-0.554,0.314-1.295,0.472-2.225,0.472c-1.771,0-3.124-0.489-4.061-1.466
			s-1.405-2.157-1.405-3.538c0-1.463,0.492-2.721,1.477-3.773s2.287-1.579,3.907-1.579c0.813,0,1.477,0.082,1.989,0.246l-0.277,1.61
			c-0.718-0.267-1.446-0.4-2.184-0.4c-0.971,0-1.743,0.338-2.317,1.015s-0.861,1.524-0.861,2.543c0,1.107,0.342,2.03,1.025,2.769
			s1.651,1.107,2.902,1.107C97.738,21.811,98.449,21.684,99.358,21.431z"/>
		<path fill="#C1272D" d="M109.797,16.981c0,0.287-0.014,0.684-0.041,1.189l-7.044,0.123c0.068,0.998,0.455,1.834,1.159,2.507
			s1.637,1.01,2.799,1.01c1.039,0,2.013-0.126,2.922-0.379l-0.174,1.446c-0.67,0.267-1.637,0.4-2.902,0.4
			c-1.777,0-3.133-0.485-4.065-1.456c-0.934-0.971-1.4-2.153-1.4-3.548c0-1.49,0.425-2.774,1.277-3.85
			c0.851-1.077,1.994-1.615,3.43-1.615c1.319,0,2.322,0.39,3.01,1.169C109.453,14.756,109.797,15.757,109.797,16.981z
			 M108.084,17.001c0-1.921-0.803-2.881-2.41-2.881c-1.641,0-2.608,0.998-2.902,2.994L108.084,17.001z"/>
		<path fill="#C1272D" d="M129.597,17.063c0-1.094-0.189-1.816-0.569-2.168c-0.379-0.352-1.003-0.528-1.871-0.528
			c-0.731,0-1.487,0.359-2.266,1.077c-0.027,0.834-0.041,1.651-0.041,2.451c0,1.142,0.021,2.844,0.062,5.106h-1.866
			c0.15-1.948,0.226-3.927,0.226-5.937c0-1.094-0.19-1.816-0.569-2.168c-0.38-0.352-0.986-0.528-1.82-0.528
			c-0.854,0-1.654,0.359-2.399,1.077c0,2.167,0.014,4.686,0.041,7.557h-1.866c0.13-2.324,0.195-4.006,0.195-5.045
			c0-1.579-0.154-3.131-0.461-4.655l1.805-0.256l0.185,1.241h0.103c0.889-0.909,1.876-1.364,2.963-1.364
			c1.62,0,2.663,0.455,3.127,1.364h0.113c1.032-0.909,2.051-1.364,3.056-1.364c1.148,0,2.017,0.253,2.604,0.759
			s0.882,1.398,0.882,2.676c0,0.13-0.007,0.386-0.021,0.769s-0.021,0.639-0.021,0.769c0,1.142,0.014,2.844,0.041,5.106h-1.866
			C129.519,21.209,129.597,19.23,129.597,17.063z"/>
		<path fill="#C1272D" d="M142.558,22.99l-1.589,0.062c-0.096-0.383-0.144-0.697-0.144-0.943h-0.103
			c-0.909,0.766-2.013,1.148-3.312,1.148c-1.183,0-2.042-0.285-2.579-0.856c-0.537-0.571-0.805-1.721-0.805-3.451
			c0-0.246,0.007-0.612,0.021-1.097s0.021-0.817,0.021-0.995c0-1.005-0.058-2.188-0.174-3.548l1.907-0.072
			c-0.082,1.319-0.123,2.447-0.123,3.384c0,2.153,0.139,3.557,0.415,4.209c0.277,0.653,0.901,0.979,1.872,0.979
			c1.094,0,1.996-0.273,2.707-0.82c0-3.801-0.034-6.361-0.103-7.68l1.846-0.072c-0.055,1.285-0.082,3.063-0.082,5.332
			C142.333,20.026,142.408,21.5,142.558,22.99z"/>
		<path fill="#C1272D" d="M151.674,20.221c0,1.996-1.275,2.994-3.825,2.994c-1.128,0-2.181-0.113-3.158-0.338l0.318-1.507
			c0.889,0.342,1.853,0.513,2.892,0.513c1.49,0,2.235-0.424,2.235-1.271c0-0.41-0.166-0.736-0.498-0.979s-0.88-0.515-1.646-0.815
			c-0.971-0.383-1.675-0.752-2.112-1.107c-0.643-0.526-0.964-1.162-0.964-1.907c0-0.779,0.294-1.447,0.882-2.005
			c0.588-0.557,1.483-0.835,2.687-0.835c1.176,0,2.119,0.099,2.83,0.297l-0.318,1.477c-0.738-0.294-1.593-0.441-2.563-0.441
			c-1.313,0-1.969,0.379-1.969,1.138c0,0.383,0.147,0.692,0.441,0.928c0.294,0.236,0.868,0.521,1.723,0.856
			c0.923,0.362,1.606,0.718,2.051,1.066C151.342,18.823,151.674,19.469,151.674,20.221z"/>
		<path fill="#C1272D" d="M162.369,16.981c0,0.287-0.014,0.684-0.041,1.189l-7.044,0.123c0.068,0.998,0.455,1.834,1.159,2.507
			s1.637,1.01,2.799,1.01c1.039,0,2.013-0.126,2.922-0.379l-0.174,1.446c-0.67,0.267-1.637,0.4-2.902,0.4
			c-1.777,0-3.133-0.485-4.065-1.456c-0.934-0.971-1.4-2.153-1.4-3.548c0-1.49,0.425-2.774,1.277-3.85
			c0.851-1.077,1.994-1.615,3.43-1.615c1.319,0,2.322,0.39,3.01,1.169C162.025,14.756,162.369,15.757,162.369,16.981z
			 M160.656,17.001c0-1.921-0.803-2.881-2.41-2.881c-1.641,0-2.608,0.998-2.902,2.994L160.656,17.001z M161.928,8.542
			c0,0.082-0.472,0.629-1.415,1.641s-1.415,1.572-1.415,1.682h-1.23c0-0.109,0.308-0.672,0.923-1.687
			c0.615-1.016,0.923-1.561,0.923-1.636H161.928z"/>
		<path fill="#C1272D" d="M173.146,16.981c0,0.287-0.014,0.684-0.041,1.189l-7.044,0.123c0.068,0.998,0.455,1.834,1.159,2.507
			s1.637,1.01,2.799,1.01c1.039,0,2.013-0.126,2.922-0.379l-0.174,1.446c-0.67,0.267-1.637,0.4-2.902,0.4
			c-1.777,0-3.133-0.485-4.065-1.456c-0.934-0.971-1.4-2.153-1.4-3.548c0-1.49,0.425-2.774,1.277-3.85
			c0.851-1.077,1.994-1.615,3.43-1.615c1.319,0,2.322,0.39,3.01,1.169C172.802,14.756,173.146,15.757,173.146,16.981z
			 M171.433,17.001c0-1.921-0.803-2.881-2.41-2.881c-1.641,0-2.608,0.998-2.902,2.994L171.433,17.001z"/>
		<path fill="#C1272D" d="M189.367,17.729c0,1.477-0.422,2.771-1.266,3.881c-0.845,1.111-2.019,1.667-3.522,1.667
			c-1.258,0-2.085-0.226-2.481-0.677h-0.103c0,1.9,0.021,3.596,0.062,5.086h-1.928c0.157-1.818,0.236-4.064,0.236-6.737
			c0-3.295-0.171-5.845-0.513-7.649l1.805-0.256l0.154,1.015h0.103c0.663-0.772,1.736-1.159,3.22-1.159
			c1.306,0,2.338,0.477,3.097,1.43C188.988,15.284,189.367,16.417,189.367,17.729z M187.542,17.976c0-1.012-0.267-1.878-0.8-2.6
			c-0.533-0.721-1.282-1.082-2.246-1.082c-1.23,0-2.112,0.373-2.646,1.118c0.109,2.297,0.164,4.269,0.164,5.917
			c0.554,0.465,1.275,0.697,2.164,0.697c1.128,0,1.97-0.396,2.528-1.189C187.263,20.043,187.542,19.09,187.542,17.976z"/>
		<path fill="#C1272D" d="M201.098,17.832c0,1.75-0.502,3.116-1.507,4.097s-2.188,1.471-3.548,1.471
			c-1.271,0-2.363-0.434-3.276-1.302c-0.912-0.868-1.369-2.092-1.369-3.671c0-1.764,0.504-3.141,1.512-4.132
			s2.193-1.487,3.553-1.487c1.271,0,2.362,0.439,3.271,1.317C200.643,15.004,201.098,16.239,201.098,17.832z M199.324,18.191
			c0-1.066-0.269-2.015-0.805-2.845c-0.537-0.831-1.301-1.246-2.292-1.246c-0.984,0-1.742,0.393-2.271,1.179
			s-0.794,1.699-0.794,2.738c0,1.073,0.268,2.023,0.805,2.851c0.536,0.827,1.304,1.241,2.302,1.241c0.984,0,1.74-0.395,2.266-1.184
			C199.061,20.134,199.324,19.223,199.324,18.191z"/>
		<path fill="#C1272D" d="M212.11,22.99l-1.589,0.062c-0.096-0.383-0.145-0.697-0.145-0.943h-0.102
			c-0.91,0.766-2.014,1.148-3.313,1.148c-1.183,0-2.043-0.285-2.578-0.856c-0.537-0.571-0.806-1.721-0.806-3.451
			c0-0.246,0.007-0.612,0.021-1.097s0.021-0.817,0.021-0.995c0-1.005-0.058-2.188-0.175-3.548l1.908-0.072
			c-0.082,1.319-0.123,2.447-0.123,3.384c0,2.153,0.139,3.557,0.414,4.209c0.277,0.653,0.901,0.979,1.872,0.979
			c1.094,0,1.996-0.273,2.707-0.82c0-3.801-0.034-6.361-0.103-7.68l1.846-0.072c-0.055,1.285-0.082,3.063-0.082,5.332
			C211.885,20.026,211.96,21.5,212.11,22.99z"/>
		<path fill="#C1272D" d="M220.908,13.259l-0.461,1.63c-0.533-0.212-1.029-0.318-1.487-0.318c-1.285,0-2.119,0.612-2.502,1.835
			c0,3.145,0.021,5.342,0.062,6.593h-1.814c0.109-2.167,0.164-3.849,0.164-5.045c0-1.62-0.161-3.172-0.482-4.655l1.795-0.256
			c0.129,0.752,0.194,1.254,0.194,1.507h0.082c0.738-1.087,1.6-1.63,2.584-1.63C219.562,12.92,220.184,13.033,220.908,13.259z"/>
		<path fill="#C1272D" d="M228.691,23h-1.969c0.123-2.256,0.184-4.806,0.184-7.649c0-2.762-0.099-5.021-0.297-6.778l2.082-0.103
			c-0.131,1.859-0.195,4.153-0.195,6.88C228.496,18.16,228.561,20.71,228.691,23z"/>
		<path fill="#C1272D" d="M239.93,16.981c0,0.287-0.014,0.684-0.041,1.189l-7.045,0.123c0.068,0.998,0.455,1.834,1.158,2.507
			c0.705,0.673,1.638,1.01,2.8,1.01c1.039,0,2.013-0.126,2.923-0.379l-0.175,1.446c-0.67,0.267-1.638,0.4-2.901,0.4
			c-1.777,0-3.133-0.485-4.066-1.456s-1.399-2.153-1.399-3.548c0-1.49,0.425-2.774,1.276-3.85c0.852-1.077,1.994-1.615,3.43-1.615
			c1.32,0,2.322,0.39,3.01,1.169S239.93,15.757,239.93,16.981z M238.217,17.001c0-1.921-0.803-2.881-2.41-2.881
			c-1.641,0-2.607,0.998-2.901,2.994L238.217,17.001z"/>
		<path fill="#C1272D" d="M253.044,13.259l-0.461,1.63c-0.533-0.212-1.029-0.318-1.487-0.318c-1.285,0-2.119,0.612-2.502,1.835
			c0,3.145,0.021,5.342,0.062,6.593h-1.814c0.108-2.167,0.164-3.849,0.164-5.045c0-1.62-0.161-3.172-0.482-4.655l1.795-0.256
			c0.129,0.752,0.194,1.254,0.194,1.507h0.082c0.738-1.087,1.6-1.63,2.584-1.63C251.697,12.92,252.319,13.033,253.044,13.259z"/>
		<path fill="#C1272D" d="M262.703,16.981c0,0.287-0.014,0.684-0.041,1.189l-7.045,0.123c0.068,0.998,0.455,1.834,1.159,2.507
			s1.637,1.01,2.8,1.01c1.038,0,2.013-0.126,2.922-0.379l-0.174,1.446c-0.671,0.267-1.638,0.4-2.902,0.4
			c-1.777,0-3.133-0.485-4.065-1.456c-0.934-0.971-1.399-2.153-1.399-3.548c0-1.49,0.425-2.774,1.276-3.85
			c0.851-1.077,1.994-1.615,3.43-1.615c1.319,0,2.322,0.39,3.01,1.169C262.359,14.756,262.703,15.757,262.703,16.981z
			 M260.99,17.001c0-1.921-0.803-2.881-2.409-2.881c-1.641,0-2.608,0.998-2.901,2.994L260.99,17.001z"/>
		<path fill="#C1272D" d="M270.69,21.585l-0.123,1.333c-0.54,0.198-1.05,0.297-1.527,0.297c-1.23,0-2.072-0.313-2.523-0.938
			c-0.451-0.626-0.676-1.745-0.676-3.358c0-1.046,0.006-2.41,0.02-4.091c-0.383,0-0.946,0.021-1.691,0.062l0.062-1.487
			c0.649,0.041,1.23,0.062,1.743,0.062c0-0.41,0.034-1.384,0.103-2.922l1.61-0.164c-0.117,1.436-0.175,2.464-0.175,3.086
			c0.67,0,1.654-0.034,2.953-0.103l-0.071,1.528c-1.23-0.041-2.219-0.062-2.964-0.062c-0.014,1.032-0.021,2.194-0.021,3.486
			c0,1.408,0.148,2.34,0.446,2.794c0.297,0.455,0.849,0.682,1.655,0.682C269.778,21.79,270.171,21.722,270.69,21.585z"/>
		<path fill="#C1272D" d="M278.802,13.259l-0.461,1.63c-0.533-0.212-1.029-0.318-1.487-0.318c-1.285,0-2.119,0.612-2.502,1.835
			c0,3.145,0.021,5.342,0.062,6.593h-1.814c0.108-2.167,0.164-3.849,0.164-5.045c0-1.62-0.161-3.172-0.482-4.655l1.795-0.256
			c0.129,0.752,0.194,1.254,0.194,1.507h0.082c0.738-1.087,1.6-1.63,2.584-1.63C277.455,12.92,278.077,13.033,278.802,13.259z"/>
		<path fill="#C1272D" d="M289.414,17.832c0,1.75-0.502,3.116-1.507,4.097s-2.188,1.471-3.548,1.471
			c-1.271,0-2.363-0.434-3.276-1.302c-0.912-0.868-1.368-2.092-1.368-3.671c0-1.764,0.504-3.141,1.512-4.132
			c1.009-0.991,2.192-1.487,3.553-1.487c1.271,0,2.362,0.439,3.271,1.317C288.96,15.004,289.414,16.239,289.414,17.832z
			 M287.641,18.191c0-1.066-0.269-2.015-0.805-2.845c-0.537-0.831-1.301-1.246-2.292-1.246c-0.984,0-1.741,0.393-2.271,1.179
			c-0.529,0.786-0.794,1.699-0.794,2.738c0,1.073,0.268,2.023,0.805,2.851c0.536,0.827,1.304,1.241,2.302,1.241
			c0.984,0,1.739-0.395,2.267-1.184C287.377,20.134,287.641,19.223,287.641,18.191z"/>
		<path fill="#C1272D" d="M300.428,22.99l-1.59,0.062c-0.096-0.383-0.144-0.697-0.144-0.943h-0.103
			c-0.909,0.766-2.014,1.148-3.313,1.148c-1.183,0-2.042-0.285-2.578-0.856c-0.537-0.571-0.805-1.721-0.805-3.451
			c0-0.246,0.006-0.612,0.02-1.097s0.021-0.817,0.021-0.995c0-1.005-0.059-2.188-0.175-3.548l1.907-0.072
			c-0.082,1.319-0.123,2.447-0.123,3.384c0,2.153,0.139,3.557,0.415,4.209c0.277,0.653,0.9,0.979,1.872,0.979
			c1.093,0,1.995-0.273,2.707-0.82c0-3.801-0.035-6.361-0.104-7.68l1.846-0.072c-0.055,1.285-0.082,3.063-0.082,5.332
			C300.201,20.026,300.276,21.5,300.428,22.99z"/>
		<path fill="#C1272D" d="M311.317,13.259c0,0.335-0.692,1.95-2.076,4.845c-1.385,2.896-2.076,4.527-2.076,4.896h-1.375
			c0-0.479-0.609-2.151-1.83-5.02c-1.22-2.867-1.83-4.441-1.83-4.722h1.989c0,0.328,0.444,1.63,1.333,3.907s1.333,3.579,1.333,3.907
			h0.093c0-0.314,0.422-1.569,1.266-3.763c0.845-2.194,1.267-3.544,1.267-4.05H311.317z"/>
		<path fill="#C1272D" d="M321.53,16.981c0,0.287-0.014,0.684-0.041,1.189l-7.045,0.123c0.068,0.998,0.455,1.834,1.159,2.507
			s1.637,1.01,2.8,1.01c1.038,0,2.013-0.126,2.922-0.379l-0.174,1.446c-0.671,0.267-1.638,0.4-2.902,0.4
			c-1.777,0-3.133-0.485-4.065-1.456c-0.934-0.971-1.399-2.153-1.399-3.548c0-1.49,0.425-2.774,1.276-3.85
			c0.851-1.077,1.994-1.615,3.43-1.615c1.319,0,2.322,0.39,3.01,1.169C321.187,14.756,321.53,15.757,321.53,16.981z M319.817,17.001
			c0-1.921-0.803-2.881-2.409-2.881c-1.641,0-2.608,0.998-2.901,2.994L319.817,17.001z"/>
		<path fill="#C1272D" d="M330.092,13.259l-0.461,1.63c-0.533-0.212-1.029-0.318-1.487-0.318c-1.285,0-2.119,0.612-2.502,1.835
			c0,3.145,0.021,5.342,0.062,6.593h-1.814c0.108-2.167,0.164-3.849,0.164-5.045c0-1.62-0.161-3.172-0.482-4.655l1.795-0.256
			c0.129,0.752,0.194,1.254,0.194,1.507h0.082c0.738-1.087,1.6-1.63,2.584-1.63C328.745,12.92,329.367,13.033,330.092,13.259z"/>
		<path fill="#C1272D" d="M121.907,48.19l-1.528,0.051c-0.055-0.294-0.082-0.605-0.082-0.933h-0.113
			c-0.718,0.779-1.784,1.169-3.199,1.169c-1.299,0-2.333-0.472-3.102-1.415c-0.77-0.943-1.154-2.082-1.154-3.415
			c0-1.511,0.427-2.813,1.282-3.907s2.058-1.641,3.609-1.641c1.107,0,1.9,0.226,2.379,0.677h0.082c0-1.695-0.048-3.36-0.144-4.994
			l1.948-0.072c-0.13,1.736-0.195,4.009-0.195,6.819C121.691,43.388,121.763,45.941,121.907,48.19z M120.256,46.17
			c0-2.126-0.058-4.173-0.174-6.142c-0.554-0.458-1.244-0.687-2.071-0.687c-1.155,0-2.02,0.385-2.594,1.153
			c-0.574,0.77-0.861,1.735-0.861,2.897c0,1.039,0.272,1.914,0.815,2.625c0.544,0.711,1.297,1.066,2.261,1.066
			C118.841,47.083,119.716,46.778,120.256,46.17z"/>
		<path fill="#C1272D" d="M132.325,48.2l-1.61,0.062c-0.082-0.335-0.123-0.653-0.123-0.954h-0.103
			c-0.841,0.766-1.986,1.148-3.435,1.148c-0.786,0-1.463-0.231-2.03-0.692c-0.567-0.462-0.851-1.12-0.851-1.974
			c0-1.053,0.444-1.898,1.333-2.538s2.54-0.976,4.953-1.01c0.021-0.164,0.031-0.352,0.031-0.564c0-0.841-0.224-1.401-0.672-1.682
			s-1.126-0.42-2.035-0.42c-1.073,0-2.129,0.133-3.168,0.4l0.174-1.415c1.025-0.294,2.205-0.441,3.538-0.441
			c1.217,0,2.157,0.251,2.82,0.753c0.663,0.503,0.995,1.359,0.995,2.569c0,0.321-0.015,0.904-0.046,1.749
			c-0.03,0.844-0.046,1.406-0.046,1.687C132.048,46.122,132.14,47.229,132.325,48.2z M130.51,46.211
			c-0.034-1.039-0.051-1.972-0.051-2.799c-1.285,0-2.263,0.096-2.933,0.287c-1.121,0.342-1.682,0.995-1.682,1.958
			c0,0.93,0.656,1.395,1.969,1.395C128.941,47.052,129.84,46.771,130.51,46.211z"/>
		<path fill="#C1272D" d="M143.614,48.2h-1.866c0.15-1.798,0.226-3.76,0.226-5.886c0-1.053-0.214-1.772-0.641-2.158
			s-1.037-0.58-1.83-0.58c-0.971,0-1.866,0.352-2.687,1.056c0,2.331,0.014,4.854,0.041,7.567h-1.866
			c0.116-2.324,0.174-4.006,0.174-5.045c0-1.6-0.15-3.151-0.451-4.655l1.805-0.256l0.195,1.251h0.082
			c1.012-0.916,2.095-1.374,3.25-1.374c1.135,0,2.013,0.251,2.635,0.753c0.622,0.503,0.933,1.396,0.933,2.682
			c0,0.13-0.007,0.386-0.021,0.769s-0.021,0.639-0.021,0.769C143.573,44.235,143.587,45.938,143.614,48.2z"/>
		<path fill="#C1272D" d="M152.812,45.421c0,1.996-1.275,2.994-3.825,2.994c-1.128,0-2.181-0.113-3.158-0.338l0.318-1.507
			c0.889,0.342,1.853,0.513,2.892,0.513c1.49,0,2.235-0.424,2.235-1.271c0-0.41-0.166-0.736-0.498-0.979s-0.88-0.515-1.646-0.815
			c-0.971-0.383-1.675-0.752-2.112-1.107c-0.643-0.526-0.964-1.162-0.964-1.907c0-0.779,0.294-1.447,0.882-2.005
			c0.588-0.557,1.483-0.835,2.687-0.835c1.176,0,2.119,0.099,2.83,0.297l-0.318,1.477c-0.738-0.294-1.593-0.441-2.563-0.441
			c-1.313,0-1.969,0.379-1.969,1.138c0,0.383,0.147,0.692,0.441,0.928c0.294,0.236,0.868,0.521,1.723,0.856
			c0.923,0.362,1.606,0.718,2.051,1.066C152.48,44.023,152.812,44.669,152.812,45.421z"/>
		<path fill="#C1272D" d="M167.937,38.459c0,0.335-0.692,1.95-2.076,4.845c-1.385,2.896-2.077,4.527-2.077,4.896h-1.374
			c0-0.479-0.61-2.151-1.831-5.02c-1.22-2.867-1.83-4.441-1.83-4.722h1.989c0,0.328,0.444,1.63,1.333,3.907s1.333,3.579,1.333,3.907
			h0.092c0-0.314,0.422-1.569,1.266-3.763s1.267-3.544,1.267-4.05H167.937z"/>
		<path fill="#C1272D" d="M179.103,43.032c0,1.75-0.502,3.116-1.507,4.097s-2.188,1.471-3.548,1.471
			c-1.271,0-2.363-0.434-3.276-1.302c-0.912-0.868-1.369-2.092-1.369-3.671c0-1.764,0.504-3.141,1.512-4.132
			s2.193-1.487,3.553-1.487c1.271,0,2.362,0.439,3.271,1.317C178.648,40.204,179.103,41.439,179.103,43.032z M177.329,43.391
			c0-1.066-0.269-2.015-0.805-2.845c-0.537-0.831-1.301-1.246-2.292-1.246c-0.984,0-1.742,0.393-2.271,1.179
			s-0.794,1.699-0.794,2.738c0,1.073,0.268,2.023,0.805,2.851c0.536,0.827,1.304,1.241,2.302,1.241c0.984,0,1.74-0.395,2.266-1.184
			C177.066,45.334,177.329,44.423,177.329,43.391z"/>
		<path fill="#C1272D" d="M187.983,45.421c0,1.996-1.275,2.994-3.825,2.994c-1.128,0-2.181-0.113-3.158-0.338l0.318-1.507
			c0.889,0.342,1.853,0.513,2.892,0.513c1.49,0,2.235-0.424,2.235-1.271c0-0.41-0.166-0.736-0.498-0.979s-0.88-0.515-1.646-0.815
			c-0.971-0.383-1.675-0.752-2.112-1.107c-0.643-0.526-0.964-1.162-0.964-1.907c0-0.779,0.294-1.447,0.882-2.005
			c0.588-0.557,1.483-0.835,2.687-0.835c1.176,0,2.119,0.099,2.83,0.297l-0.318,1.477c-0.738-0.294-1.593-0.441-2.563-0.441
			c-1.313,0-1.969,0.379-1.969,1.138c0,0.383,0.147,0.692,0.441,0.928c0.294,0.236,0.868,0.521,1.723,0.856
			c0.923,0.362,1.606,0.718,2.051,1.066C187.651,44.023,187.983,44.669,187.983,45.421z"/>
		<path fill="#C1272D" d="M200.585,33.65l-0.297,1.354c-0.41-0.103-0.82-0.154-1.23-0.154c-0.629,0-1.055,0.248-1.277,0.743
			c-0.222,0.496-0.333,1.52-0.333,3.071c0.677,0,1.624-0.034,2.84-0.103l-0.062,1.528c-1.381-0.041-2.307-0.062-2.779-0.062
			c0,3.11,0.041,5.834,0.123,8.172h-1.835c0.096-2.276,0.144-5,0.144-8.172c-0.417,0-1.145,0.021-2.184,0.062l0.072-1.507
			c0.943,0.055,1.647,0.082,2.112,0.082c0-1.812,0.253-3.129,0.759-3.953c0.506-0.823,1.313-1.235,2.42-1.235
			C199.542,33.476,200.052,33.534,200.585,33.65z"/>
		<path fill="#C1272D" d="M209.639,48.2l-1.609,0.062c-0.082-0.335-0.123-0.653-0.123-0.954h-0.103
			c-0.841,0.766-1.985,1.148-3.435,1.148c-0.787,0-1.463-0.231-2.031-0.692c-0.566-0.462-0.851-1.12-0.851-1.974
			c0-1.053,0.444-1.898,1.333-2.538s2.539-0.976,4.953-1.01c0.02-0.164,0.03-0.352,0.03-0.564c0-0.841-0.224-1.401-0.672-1.682
			s-1.126-0.42-2.035-0.42c-1.073,0-2.13,0.133-3.169,0.4l0.175-1.415c1.025-0.294,2.204-0.441,3.538-0.441
			c1.217,0,2.156,0.251,2.819,0.753c0.663,0.503,0.995,1.359,0.995,2.569c0,0.321-0.016,0.904-0.047,1.749
			c-0.03,0.844-0.046,1.406-0.046,1.687C209.362,46.122,209.455,47.229,209.639,48.2z M207.824,46.211
			c-0.034-1.039-0.051-1.972-0.051-2.799c-1.285,0-2.264,0.096-2.934,0.287c-1.121,0.342-1.682,0.995-1.682,1.958
			c0,0.93,0.656,1.395,1.969,1.395C206.256,47.052,207.154,46.771,207.824,46.211z"/>
		<path fill="#C1272D" d="M220.529,38.459c0,0.335-0.693,1.95-2.076,4.845c-1.385,2.896-2.077,4.527-2.077,4.896h-1.374
			c0-0.479-0.609-2.151-1.83-5.02c-1.221-2.867-1.83-4.441-1.83-4.722h1.988c0,0.328,0.445,1.63,1.334,3.907
			s1.332,3.579,1.332,3.907h0.093c0-0.314,0.422-1.569,1.267-3.763c0.844-2.194,1.266-3.544,1.266-4.05H220.529z"/>
		<path fill="#C1272D" d="M231.695,43.032c0,1.75-0.502,3.116-1.508,4.097C229.184,48.11,228,48.6,226.641,48.6
			c-1.271,0-2.363-0.434-3.277-1.302c-0.912-0.868-1.368-2.092-1.368-3.671c0-1.764,0.504-3.141,1.513-4.132
			c1.008-0.991,2.192-1.487,3.553-1.487c1.271,0,2.361,0.439,3.271,1.317C231.24,40.204,231.695,41.439,231.695,43.032z
			 M229.922,43.391c0-1.066-0.27-2.015-0.805-2.845c-0.537-0.831-1.301-1.246-2.293-1.246c-0.984,0-1.741,0.393-2.271,1.179
			c-0.529,0.786-0.794,1.699-0.794,2.738c0,1.073,0.269,2.023,0.806,2.851c0.535,0.827,1.303,1.241,2.301,1.241
			c0.984,0,1.74-0.395,2.267-1.184C229.658,45.334,229.922,44.423,229.922,43.391z"/>
		<path fill="#C1272D" d="M240.258,38.459l-0.462,1.63c-0.533-0.212-1.028-0.318-1.487-0.318c-1.285,0-2.119,0.612-2.502,1.835
			c0,3.145,0.021,5.342,0.063,6.593h-1.815c0.109-2.167,0.164-3.849,0.164-5.045c0-1.62-0.161-3.172-0.481-4.655l1.794-0.256
			c0.13,0.752,0.194,1.254,0.194,1.507h0.082c0.738-1.087,1.6-1.63,2.584-1.63C238.91,38.121,239.533,38.233,240.258,38.459z"/>
		<path fill="#C1272D" d="M243.364,48.2h-1.856c0.096-1.367,0.145-2.929,0.145-4.686c0-1.976-0.12-3.633-0.359-4.973l2.051-0.277
			c-0.082,1.429-0.123,3.179-0.123,5.25C243.221,45.155,243.269,46.717,243.364,48.2z M243.795,35.383
			c0,0.349-0.113,0.651-0.338,0.907c-0.227,0.257-0.544,0.385-0.954,0.385c-0.349,0-0.62-0.111-0.815-0.333
			s-0.292-0.491-0.292-0.805c0-0.342,0.116-0.639,0.349-0.892s0.554-0.379,0.964-0.379c0.335,0,0.601,0.111,0.794,0.333
			C243.697,34.821,243.795,35.082,243.795,35.383z"/>
		<path fill="#C1272D" d="M252.593,45.421c0,1.996-1.275,2.994-3.824,2.994c-1.129,0-2.182-0.113-3.158-0.338l0.316-1.507
			c0.889,0.342,1.854,0.513,2.893,0.513c1.49,0,2.234-0.424,2.234-1.271c0-0.41-0.164-0.736-0.496-0.979s-0.881-0.515-1.646-0.815
			c-0.971-0.383-1.674-0.752-2.111-1.107c-0.643-0.526-0.965-1.162-0.965-1.907c0-0.779,0.295-1.447,0.883-2.005
			c0.588-0.557,1.482-0.835,2.686-0.835c1.176,0,2.119,0.099,2.83,0.297l-0.318,1.477c-0.738-0.294-1.592-0.441-2.563-0.441
			c-1.313,0-1.969,0.379-1.969,1.138c0,0.383,0.146,0.692,0.441,0.928c0.293,0.236,0.867,0.521,1.723,0.856
			c0.922,0.362,1.605,0.718,2.051,1.066C252.261,44.023,252.593,44.669,252.593,45.421z"/>
		<path fill="#C1272D" d="M262.108,46.693c0,0.403-0.135,0.759-0.404,1.066c-0.271,0.308-0.645,0.461-1.123,0.461
			c-0.403,0-0.716-0.133-0.938-0.4c-0.222-0.267-0.333-0.584-0.333-0.954c0-0.396,0.137-0.743,0.41-1.041
			c0.273-0.297,0.652-0.446,1.139-0.446c0.402,0,0.712,0.126,0.928,0.379C262.001,46.013,262.108,46.324,262.108,46.693z
			 M261.955,36.234c0,1.47-0.284,3.623-0.851,6.46h-0.76c-0.355-2.885-0.533-4.997-0.533-6.337c0-1.169,0.403-1.753,1.211-1.753
			C261.644,34.604,261.955,35.147,261.955,36.234z"/>
		<path fill="#C1272D" d="M41.367,66.52c0,2.208-0.646,3.973-1.938,5.296c-1.292,1.322-2.786,1.984-4.481,1.984
			c-1.627,0-3.054-0.606-4.281-1.82s-1.84-2.853-1.84-4.917c0-2.235,0.646-4.007,1.938-5.316s2.786-1.964,4.481-1.964
			c1.627,0,3.054,0.607,4.281,1.82S41.367,64.455,41.367,66.52z M39.542,66.755c0-1.764-0.463-3.129-1.39-4.097
			c-0.926-0.967-1.994-1.451-3.204-1.451c-1.121,0-2.119,0.509-2.994,1.528s-1.313,2.379-1.313,4.081
			c0,1.771,0.467,3.14,1.399,4.106c0.934,0.968,2.001,1.451,3.205,1.451c1.121,0,2.118-0.516,2.989-1.548
			C39.106,69.794,39.542,68.437,39.542,66.755z"/>
		<path fill="#C1272D" d="M52.38,73.39l-1.589,0.062c-0.096-0.383-0.144-0.697-0.144-0.943h-0.103
			c-0.909,0.766-2.013,1.148-3.312,1.148c-1.183,0-2.042-0.285-2.579-0.856c-0.537-0.571-0.805-1.721-0.805-3.451
			c0-0.246,0.007-0.612,0.021-1.097s0.021-0.817,0.021-0.995c0-1.005-0.058-2.188-0.174-3.548l1.907-0.072
			c-0.082,1.319-0.123,2.447-0.123,3.384c0,2.153,0.139,3.557,0.415,4.209c0.277,0.653,0.901,0.979,1.872,0.979
			c1.094,0,1.996-0.273,2.707-0.82c0-3.801-0.034-6.361-0.103-7.68l1.846-0.072c-0.055,1.285-0.082,3.063-0.082,5.332
			C52.154,70.426,52.229,71.899,52.38,73.39z"/>
		<path fill="#C1272D" d="M61.393,73.4h-1.856c0.096-1.367,0.144-2.929,0.144-4.686c0-1.976-0.12-3.633-0.359-4.973l2.051-0.277
			c-0.082,1.429-0.123,3.179-0.123,5.25C61.25,70.354,61.297,71.917,61.393,73.4z M61.824,60.583c0,0.349-0.113,0.651-0.338,0.907
			c-0.226,0.257-0.543,0.385-0.954,0.385c-0.349,0-0.621-0.111-0.815-0.333c-0.195-0.222-0.292-0.491-0.292-0.805
			c0-0.342,0.116-0.639,0.349-0.892s0.554-0.379,0.964-0.379c0.335,0,0.6,0.111,0.794,0.333
			C61.727,60.021,61.824,60.282,61.824,60.583z"/>
		<path fill="#C1272D" d="M73.749,62.367l-0.164,1.415c-1.271,0-1.972,0.205-2.102,0.615V64.5c0.438,0.533,0.656,1.142,0.656,1.825
			c0,1.066-0.351,1.947-1.051,2.641s-1.782,1.041-3.245,1.041c-0.649,0-1.166-0.068-1.548-0.205
			c-0.335,0.239-0.502,0.537-0.502,0.892c0,0.438,0.198,0.728,0.595,0.872c0.506,0.191,1.562,0.287,3.168,0.287
			c2.598,0,3.896,0.861,3.896,2.584c0,1.23-0.506,2.249-1.518,3.056s-2.321,1.21-3.927,1.21c-1.647,0-2.822-0.299-3.522-0.897
			c-0.701-0.599-1.051-1.318-1.051-2.159c0-0.766,0.172-1.381,0.518-1.846s0.774-0.752,1.287-0.861v-0.092
			c-0.54-0.26-0.81-0.759-0.81-1.497c0-0.67,0.342-1.258,1.025-1.764v-0.082c-0.362-0.178-0.708-0.479-1.036-0.902
			s-0.492-0.95-0.492-1.579c0-1.087,0.359-1.972,1.077-2.656s1.757-1.025,3.117-1.025c1.114,0,1.989,0.202,2.625,0.605h0.113
			c0.219-1.155,0.793-1.733,1.723-1.733C73.086,62.213,73.476,62.264,73.749,62.367z M71.914,75.133
			c0-0.643-0.234-1.096-0.703-1.359s-1.348-0.395-2.64-0.395c-0.875,0-1.675-0.041-2.399-0.123
			c-0.834,0.403-1.251,0.995-1.251,1.774c0,1.668,1.094,2.502,3.281,2.502c1.142,0,2.045-0.222,2.712-0.667
			C71.58,76.421,71.914,75.844,71.914,75.133z M70.488,66.745c0-0.752-0.238-1.328-0.713-1.728c-0.475-0.399-1.078-0.6-1.81-0.6
			c-0.69,0-1.268,0.193-1.733,0.579c-0.465,0.387-0.697,0.935-0.697,1.646c0,0.745,0.237,1.313,0.712,1.702s1.085,0.584,1.831,0.584
			c0.684,0,1.256-0.189,1.717-0.569C70.258,67.981,70.488,67.442,70.488,66.745z"/>
		<path fill="#C1272D" d="M84.126,73.4H82.26c0.15-1.798,0.226-3.76,0.226-5.886c0-1.053-0.214-1.772-0.641-2.158
			s-1.037-0.58-1.83-0.58c-0.971,0-1.866,0.352-2.687,1.056c0,2.331,0.014,4.854,0.041,7.567h-1.866
			c0.116-2.324,0.174-4.006,0.174-5.045c0-1.6-0.15-3.151-0.451-4.655l1.805-0.256l0.195,1.251h0.082
			c1.012-0.916,2.095-1.374,3.25-1.374c1.135,0,2.013,0.251,2.635,0.753c0.622,0.503,0.933,1.396,0.933,2.682
			c0,0.13-0.007,0.386-0.021,0.769s-0.021,0.639-0.021,0.769C84.085,69.435,84.099,71.137,84.126,73.4z"/>
		<path fill="#C1272D" d="M96.174,68.232c0,1.75-0.502,3.116-1.507,4.097S92.479,73.8,91.119,73.8c-1.271,0-2.363-0.434-3.276-1.302
			c-0.912-0.868-1.369-2.092-1.369-3.671c0-1.764,0.504-3.141,1.512-4.132s2.193-1.487,3.553-1.487c1.271,0,2.362,0.439,3.271,1.317
			C95.72,65.404,96.174,66.639,96.174,68.232z M94.4,68.591c0-1.066-0.269-2.015-0.805-2.845c-0.537-0.831-1.301-1.246-2.292-1.246
			c-0.984,0-1.742,0.393-2.271,1.179s-0.794,1.699-0.794,2.738c0,1.073,0.268,2.023,0.805,2.851
			c0.536,0.827,1.304,1.241,2.302,1.241c0.984,0,1.74-0.395,2.266-1.184C94.137,70.534,94.4,69.623,94.4,68.591z"/>
		<path fill="#C1272D" d="M104.736,63.659l-0.461,1.63c-0.533-0.212-1.029-0.318-1.487-0.318c-1.285,0-2.119,0.612-2.502,1.835
			c0,3.145,0.021,5.342,0.062,6.593h-1.815c0.109-2.167,0.164-3.849,0.164-5.045c0-1.62-0.161-3.172-0.482-4.655l1.794-0.256
			c0.13,0.752,0.195,1.254,0.195,1.507h0.082c0.738-1.087,1.6-1.63,2.584-1.63C103.39,63.32,104.012,63.433,104.736,63.659z"/>
		<path fill="#C1272D" d="M114.396,67.381c0,0.287-0.014,0.684-0.041,1.189l-7.044,0.123c0.068,0.998,0.455,1.834,1.159,2.507
			s1.637,1.01,2.799,1.01c1.039,0,2.013-0.126,2.922-0.379l-0.174,1.446c-0.67,0.267-1.637,0.4-2.902,0.4
			c-1.777,0-3.133-0.485-4.065-1.456c-0.934-0.971-1.4-2.153-1.4-3.548c0-1.49,0.425-2.774,1.277-3.85
			c0.851-1.077,1.994-1.615,3.43-1.615c1.319,0,2.322,0.39,3.01,1.169C114.052,65.156,114.396,66.157,114.396,67.381z
			 M112.683,67.401c0-1.921-0.803-2.881-2.41-2.881c-1.641,0-2.608,0.998-2.902,2.994L112.683,67.401z"/>
		<path fill="#C1272D" d="M123.962,71.749l-0.062,1.651h-7.475l0.082-1.589c0.362-0.349,1.289-1.429,2.779-3.24
			c1.62-1.976,2.43-3.083,2.43-3.322l-0.01-0.113c-2.194,0-3.934,0.044-5.219,0.133l0.062-1.61h7.116l-0.103,1.61
			c-0.567,0.622-1.466,1.709-2.697,3.261c-1.531,1.935-2.297,3.035-2.297,3.302v0.082C120.633,71.913,122.431,71.858,123.962,71.749
			z"/>
		<path fill="#C1272D" d="M129.889,67.442l-0.123,1.323l-4.389,0.144l0.092-1.313L129.889,67.442z"/>
		<path fill="#C1272D" d="M133.601,73.4h-1.969c0.123-2.256,0.185-4.806,0.185-7.649c0-2.762-0.099-5.021-0.297-6.778l2.082-0.103
			c-0.13,1.859-0.195,4.153-0.195,6.88C133.406,68.56,133.471,71.11,133.601,73.4z"/>
		<path fill="#C1272D" d="M144.839,67.381c0,0.287-0.014,0.684-0.041,1.189l-7.044,0.123c0.068,0.998,0.455,1.834,1.159,2.507
			s1.637,1.01,2.799,1.01c1.039,0,2.013-0.126,2.922-0.379l-0.174,1.446c-0.67,0.267-1.637,0.4-2.902,0.4
			c-1.777,0-3.133-0.485-4.065-1.456c-0.934-0.971-1.4-2.153-1.4-3.548c0-1.49,0.425-2.774,1.277-3.85
			c0.851-1.077,1.994-1.615,3.43-1.615c1.319,0,2.322,0.39,3.01,1.169C144.496,65.156,144.839,66.157,144.839,67.381z
			 M143.127,67.401c0-1.921-0.803-2.881-2.41-2.881c-1.641,0-2.608,0.998-2.902,2.994L143.127,67.401z"/>
		<path fill="#C1272D" d="M161.061,68.129c0,1.477-0.422,2.771-1.266,3.881c-0.845,1.111-2.019,1.667-3.522,1.667
			c-1.258,0-2.085-0.226-2.481-0.677h-0.103c0,1.9,0.021,3.596,0.062,5.086h-1.928c0.157-1.818,0.236-4.064,0.236-6.737
			c0-3.295-0.171-5.845-0.513-7.649l1.805-0.256l0.154,1.015h0.103c0.663-0.772,1.736-1.159,3.22-1.159
			c1.306,0,2.338,0.477,3.097,1.43C160.682,65.684,161.061,66.817,161.061,68.129z M159.236,68.375c0-1.012-0.267-1.878-0.8-2.6
			c-0.533-0.721-1.282-1.082-2.246-1.082c-1.23,0-2.112,0.373-2.646,1.118c0.109,2.297,0.164,4.269,0.164,5.917
			c0.554,0.465,1.275,0.697,2.164,0.697c1.128,0,1.97-0.396,2.528-1.189C158.957,70.443,159.236,69.49,159.236,68.375z"/>
		<path fill="#C1272D" d="M172.792,68.232c0,1.75-0.502,3.116-1.507,4.097s-2.188,1.471-3.548,1.471
			c-1.271,0-2.363-0.434-3.276-1.302c-0.912-0.868-1.369-2.092-1.369-3.671c0-1.764,0.504-3.141,1.512-4.132
			s2.193-1.487,3.553-1.487c1.271,0,2.362,0.439,3.271,1.317C172.337,65.404,172.792,66.639,172.792,68.232z M171.018,68.591
			c0-1.066-0.269-2.015-0.805-2.845c-0.537-0.831-1.301-1.246-2.292-1.246c-0.984,0-1.742,0.393-2.271,1.179
			s-0.794,1.699-0.794,2.738c0,1.073,0.268,2.023,0.805,2.851c0.536,0.827,1.304,1.241,2.302,1.241c0.984,0,1.74-0.395,2.266-1.184
			C170.754,70.534,171.018,69.623,171.018,68.591z"/>
		<path fill="#C1272D" d="M183.804,73.39l-1.589,0.062c-0.096-0.383-0.144-0.697-0.144-0.943h-0.103
			c-0.909,0.766-2.013,1.148-3.312,1.148c-1.183,0-2.042-0.285-2.579-0.856c-0.537-0.571-0.805-1.721-0.805-3.451
			c0-0.246,0.007-0.612,0.021-1.097s0.021-0.817,0.021-0.995c0-1.005-0.058-2.188-0.174-3.548l1.907-0.072
			c-0.082,1.319-0.123,2.447-0.123,3.384c0,2.153,0.139,3.557,0.415,4.209c0.277,0.653,0.901,0.979,1.872,0.979
			c1.094,0,1.996-0.273,2.707-0.82c0-3.801-0.034-6.361-0.103-7.68l1.846-0.072c-0.055,1.285-0.082,3.063-0.082,5.332
			C183.579,70.426,183.654,71.899,183.804,73.39z"/>
		<path fill="#C1272D" d="M192.602,63.659l-0.461,1.63c-0.533-0.212-1.029-0.318-1.487-0.318c-1.285,0-2.119,0.612-2.502,1.835
			c0,3.145,0.021,5.342,0.062,6.593h-1.815c0.109-2.167,0.164-3.849,0.164-5.045c0-1.62-0.161-3.172-0.482-4.655l1.794-0.256
			c0.13,0.752,0.195,1.254,0.195,1.507h0.082c0.738-1.087,1.6-1.63,2.584-1.63C191.255,63.32,191.877,63.433,192.602,63.659z"/>
		<path fill="#C1272D" d="M207.706,68.129c0,1.477-0.423,2.771-1.267,3.881c-0.844,1.111-2.018,1.667-3.521,1.667
			c-1.258,0-2.085-0.226-2.482-0.677h-0.103c0,1.9,0.021,3.596,0.062,5.086h-1.928c0.157-1.818,0.236-4.064,0.236-6.737
			c0-3.295-0.171-5.845-0.513-7.649l1.805-0.256l0.154,1.015h0.103c0.663-0.772,1.737-1.159,3.219-1.159
			c1.307,0,2.338,0.477,3.098,1.43C207.326,65.684,207.706,66.817,207.706,68.129z M205.881,68.375c0-1.012-0.267-1.878-0.8-2.6
			c-0.533-0.721-1.282-1.082-2.245-1.082c-1.23,0-2.113,0.373-2.646,1.118c0.109,2.297,0.164,4.269,0.164,5.917
			c0.554,0.465,1.275,0.697,2.164,0.697c1.128,0,1.971-0.396,2.527-1.189S205.881,69.49,205.881,68.375z"/>
		<path fill="#C1272D" d="M217.775,73.4l-1.609,0.062c-0.082-0.335-0.123-0.653-0.123-0.954h-0.104
			c-0.84,0.766-1.985,1.148-3.435,1.148c-0.786,0-1.463-0.231-2.03-0.692c-0.567-0.462-0.852-1.12-0.852-1.974
			c0-1.053,0.445-1.898,1.334-2.538s2.539-0.976,4.952-1.01c0.021-0.164,0.03-0.352,0.03-0.564c0-0.841-0.224-1.401-0.672-1.682
			c-0.447-0.28-1.125-0.42-2.035-0.42c-1.072,0-2.129,0.133-3.168,0.4l0.174-1.415c1.025-0.294,2.205-0.441,3.538-0.441
			c1.217,0,2.157,0.251,2.819,0.753c0.664,0.503,0.995,1.359,0.995,2.569c0,0.321-0.015,0.904-0.046,1.749s-0.047,1.406-0.047,1.687
			C217.498,71.322,217.591,72.429,217.775,73.4z M215.961,71.411c-0.035-1.039-0.052-1.972-0.052-2.799
			c-1.285,0-2.263,0.096-2.933,0.287c-1.121,0.342-1.682,0.995-1.682,1.958c0,0.93,0.656,1.395,1.969,1.395
			C214.392,72.251,215.291,71.971,215.961,71.411z"/>
		<path fill="#C1272D" d="M226.891,70.621c0,1.996-1.274,2.994-3.824,2.994c-1.128,0-2.181-0.113-3.158-0.338l0.318-1.507
			c0.889,0.342,1.852,0.513,2.891,0.513c1.49,0,2.236-0.424,2.236-1.271c0-0.41-0.166-0.736-0.498-0.979s-0.88-0.515-1.646-0.815
			c-0.971-0.383-1.675-0.752-2.112-1.107c-0.643-0.526-0.964-1.162-0.964-1.907c0-0.779,0.294-1.447,0.882-2.005
			c0.588-0.557,1.483-0.835,2.687-0.835c1.176,0,2.119,0.099,2.83,0.297l-0.317,1.477c-0.738-0.294-1.594-0.441-2.564-0.441
			c-1.313,0-1.969,0.379-1.969,1.138c0,0.383,0.147,0.692,0.441,0.928c0.294,0.236,0.868,0.521,1.723,0.856
			c0.923,0.362,1.606,0.718,2.051,1.066C226.56,69.223,226.891,69.869,226.891,70.621z"/>
		<path fill="#C1272D" d="M235.689,70.621c0,1.996-1.275,2.994-3.825,2.994c-1.128,0-2.181-0.113-3.158-0.338l0.317-1.507
			c0.889,0.342,1.854,0.513,2.893,0.513c1.49,0,2.234-0.424,2.234-1.271c0-0.41-0.166-0.736-0.497-0.979s-0.88-0.515-1.646-0.815
			c-0.971-0.383-1.675-0.752-2.112-1.107c-0.643-0.526-0.964-1.162-0.964-1.907c0-0.779,0.294-1.447,0.882-2.005
			c0.588-0.557,1.483-0.835,2.687-0.835c1.176,0,2.119,0.099,2.83,0.297l-0.318,1.477c-0.738-0.294-1.592-0.441-2.563-0.441
			c-1.313,0-1.969,0.379-1.969,1.138c0,0.383,0.146,0.692,0.44,0.928c0.294,0.236,0.868,0.521,1.723,0.856
			c0.923,0.362,1.606,0.718,2.051,1.066C235.357,69.223,235.689,69.869,235.689,70.621z"/>
		<path fill="#C1272D" d="M246.384,67.381c0,0.287-0.014,0.684-0.041,1.189l-7.044,0.123c0.068,0.998,0.454,1.834,1.158,2.507
			s1.637,1.01,2.799,1.01c1.039,0,2.014-0.126,2.923-0.379l-0.174,1.446c-0.671,0.267-1.638,0.4-2.902,0.4
			c-1.777,0-3.133-0.485-4.065-1.456c-0.934-0.971-1.4-2.153-1.4-3.548c0-1.49,0.426-2.774,1.277-3.85
			c0.851-1.077,1.994-1.615,3.43-1.615c1.319,0,2.322,0.39,3.01,1.169C246.04,65.156,246.384,66.157,246.384,67.381z
			 M244.672,67.401c0-1.921-0.804-2.881-2.41-2.881c-1.641,0-2.607,0.998-2.902,2.994L244.672,67.401z M245.942,58.942
			c0,0.082-0.472,0.629-1.415,1.641s-1.414,1.572-1.414,1.682h-1.23c0-0.109,0.307-0.672,0.922-1.687
			c0.615-1.016,0.924-1.561,0.924-1.636H245.942z"/>
		<path fill="#C1272D" d="M261.007,73.4l-1.61,0.062c-0.082-0.335-0.123-0.653-0.123-0.954h-0.103
			c-0.841,0.766-1.986,1.148-3.436,1.148c-0.786,0-1.463-0.231-2.029-0.692c-0.568-0.462-0.852-1.12-0.852-1.974
			c0-1.053,0.444-1.898,1.333-2.538s2.539-0.976,4.952-1.01c0.021-0.164,0.031-0.352,0.031-0.564c0-0.841-0.224-1.401-0.672-1.682
			c-0.447-0.28-1.126-0.42-2.035-0.42c-1.073,0-2.13,0.133-3.168,0.4l0.174-1.415c1.025-0.294,2.205-0.441,3.537-0.441
			c1.217,0,2.157,0.251,2.82,0.753c0.663,0.503,0.994,1.359,0.994,2.569c0,0.321-0.015,0.904-0.046,1.749
			c-0.03,0.844-0.046,1.406-0.046,1.687C260.729,71.322,260.821,72.429,261.007,73.4z M259.191,71.411
			c-0.034-1.039-0.052-1.972-0.052-2.799c-1.285,0-2.263,0.096-2.932,0.287c-1.122,0.342-1.682,0.995-1.682,1.958
			c0,0.93,0.656,1.395,1.969,1.395C257.622,72.251,258.521,71.971,259.191,71.411z"/>
		<path fill="#C1272D" d="M272.255,73.39l-1.59,0.062c-0.096-0.383-0.144-0.697-0.144-0.943h-0.103
			c-0.909,0.766-2.014,1.148-3.313,1.148c-1.183,0-2.042-0.285-2.578-0.856c-0.537-0.571-0.805-1.721-0.805-3.451
			c0-0.246,0.006-0.612,0.02-1.097s0.021-0.817,0.021-0.995c0-1.005-0.059-2.188-0.175-3.548l1.907-0.072
			c-0.082,1.319-0.123,2.447-0.123,3.384c0,2.153,0.139,3.557,0.415,4.209c0.277,0.653,0.9,0.979,1.872,0.979
			c1.093,0,1.995-0.273,2.707-0.82c0-3.801-0.035-6.361-0.104-7.68l1.846-0.072c-0.055,1.285-0.082,3.063-0.082,5.332
			C272.028,70.426,272.104,71.899,272.255,73.39z"/>
		<path fill="#C1272D" d="M285.923,70.621c0,1.996-1.275,2.994-3.825,2.994c-1.128,0-2.181-0.113-3.158-0.338l0.317-1.507
			c0.889,0.342,1.853,0.513,2.893,0.513c1.489,0,2.234-0.424,2.234-1.271c0-0.41-0.165-0.736-0.497-0.979
			c-0.331-0.243-0.88-0.515-1.646-0.815c-0.971-0.383-1.675-0.752-2.112-1.107c-0.643-0.526-0.964-1.162-0.964-1.907
			c0-0.779,0.294-1.447,0.882-2.005c0.588-0.557,1.483-0.835,2.687-0.835c1.176,0,2.119,0.099,2.83,0.297l-0.318,1.477
			c-0.738-0.294-1.593-0.441-2.563-0.441c-1.313,0-1.969,0.379-1.969,1.138c0,0.383,0.146,0.692,0.44,0.928
			c0.294,0.236,0.868,0.521,1.723,0.856c0.923,0.362,1.606,0.718,2.051,1.066C285.591,69.223,285.923,69.869,285.923,70.621z"/>
		<path fill="#C1272D" d="M296.854,73.39l-1.59,0.062c-0.096-0.383-0.144-0.697-0.144-0.943h-0.103
			c-0.909,0.766-2.014,1.148-3.313,1.148c-1.183,0-2.042-0.285-2.578-0.856c-0.537-0.571-0.805-1.721-0.805-3.451
			c0-0.246,0.006-0.612,0.02-1.097s0.021-0.817,0.021-0.995c0-1.005-0.059-2.188-0.175-3.548l1.907-0.072
			c-0.082,1.319-0.123,2.447-0.123,3.384c0,2.153,0.139,3.557,0.415,4.209c0.277,0.653,0.9,0.979,1.872,0.979
			c1.093,0,1.995-0.273,2.707-0.82c0-3.801-0.035-6.361-0.104-7.68l1.846-0.072c-0.055,1.285-0.082,3.063-0.082,5.332
			C296.628,70.426,296.703,71.899,296.854,73.39z"/>
		<path fill="#C1272D" d="M301.313,73.4h-1.855c0.096-1.367,0.144-2.929,0.144-4.686c0-1.976-0.12-3.633-0.358-4.973l2.051-0.277
			c-0.082,1.429-0.123,3.179-0.123,5.25C301.171,70.354,301.218,71.917,301.313,73.4z M301.745,60.583
			c0,0.349-0.113,0.651-0.339,0.907c-0.226,0.257-0.544,0.385-0.954,0.385c-0.348,0-0.62-0.111-0.814-0.333
			c-0.195-0.222-0.293-0.491-0.293-0.805c0-0.342,0.116-0.639,0.35-0.892c0.231-0.253,0.553-0.379,0.963-0.379
			c0.335,0,0.601,0.111,0.795,0.333C301.647,60.021,301.745,60.282,301.745,60.583z"/>
		<path fill="#C1272D" d="M312.316,63.659c0,0.335-0.692,1.95-2.076,4.845c-1.385,2.896-2.076,4.527-2.076,4.896h-1.375
			c0-0.479-0.609-2.151-1.83-5.02c-1.22-2.867-1.83-4.441-1.83-4.722h1.989c0,0.328,0.444,1.63,1.333,3.907s1.333,3.579,1.333,3.907
			h0.093c0-0.314,0.422-1.569,1.266-3.763c0.845-2.194,1.267-3.544,1.267-4.05H312.316z"/>
		<path fill="#C1272D" d="M321.822,73.4l-1.61,0.062c-0.082-0.335-0.123-0.653-0.123-0.954h-0.103
			c-0.841,0.766-1.986,1.148-3.436,1.148c-0.786,0-1.463-0.231-2.029-0.692c-0.568-0.462-0.852-1.12-0.852-1.974
			c0-1.053,0.444-1.898,1.333-2.538s2.539-0.976,4.952-1.01c0.021-0.164,0.031-0.352,0.031-0.564c0-0.841-0.224-1.401-0.672-1.682
			c-0.447-0.28-1.126-0.42-2.035-0.42c-1.073,0-2.13,0.133-3.168,0.4l0.174-1.415c1.025-0.294,2.205-0.441,3.537-0.441
			c1.217,0,2.157,0.251,2.82,0.753c0.663,0.503,0.994,1.359,0.994,2.569c0,0.321-0.015,0.904-0.046,1.749
			c-0.03,0.844-0.046,1.406-0.046,1.687C321.545,71.322,321.637,72.429,321.822,73.4z M320.007,71.411
			c-0.034-1.039-0.052-1.972-0.052-2.799c-1.285,0-2.263,0.096-2.932,0.287c-1.122,0.342-1.682,0.995-1.682,1.958
			c0,0.93,0.656,1.395,1.969,1.395C318.438,72.251,319.337,71.971,320.007,71.411z"/>
		<path fill="#C1272D" d="M333.112,73.4h-1.867c0.15-1.798,0.227-3.76,0.227-5.886c0-1.053-0.214-1.772-0.642-2.158
			c-0.427-0.386-1.037-0.58-1.83-0.58c-0.971,0-1.866,0.352-2.687,1.056c0,2.331,0.014,4.854,0.041,7.567h-1.866
			c0.116-2.324,0.175-4.006,0.175-5.045c0-1.6-0.151-3.151-0.451-4.655l1.805-0.256l0.194,1.251h0.082
			c1.012-0.916,2.095-1.374,3.251-1.374c1.134,0,2.013,0.251,2.635,0.753c0.622,0.503,0.934,1.396,0.934,2.682
			c0,0.13-0.008,0.386-0.021,0.769s-0.02,0.639-0.02,0.769C333.071,69.435,333.084,71.137,333.112,73.4z"/>
		<path fill="#C1272D" d="M341.417,71.985l-0.123,1.333c-0.54,0.198-1.05,0.297-1.527,0.297c-1.23,0-2.072-0.313-2.523-0.938
			c-0.451-0.626-0.676-1.745-0.676-3.358c0-1.046,0.006-2.41,0.02-4.091c-0.383,0-0.946,0.021-1.691,0.062l0.062-1.487
			c0.649,0.041,1.23,0.062,1.743,0.062c0-0.41,0.034-1.384,0.103-2.922l1.61-0.164c-0.117,1.436-0.175,2.464-0.175,3.086
			c0.67,0,1.654-0.034,2.953-0.103l-0.071,1.528c-1.23-0.041-2.219-0.062-2.964-0.062c-0.014,1.032-0.021,2.194-0.021,3.486
			c0,1.408,0.148,2.34,0.446,2.794c0.297,0.455,0.849,0.682,1.655,0.682C340.505,72.19,340.897,72.122,341.417,71.985z"/>
		<path fill="#C1272D" d="M346.011,71.893c0,0.403-0.135,0.759-0.404,1.066c-0.271,0.308-0.645,0.461-1.123,0.461
			c-0.403,0-0.716-0.133-0.938-0.4c-0.222-0.267-0.333-0.584-0.333-0.954c0-0.396,0.137-0.743,0.41-1.041
			c0.273-0.297,0.652-0.446,1.139-0.446c0.402,0,0.712,0.126,0.928,0.379C345.903,71.212,346.011,71.523,346.011,71.893z"/>
	</g>
</g>
<g id="Calque_2">
	<path fill="#39B54A" stroke="#00FF00" stroke-miterlimit="10" d="M343.6,322.003c-2.704,2.704-7.09,2.704-9.793,0L160.382,148.579
		c-2.704-2.704-2.705-7.089,0-9.793l48.901-48.901c2.704-2.705,7.089-2.705,9.793,0l173.425,173.424
		c2.704,2.705,2.704,7.089,0,9.793L343.6,322.003z"/>
	<g>
		<path fill="#FFFFFF" d="M251.465,149.12c-1.198,0.829-10.462,9.724-16.27,15.531l-13.043,13.043
			c1.106,1.107,6.546,6.545,11.154,10.785l-3.965,3.964c-0.645-0.646-13.871-14.794-15.024-15.947
			c2.812-2.074,12.674-11.937,13.78-13.043l6.13-6.13c0.737-0.737,11.754-11.936,12.536-12.904L251.465,149.12z"/>
		<path fill="#FFFFFF" d="M257.315,191.657c-4.608,4.609-12.721,12.997-13.733,14.104l-4.471-4.471
			c2.119-1.936,12.95-12.674,14.148-13.873l4.978-4.978c0.783-0.784,12.029-12.306,13.043-13.504l4.609,4.609
			c-0.922,0.737-8.066,7.604-13.597,13.135L257.315,191.657z"/>
		<path fill="#FFFFFF" d="M256.53,219.631c1.43-1.244,9.356-8.895,14.61-14.149l4.886-4.885c4.01-4.01,12.628-13.089,13.688-14.149
			l4.609,4.609c-0.783,0.691-9.679,9.218-13.688,13.228l-4.979,4.978c-3.549,3.548-13.734,14.01-14.519,14.979L256.53,219.631z
			 M277.824,240.372c0.184-1.106,0.599-29.266,0.828-33.46c1.521,0.046,27.7,0.23,29.958,0.092l-0.368,5.714
			c-3.41-0.092-19.219-0.967-24.104-0.967c-0.324,3.18-0.093,24.98-0.047,28.437L277.824,240.372z"/>
		<path fill="#FFFFFF" d="M305.428,268.528c-0.737-0.737-14.149-15.071-15.071-15.993c2.581-2.305,12.444-12.167,13.504-13.228
			l6.177-6.176c0.736-0.737,11.752-11.937,12.581-12.858c1.106,1.106,13.827,12.444,15.486,13.735l-3.456,3.825
			c-1.476-1.475-10.002-9.541-10.739-10.278l-11.707,11.707c0.83,0.83,6.96,6.499,9.494,8.48l-3.502,3.78
			c-1.015-1.015-8.02-8.389-8.941-9.311l-11.246,11.246c1.106,1.106,7.145,7.42,11.201,10.924L305.428,268.528z"/>
	</g>
</g>
</svg>
