<?xml version="1.0" encoding="utf-8"?>
<!-- Generator: Adobe Illustrator 16.0.0, SVG Export Plug-In . SVG Version: 6.00 Build 0)  -->
<!DOCTYPE svg PUBLIC "-//W3C//DTD SVG 1.1//EN" "http://www.w3.org/Graphics/SVG/1.1/DTD/svg11.dtd">
<svg version="1.1" id="Calque_1" xmlns="http://www.w3.org/2000/svg" xmlns:xlink="http://www.w3.org/1999/xlink" x="0px" y="0px"
	 width="383px" height="602px" viewBox="0 0 383 602" enable-background="new 0 0 383 602" xml:space="preserve">
<g id="Calque_2">
</g>
<g>
	<path fill="#C1272D" d="M104.475,425.224c0.399-0.881,4.892-14.424,4.997-14.928h0.042c0.651,1.322,4.598,9.092,5.228,10.141
		c0.735-1.176,5.102-8.839,5.501-9.49h0.042c0.735,1.723,4.493,11.947,5.396,14.152l-1.806,0.776
		c-0.525-1.575-3.737-10.372-4.073-11.149c-0.756,1.176-4.472,7.748-5.333,9.113h-0.042c-1.218-2.268-3.821-7.37-4.661-9.281
		c-0.42,1.303-3.317,10.498-3.569,11.317L104.475,425.224z"/>
	<path fill="#C1272D" d="M130.165,416.992c0,2.917,0.126,4.25,0.828,5.492c0.702,1.225,1.819,1.746,3.115,1.746
		c1.549,0,2.539-0.774,3.133-1.71c0.864-1.351,0.882-3.547,0.882-6.374v-0.63c0-1.243-0.072-2.305-0.108-2.972h1.711
		c0,0.396,0.018,1.585,0.018,3.007v0.829c0,3.457-0.198,5.653-1.548,7.328c-1.062,1.296-2.413,1.908-4.321,1.908
		c-0.972,0-2.935-0.144-4.195-2.143c-0.846-1.351-1.152-2.755-1.152-7.13v-0.973c0-0.828,0.018-2.143,0.018-2.557h1.71
		c-0.036,0.468-0.09,1.314-0.09,2.953V416.992z"/>
	<path fill="#C1272D" d="M143.7,424.303c1.765-0.36,4.015-1.261,4.015-2.719c0-0.9-0.576-1.368-1.873-2.07
		c-1.53-0.828-2.593-1.585-2.593-2.863c0-1.908,2.665-3.691,5.132-4.249l0.378,1.387c-1.099,0.18-3.763,1.044-3.763,2.557
		c0,0.936,1.278,1.512,2.035,1.962c1.368,0.811,2.467,1.387,2.467,2.845c0,1.765-1.873,3.691-5.33,4.502L143.7,424.303z"/>
	<path fill="#C1272D" d="M159.74,425.509c-0.288,0-5.708-0.18-6.068-0.18c0.054-0.954,0.054-4.808,0.054-5.222v-2.413
		c0-0.287-0.036-4.627-0.054-4.969c0.432,0,5.131-0.271,5.708-0.343l0.072,1.423c-0.576,0-3.817,0.09-4.105,0.09v4.573
		c0.324,0,2.629-0.09,3.511-0.198l0.054,1.423c-0.396,0-3.205-0.072-3.565-0.072v4.394c0.432,0,2.845,0.054,4.321-0.054
		L159.74,425.509z M157.867,408.854l0.864,1.26l-2.863,1.513l-0.468-0.648L157.867,408.854z"/>
	<path fill="#C1272D" d="M170.071,425.509c-0.288,0-5.708-0.18-6.067-0.18c0.054-0.954,0.054-4.808,0.054-5.222v-2.413
		c0-0.287-0.036-4.627-0.054-4.969c0.432,0,5.131-0.271,5.708-0.343l0.072,1.423c-0.576,0-3.817,0.09-4.105,0.09v4.573
		c0.324,0,2.629-0.09,3.511-0.198l0.054,1.423c-0.396,0-3.205-0.072-3.565-0.072v4.394c0.432,0,2.845,0.054,4.321-0.054
		L170.071,425.509z"/>
	<path fill="#C1272D" d="M181.138,416.091c0-0.441-0.021-4.871-0.105-5.459c1.197,0,3.527-0.021,5.354,0.21
		c6.845,0.86,7.685,3.905,7.685,5.375c0,6.509-8.272,9.218-13.06,9.218c0.084-0.967,0.126-6.174,0.126-6.74V416.091z
		 M183.028,423.587c5.732-0.504,8.986-3.885,8.986-6.824c0-3.191-3.548-4.619-8.986-4.557V423.587z"/>
	<path fill="#C1272D" d="M198.954,416.992c0,2.917,0.126,4.25,0.828,5.492c0.702,1.225,1.819,1.746,3.115,1.746
		c1.549,0,2.539-0.774,3.133-1.71c0.865-1.351,0.883-3.547,0.883-6.374v-0.63c0-1.243-0.072-2.305-0.108-2.972h1.711
		c0,0.396,0.018,1.585,0.018,3.007v0.829c0,3.457-0.198,5.653-1.548,7.328c-1.063,1.296-2.413,1.908-4.322,1.908
		c-0.972,0-2.935-0.144-4.195-2.143c-0.846-1.351-1.152-2.755-1.152-7.13v-0.973c0-0.828,0.018-2.143,0.018-2.557h1.71
		c-0.036,0.468-0.09,1.314-0.09,2.953V416.992z"/>
	<path fill="#C1272D" d="M221.835,410.632c-0.084,0.462-0.168,4.598-0.168,7.244v5.941c0.504,0,2.981,0,4.997-0.084v1.806
		c-0.294,0-6.529-0.21-7.055-0.21c0.168-1.113,0.168-5.605,0.168-6.109v-2.793c0-0.336-0.042-5.396-0.084-5.795H221.835z"/>
	<path fill="#C1272D" d="M228.901,419.676c0-3.997,2.827-7.238,7.166-7.238c3.403,0,5.978,2.25,5.978,6.14
		c0,2.809-1.873,7.04-6.986,7.04C231.134,425.617,228.901,422.845,228.901,419.676z M240.299,418.667
		c0-3.223-2.125-4.897-4.483-4.897c-3.224,0-5.186,2.557-5.186,5.636c0,2.683,1.765,4.88,4.591,4.88
		C237.922,424.285,240.299,422.214,240.299,418.667z"/>
	<path fill="#C1272D" d="M246.561,416.992c0,2.917,0.125,4.25,0.828,5.492c0.701,1.225,1.818,1.746,3.114,1.746
		c1.549,0,2.539-0.774,3.134-1.71c0.863-1.351,0.882-3.547,0.882-6.374v-0.63c0-1.243-0.072-2.305-0.108-2.972h1.711
		c0,0.396,0.018,1.585,0.018,3.007v0.829c0,3.457-0.197,5.653-1.549,7.328c-1.062,1.296-2.412,1.908-4.32,1.908
		c-0.973,0-2.936-0.144-4.195-2.143c-0.847-1.351-1.152-2.755-1.152-7.13v-0.973c0-0.828,0.018-2.143,0.018-2.557h1.711
		c-0.036,0.468-0.09,1.314-0.09,2.953V416.992z"/>
	<path fill="#C1272D" d="M271.204,413.302c-0.63,0.936-6.122,11.379-6.77,12.621h-0.036c-0.378-0.558-5.654-11.793-6.193-12.621
		l1.548-0.864c0.288,0.81,4.483,9.614,4.844,10.173c0.306-0.433,4.915-9.597,5.132-10.173L271.204,413.302z"/>
	<path fill="#C1272D" d="M275.485,419.819c0,0.685,0.054,5.239,0.09,5.51h-1.746c0.072-0.432,0.036-6.14,0.036-6.518v-1.477
		c0-0.54-0.036-4.268-0.091-4.609c0.847,0,2.359,0.018,3.745,0.18c2.377,0.288,3.728,1.297,3.728,2.827s-1.026,2.719-2.503,3.655
		c0.45,0.611,3.691,4.627,4.195,5.167l-1.368,1.099c-0.198-0.252-4.249-5.563-4.789-6.32c0.899-0.486,2.7-1.584,2.7-3.349
		c0-0.811-0.594-2.017-3.997-2.053V419.819z"/>
	<path fill="#C1272D" d="M292.335,425.509c-0.288,0-5.708-0.18-6.068-0.18c0.055-0.954,0.055-4.808,0.055-5.222v-2.413
		c0-0.287-0.036-4.627-0.055-4.969c0.433,0,5.132-0.271,5.708-0.343l0.072,1.423c-0.576,0-3.817,0.09-4.105,0.09v4.573
		c0.324,0,2.629-0.09,3.511-0.198l0.055,1.423c-0.396,0-3.205-0.072-3.565-0.072v4.394c0.433,0,2.845,0.054,4.321-0.054
		L292.335,425.509z"/>
</g>
<g>
	<path fill="#C1272D" d="M158.065,456c0.042-0.902,0.105-5.963,0.105-7.453v-2.311c0-0.482-0.063-4.619-0.063-4.934
		c0.882,0,2.646,0.063,3.947,0.273c2.813,0.461,4.577,1.805,4.577,4.031c0,2.876-2.646,5.207-6.635,6.004v1.239
		c0,0.42,0,2.708,0.042,3.149H158.065z M159.997,450.143c2.646-0.567,4.598-1.911,4.598-4.221c0-0.63-0.357-3.002-4.598-3.065
		V450.143z"/>
	<path fill="#C1272D" d="M167.264,455.307c1.155-2.016,7.202-13.941,7.706-14.738h0.042c1.848,2.98,6.824,12.45,8.251,14.634
		l-1.785,1.176c-0.42-0.798-2.646-5.103-2.876-5.438l-7.286,0.295c-0.252,0.398-1.974,4.451-2.331,5.164L167.264,455.307z
		 M177.972,449.596c-0.231-0.461-2.813-5.354-3.023-5.689c-0.315,0.462-2.729,5.605-2.918,5.941L177.972,449.596z"/>
	<path fill="#C1272D" d="M188.683,449.575c0,0.798,0.063,6.11,0.105,6.425h-2.037c0.084-0.504,0.042-7.16,0.042-7.601v-1.722
		c0-0.63-0.042-4.977-0.105-5.375c0.987,0,2.75,0.021,4.367,0.21c2.771,0.336,4.346,1.512,4.346,3.296
		c0,1.785-1.197,3.171-2.918,4.263c0.525,0.714,4.304,5.396,4.892,6.026l-1.596,1.28c-0.231-0.294-4.955-6.487-5.585-7.37
		c1.05-0.566,3.149-1.848,3.149-3.904c0-0.945-0.693-2.352-4.661-2.395V449.575z"/>
	<path fill="#C1272D" d="M203.215,449.659c0,2.1,0.063,5.858,0.084,6.341h-2.037c0.043-0.924,0.063-5.837,0.063-6.383v-2.268
		c0-0.357-0.063-5.543-0.104-6.047h2.1c-0.043,0.378-0.105,3.569-0.105,6.089V449.659z"/>
	<path fill="#C1272D" d="M208.885,454.803c2.059-0.42,4.683-1.469,4.683-3.17c0-1.05-0.672-1.596-2.184-2.414
		c-1.784-0.967-3.023-1.848-3.023-3.339c0-2.226,3.107-4.304,5.983-4.955l0.441,1.616c-1.281,0.211-4.389,1.219-4.389,2.982
		c0,1.092,1.491,1.764,2.373,2.288c1.596,0.944,2.877,1.616,2.877,3.317c0,2.058-2.184,4.305-6.215,5.249L208.885,454.803z"/>
</g>
<g>
	<path fill="#C1272D" d="M110.226,31.57l-0.174,2.358c-0.971,0.232-1.928,0.349-2.871,0.349c-2.345,0-4.131-0.647-5.358-1.943
		s-1.84-2.87-1.84-4.722c0-1.921,0.651-3.592,1.954-5.014c1.302-1.422,3.088-2.133,5.357-2.133c0.834,0,1.624,0.096,2.369,0.287
		l-0.359,2.369c-0.807-0.26-1.579-0.39-2.317-0.39c-1.388,0-2.42,0.439-3.097,1.318s-1.015,1.946-1.015,3.204
		c0,1.285,0.401,2.399,1.205,3.343s1.93,1.415,3.379,1.415C108.305,32.011,109.228,31.864,110.226,31.57z"/>
	<path fill="#C1272D" d="M120.838,28.083c0,0.349-0.021,0.803-0.062,1.364l-6.604,0.113c0.096,0.772,0.427,1.415,0.995,1.928
		s1.313,0.769,2.235,0.769c1.025,0,2.116-0.154,3.271-0.461l-0.205,1.989c-0.943,0.342-2.112,0.513-3.507,0.513
		c-1.764,0-3.116-0.496-4.056-1.487s-1.41-2.184-1.41-3.579c0-1.456,0.446-2.719,1.338-3.789c0.892-1.07,2.131-1.605,3.717-1.605
		c1.449,0,2.526,0.393,3.23,1.179S120.838,26.826,120.838,28.083z M118.439,27.991c0-1.572-0.67-2.358-2.01-2.358
		c-1.278,0-2.037,0.813-2.276,2.44L118.439,27.991z"/>
	<path fill="#C1272D" d="M142.433,34h-2.717c0.144-1.729,0.215-3.411,0.215-5.045c0-1.224-0.157-2.023-0.472-2.399
		s-0.817-0.564-1.507-0.564c-0.554,0-1.138,0.202-1.753,0.605c-0.027,0.854-0.041,1.62-0.041,2.297c0,1.142,0.021,2.844,0.062,5.106
		h-2.748c0.15-1.873,0.226-3.695,0.226-5.465c0-0.916-0.128-1.569-0.384-1.958c-0.257-0.39-0.788-0.584-1.595-0.584
		c-0.745,0-1.364,0.25-1.856,0.749c0.034,2.707,0.051,5.127,0.051,7.26h-2.758c0.123-2.133,0.185-3.814,0.185-5.045
		c0-1.6-0.167-3.141-0.502-4.625l2.625-0.287l0.174,1.087h0.164c0.889-0.807,1.89-1.21,3.004-1.21c1.395,0,2.375,0.403,2.943,1.21
		h0.164c1.012-0.807,2.013-1.21,3.004-1.21c1.162,0,2.039,0.251,2.63,0.753c0.591,0.503,0.887,1.414,0.887,2.733
		c0,0.13-0.007,0.378-0.021,0.744s-0.021,0.613-0.021,0.743C142.392,30.035,142.406,31.737,142.433,34z"/>
	<path fill="#C1272D" d="M153.876,33.99l-2.399,0.082c-0.109-0.369-0.164-0.663-0.164-0.882h-0.164
		c-0.896,0.738-1.941,1.107-3.138,1.107c-1.128,0-1.978-0.296-2.548-0.887c-0.571-0.591-0.856-1.772-0.856-3.542
		c0-0.212,0.005-0.509,0.015-0.892c0.011-0.383,0.016-0.718,0.016-1.005c0-0.759-0.065-1.969-0.195-3.63l2.861-0.103
		c-0.109,1.313-0.164,2.557-0.164,3.732c0,1.675,0.125,2.803,0.374,3.384s0.74,0.872,1.472,0.872c0.8,0,1.49-0.191,2.071-0.574
		c0-3.596-0.041-6.036-0.123-7.321l2.769-0.092c-0.068,1.292-0.103,2.967-0.103,5.024C153.6,30.787,153.692,32.363,153.876,33.99z"
		/>
	<path fill="#C1272D" d="M163.033,31.201c0,2.051-1.518,3.076-4.553,3.076c-1.107,0-2.075-0.12-2.902-0.359l0.349-2.02
		c0.854,0.308,1.706,0.461,2.553,0.461c0.82,0,1.389-0.068,1.708-0.205c0.317-0.137,0.477-0.366,0.477-0.687
		c0-0.499-0.574-0.974-1.723-1.425c-1.005-0.396-1.736-0.786-2.194-1.169c-0.629-0.533-0.943-1.186-0.943-1.958
		c0-0.909,0.338-1.641,1.015-2.194s1.661-0.831,2.953-0.831c1.21,0,2.16,0.106,2.851,0.318l-0.349,2.03
		c-0.772-0.301-1.606-0.451-2.502-0.451c-1.094,0-1.641,0.28-1.641,0.841c0,0.287,0.116,0.518,0.349,0.692
		c0.232,0.175,0.708,0.395,1.425,0.662c0.991,0.362,1.712,0.735,2.164,1.118C162.712,29.646,163.033,30.346,163.033,31.201z"/>
	<path fill="#C1272D" d="M173.779,28.083c0,0.349-0.021,0.803-0.062,1.364l-6.604,0.113c0.096,0.772,0.427,1.415,0.995,1.928
		s1.313,0.769,2.235,0.769c1.025,0,2.116-0.154,3.271-0.461l-0.205,1.989c-0.943,0.342-2.112,0.513-3.507,0.513
		c-1.764,0-3.116-0.496-4.056-1.487s-1.41-2.184-1.41-3.579c0-1.456,0.446-2.719,1.338-3.789c0.892-1.07,2.131-1.605,3.717-1.605
		c1.449,0,2.526,0.393,3.23,1.179S173.779,26.826,173.779,28.083z M171.38,27.991c0-1.572-0.67-2.358-2.01-2.358
		c-1.278,0-2.037,0.813-2.276,2.44L171.38,27.991z M173.01,19.542c0,0.082-0.472,0.629-1.415,1.641s-1.415,1.572-1.415,1.682h-1.794
		c0-0.109,0.308-0.672,0.923-1.687c0.615-1.016,0.923-1.561,0.923-1.636H173.01z"/>
	<path fill="#C1272D" d="M184.536,28.083c0,0.349-0.021,0.803-0.062,1.364l-6.604,0.113c0.096,0.772,0.427,1.415,0.995,1.928
		s1.313,0.769,2.235,0.769c1.025,0,2.116-0.154,3.271-0.461l-0.205,1.989c-0.943,0.342-2.112,0.513-3.507,0.513
		c-1.764,0-3.116-0.496-4.056-1.487s-1.41-2.184-1.41-3.579c0-1.456,0.446-2.719,1.338-3.789c0.892-1.07,2.131-1.605,3.717-1.605
		c1.449,0,2.526,0.393,3.23,1.179S184.536,26.826,184.536,28.083z M182.136,27.991c0-1.572-0.67-2.358-2.01-2.358
		c-1.278,0-2.037,0.813-2.276,2.44L182.136,27.991z"/>
	<path fill="#C1272D" d="M199.804,24.259c0,0.396-0.612,2.02-1.835,4.871s-1.835,4.474-1.835,4.871h-2.799
		c0-0.438-0.543-2.1-1.63-4.988s-1.63-4.473-1.63-4.753h2.994c0,0.308,0.336,1.496,1.01,3.563c0.673,2.068,1.01,3.283,1.01,3.645
		h0.133c0-0.328,0.321-1.477,0.964-3.445s0.964-3.223,0.964-3.763H199.804z"/>
	<path fill="#C1272D" d="M211.094,28.904c0,1.723-0.53,3.069-1.59,4.04s-2.307,1.456-3.742,1.456c-1.367,0-2.54-0.442-3.518-1.328
		s-1.466-2.131-1.466-3.738c0-1.729,0.533-3.083,1.599-4.061s2.318-1.466,3.754-1.466c1.359,0,2.527,0.446,3.501,1.338
		C210.606,26.038,211.094,27.291,211.094,28.904z M208.417,29.211c0-0.991-0.232-1.823-0.697-2.497s-1.069-1.01-1.815-1.01
		c-0.725,0-1.314,0.314-1.769,0.943s-0.682,1.415-0.682,2.358c0,0.991,0.232,1.824,0.697,2.497c0.465,0.674,1.069,1.01,1.815,1.01
		c0.725,0,1.313-0.314,1.769-0.943C208.189,30.941,208.417,30.155,208.417,29.211z"/>
	<path fill="#C1272D" d="M222.105,33.99l-2.398,0.082c-0.109-0.369-0.164-0.663-0.164-0.882h-0.164
		c-0.896,0.738-1.941,1.107-3.139,1.107c-1.127,0-1.977-0.296-2.548-0.887c-0.571-0.591-0.856-1.772-0.856-3.542
		c0-0.212,0.006-0.509,0.016-0.892c0.011-0.383,0.016-0.718,0.016-1.005c0-0.759-0.064-1.969-0.195-3.63l2.861-0.103
		c-0.109,1.313-0.164,2.557-0.164,3.732c0,1.675,0.125,2.803,0.374,3.384s0.74,0.872,1.472,0.872c0.8,0,1.49-0.191,2.071-0.574
		c0-3.596-0.041-6.036-0.123-7.321l2.769-0.092c-0.068,1.292-0.103,2.967-0.103,5.024C221.829,30.787,221.922,32.363,222.105,33.99z
		"/>
	<path fill="#C1272D" d="M231.263,31.201c0,2.051-1.518,3.076-4.553,3.076c-1.107,0-2.075-0.12-2.901-0.359l0.348-2.02
		c0.855,0.308,1.706,0.461,2.554,0.461c0.82,0,1.39-0.068,1.708-0.205c0.316-0.137,0.477-0.366,0.477-0.687
		c0-0.499-0.574-0.974-1.723-1.425c-1.006-0.396-1.736-0.786-2.195-1.169c-0.629-0.533-0.943-1.186-0.943-1.958
		c0-0.909,0.339-1.641,1.016-2.194s1.661-0.831,2.953-0.831c1.21,0,2.16,0.106,2.851,0.318l-0.349,2.03
		c-0.772-0.301-1.606-0.451-2.502-0.451c-1.094,0-1.641,0.28-1.641,0.841c0,0.287,0.116,0.518,0.349,0.692
		c0.232,0.175,0.708,0.395,1.425,0.662c0.992,0.362,1.713,0.735,2.164,1.118C230.941,29.646,231.263,30.346,231.263,31.201z"/>
	<path fill="#C1272D" d="M247.546,28.709c0,1.483-0.424,2.786-1.271,3.907s-2.007,1.682-3.476,1.682
		c-1.094,0-1.846-0.232-2.256-0.697h-0.123c0,1.675,0.023,3.37,0.071,5.086h-2.789c0.123-1.962,0.185-4.225,0.185-6.788
		c0-3.309-0.178-5.831-0.533-7.567l2.625-0.287l0.154,0.882h0.164c0.73-0.677,1.726-1.015,2.983-1.015
		c1.313,0,2.352,0.474,3.117,1.42C247.163,26.277,247.546,27.403,247.546,28.709z M244.818,28.976c0-0.861-0.215-1.603-0.646-2.225
		c-0.43-0.622-1.025-0.933-1.783-0.933c-0.943,0-1.635,0.277-2.072,0.831c0.104,1.921,0.154,3.681,0.154,5.281
		c0.431,0.335,0.988,0.502,1.672,0.502c0.908,0,1.582-0.336,2.02-1.01C244.6,30.748,244.818,29.933,244.818,28.976z"/>
	<path fill="#C1272D" d="M252.468,34h-2.8c0.104-2.345,0.154-4.884,0.154-7.619c0-2.666-0.105-4.932-0.318-6.798l2.964-0.164
		c-0.103,1.935-0.153,4.255-0.153,6.962C252.314,29.129,252.365,31.669,252.468,34z"/>
	<path fill="#C1272D" d="M263.162,33.99l-2.42,0.082c-0.109-0.287-0.164-0.547-0.164-0.779h-0.133
		c-0.752,0.643-1.768,0.964-3.045,0.964c-0.855,0-1.564-0.238-2.128-0.712c-0.564-0.475-0.847-1.106-0.847-1.892
		c0-1.039,0.439-1.89,1.318-2.553c0.878-0.663,2.418-1.015,4.619-1.056c0.014-0.123,0.021-0.239,0.021-0.349
		c0-0.738-0.178-1.225-0.533-1.461c-0.355-0.235-1.009-0.354-1.958-0.354c-1.033,0-2.041,0.137-3.025,0.41l0.226-1.887
		c0.93-0.321,2.242-0.482,3.938-0.482c1.237,0,2.192,0.26,2.866,0.779c0.673,0.52,1.01,1.429,1.01,2.728
		c0,0.287-0.012,0.81-0.036,1.569c-0.023,0.759-0.036,1.265-0.036,1.518C262.834,31.929,262.943,33.087,263.162,33.99z
		 M260.425,31.857c-0.041-0.923-0.062-1.719-0.062-2.389c-2.331,0-3.496,0.591-3.496,1.774c0,0.813,0.512,1.22,1.537,1.22
		C259.211,32.462,259.885,32.26,260.425,31.857z"/>
	<path fill="#C1272D" d="M268.044,34h-2.759c0.096-1.415,0.144-3.039,0.144-4.871c0-1.818-0.116-3.411-0.349-4.778l2.953-0.297
		c-0.089,1.326-0.134,3.018-0.134,5.076C267.899,30.886,267.947,32.51,268.044,34z M268.515,21.162c0,0.465-0.158,0.872-0.477,1.22
		c-0.317,0.349-0.761,0.523-1.328,0.523c-0.479,0-0.853-0.15-1.122-0.451c-0.271-0.301-0.405-0.663-0.405-1.087
		c0-0.465,0.159-0.868,0.477-1.21c0.318-0.342,0.764-0.513,1.338-0.513c0.485,0,0.86,0.148,1.123,0.446
		C268.384,20.388,268.515,20.745,268.515,21.162z"/>
	<path fill="#C1272D" d="M276.441,32.083l-0.174,1.825c-0.479,0.205-1.081,0.308-1.805,0.308c-1.107,0-1.942-0.301-2.502-0.902
		c-0.562-0.602-0.842-1.76-0.842-3.476c0-1.032,0.007-2.201,0.021-3.507c-0.35,0-0.82,0.021-1.416,0.062l0.072-2.02
		c0.526,0.041,1.016,0.062,1.467,0.062c0.006-0.362,0.033-1.316,0.082-2.861l2.43-0.297c-0.103,1.36-0.154,2.413-0.154,3.158
		c0.574,0,1.433-0.027,2.574-0.082l-0.082,2.041c-1.039-0.041-1.884-0.062-2.533-0.062c-0.014,0.909-0.02,1.863-0.02,2.861
		c0,1.217,0.123,2.032,0.369,2.446s0.68,0.62,1.302,0.62C275.607,32.257,276.011,32.199,276.441,32.083z"/>
	<path fill="#C1272D" d="M283.824,23.408c0,1.477-0.953,2.656-2.86,3.538l-0.216,1.548h-1.363l-0.39-2.184
		c1.47-0.431,2.204-1.142,2.204-2.133c0-1.21-1.268-1.853-3.804-1.928l0.235-1.938c2.126,0,3.69,0.224,4.691,0.671
		C283.324,21.431,283.824,22.239,283.824,23.408z M281.682,32.216c0,0.499-0.173,0.938-0.518,1.317
		c-0.346,0.38-0.822,0.569-1.431,0.569c-0.513,0-0.913-0.164-1.2-0.492s-0.43-0.721-0.43-1.179c0-0.499,0.172-0.931,0.518-1.297
		c0.345-0.365,0.825-0.548,1.44-0.548c0.52,0,0.919,0.159,1.2,0.477C281.541,31.38,281.682,31.765,281.682,32.216z"/>
	<path fill="#C1272D" d="M27.256,45.85c0,0.561-0.781,2.789-2.343,6.686c-1.563,3.896-2.343,6.118-2.343,6.665h-2.82
		c0-0.526-0.72-2.758-2.158-6.696c-1.439-3.938-2.159-6.156-2.159-6.655h3.25c0,0.499,0.458,2.27,1.374,5.312
		s1.374,4.768,1.374,5.178h0.174c0-0.396,0.459-2.061,1.379-4.994c0.919-2.933,1.379-4.765,1.379-5.496H27.256z"/>
	<path fill="#C1272D" d="M37.787,54.104c0,1.723-0.53,3.069-1.589,4.04S33.89,59.6,32.455,59.6c-1.367,0-2.54-0.442-3.517-1.328
		s-1.466-2.131-1.466-3.738c0-1.729,0.533-3.083,1.6-4.061s2.317-1.466,3.753-1.466c1.36,0,2.528,0.446,3.501,1.338
		C37.3,51.238,37.787,52.491,37.787,54.104z M35.11,54.412c0-0.991-0.232-1.823-0.697-2.497s-1.07-1.01-1.815-1.01
		c-0.725,0-1.314,0.314-1.769,0.943s-0.682,1.415-0.682,2.358c0,0.991,0.232,1.824,0.697,2.497c0.465,0.674,1.07,1.01,1.815,1.01
		c0.725,0,1.314-0.314,1.769-0.943C34.883,56.141,35.11,55.355,35.11,54.412z"/>
	<path fill="#C1272D" d="M48.799,59.19L46.4,59.272c-0.109-0.369-0.164-0.663-0.164-0.882h-0.164
		c-0.896,0.738-1.941,1.107-3.138,1.107c-1.128,0-1.978-0.296-2.548-0.887c-0.571-0.591-0.856-1.772-0.856-3.542
		c0-0.212,0.005-0.509,0.015-0.892c0.011-0.383,0.016-0.718,0.016-1.005c0-0.759-0.065-1.969-0.195-3.63l2.861-0.103
		c-0.109,1.313-0.164,2.557-0.164,3.732c0,1.675,0.125,2.803,0.374,3.384s0.74,0.872,1.472,0.872c0.8,0,1.49-0.191,2.071-0.574
		c0-3.596-0.041-6.036-0.123-7.321l2.769-0.092c-0.068,1.292-0.103,2.967-0.103,5.024C48.522,55.987,48.615,57.563,48.799,59.19z"/>
	<path fill="#C1272D" d="M57.956,56.401c0,2.051-1.518,3.076-4.553,3.076c-1.107,0-2.075-0.12-2.902-0.359l0.349-2.02
		c0.854,0.308,1.706,0.461,2.553,0.461c0.82,0,1.389-0.068,1.708-0.205c0.317-0.137,0.477-0.366,0.477-0.687
		c0-0.499-0.574-0.974-1.723-1.425c-1.005-0.396-1.736-0.786-2.194-1.169c-0.629-0.533-0.943-1.186-0.943-1.958
		c0-0.909,0.338-1.641,1.015-2.194s1.661-0.831,2.953-0.831c1.21,0,2.16,0.106,2.851,0.318l-0.349,2.03
		c-0.772-0.301-1.606-0.451-2.502-0.451c-1.094,0-1.641,0.28-1.641,0.841c0,0.287,0.116,0.518,0.349,0.692
		c0.232,0.175,0.708,0.395,1.425,0.662c0.991,0.362,1.712,0.735,2.164,1.118C57.635,54.846,57.956,55.546,57.956,56.401z"/>
	<path fill="#C1272D" d="M73.214,49.459c0,0.396-0.612,2.02-1.835,4.871s-1.835,4.474-1.835,4.871h-2.799
		c0-0.438-0.543-2.1-1.63-4.988s-1.63-4.473-1.63-4.753h2.994c0,0.308,0.336,1.496,1.01,3.563c0.673,2.068,1.01,3.283,1.01,3.645
		h0.133c0-0.328,0.321-1.477,0.964-3.445s0.964-3.223,0.964-3.763H73.214z"/>
	<path fill="#C1272D" d="M84.503,54.104c0,1.723-0.53,3.069-1.589,4.04S80.607,59.6,79.171,59.6c-1.367,0-2.54-0.442-3.517-1.328
		s-1.466-2.131-1.466-3.738c0-1.729,0.533-3.083,1.6-4.061s2.317-1.466,3.753-1.466c1.36,0,2.528,0.446,3.501,1.338
		C84.017,51.238,84.503,52.491,84.503,54.104z M81.827,54.412c0-0.991-0.232-1.823-0.697-2.497s-1.07-1.01-1.815-1.01
		c-0.725,0-1.314,0.314-1.769,0.943s-0.682,1.415-0.682,2.358c0,0.991,0.232,1.824,0.697,2.497c0.465,0.674,1.07,1.01,1.815,1.01
		c0.725,0,1.314-0.314,1.769-0.943C81.6,56.141,81.827,55.355,81.827,54.412z"/>
	<path fill="#C1272D" d="M95.516,59.19l-2.399,0.082c-0.109-0.369-0.164-0.663-0.164-0.882h-0.164
		c-0.896,0.738-1.941,1.107-3.138,1.107c-1.128,0-1.978-0.296-2.548-0.887c-0.571-0.591-0.856-1.772-0.856-3.542
		c0-0.212,0.005-0.509,0.015-0.892c0.011-0.383,0.016-0.718,0.016-1.005c0-0.759-0.065-1.969-0.195-3.63l2.861-0.103
		c-0.109,1.313-0.164,2.557-0.164,3.732c0,1.675,0.125,2.803,0.374,3.384s0.74,0.872,1.472,0.872c0.8,0,1.49-0.191,2.071-0.574
		c0-3.596-0.041-6.036-0.123-7.321l2.769-0.092c-0.068,1.292-0.103,2.967-0.103,5.024C95.239,55.987,95.332,57.563,95.516,59.19z"/>
	<path fill="#C1272D" d="M100.766,59.2h-2.799c0.103-2.345,0.154-4.884,0.154-7.619c0-2.666-0.106-4.932-0.318-6.798l2.963-0.164
		c-0.103,1.935-0.154,4.255-0.154,6.962C100.612,54.33,100.664,56.869,100.766,59.2z"/>
	<path fill="#C1272D" d="M112.025,53.284c0,0.349-0.021,0.803-0.062,1.364l-6.604,0.113c0.096,0.772,0.427,1.415,0.995,1.928
		s1.313,0.769,2.235,0.769c1.025,0,2.116-0.154,3.271-0.461l-0.205,1.989c-0.943,0.342-2.112,0.513-3.507,0.513
		c-1.764,0-3.116-0.496-4.056-1.487s-1.41-2.184-1.41-3.579c0-1.456,0.446-2.719,1.338-3.789c0.892-1.07,2.131-1.605,3.717-1.605
		c1.449,0,2.526,0.393,3.23,1.179S112.025,52.026,112.025,53.284z M109.625,53.191c0-1.572-0.67-2.358-2.01-2.358
		c-1.278,0-2.037,0.813-2.276,2.44L109.625,53.191z"/>
	<path fill="#C1272D" d="M121.284,57.149l-0.051,2.051h-7.752l0.144-1.958c0.342-0.308,1.145-1.258,2.41-2.851
		c1.354-1.702,2.03-2.676,2.03-2.922v-0.164c-1.627,0-3.124,0.058-4.491,0.174l0.051-2.02h7.444l-0.154,1.969
		c-0.431,0.472-1.2,1.429-2.307,2.871c-1.292,1.682-1.938,2.646-1.938,2.892v0.154C118.222,57.344,119.76,57.279,121.284,57.149z"/>
	<path fill="#C1272D" d="M130.615,59.2h-2.799c0.103-2.345,0.154-4.884,0.154-7.619c0-2.666-0.106-4.932-0.318-6.798l2.963-0.164
		c-0.103,1.935-0.154,4.255-0.154,6.962C130.461,54.33,130.513,56.869,130.615,59.2z"/>
	<path fill="#C1272D" d="M141.874,53.284c0,0.349-0.021,0.803-0.062,1.364l-6.604,0.113c0.096,0.772,0.427,1.415,0.995,1.928
		s1.313,0.769,2.235,0.769c1.025,0,2.116-0.154,3.271-0.461l-0.205,1.989c-0.943,0.342-2.112,0.513-3.507,0.513
		c-1.764,0-3.116-0.496-4.056-1.487s-1.41-2.184-1.41-3.579c0-1.456,0.446-2.719,1.338-3.789c0.892-1.07,2.131-1.605,3.717-1.605
		c1.449,0,2.526,0.393,3.23,1.179S141.874,52.026,141.874,53.284z M139.475,53.191c0-1.572-0.67-2.358-2.01-2.358
		c-1.278,0-2.037,0.813-2.276,2.44L139.475,53.191z"/>
	<path fill="#C1272D" d="M157.142,49.459c0,0.396-0.612,2.02-1.835,4.871s-1.835,4.474-1.835,4.871h-2.799
		c0-0.438-0.543-2.1-1.63-4.988s-1.63-4.473-1.63-4.753h2.994c0,0.308,0.336,1.496,1.01,3.563c0.673,2.068,1.01,3.283,1.01,3.645
		h0.133c0-0.328,0.321-1.477,0.964-3.445s0.964-3.223,0.964-3.763H157.142z"/>
	<path fill="#C1272D" d="M161.459,59.2h-2.758c0.096-1.415,0.144-3.039,0.144-4.871c0-1.818-0.116-3.411-0.349-4.778l2.953-0.297
		c-0.089,1.326-0.133,3.018-0.133,5.076C161.315,56.086,161.363,57.71,161.459,59.2z M161.931,46.362
		c0,0.465-0.159,0.872-0.477,1.22c-0.317,0.349-0.76,0.523-1.328,0.523c-0.479,0-0.853-0.15-1.123-0.451
		c-0.271-0.301-0.405-0.663-0.405-1.087c0-0.465,0.159-0.868,0.477-1.21c0.318-0.342,0.764-0.513,1.338-0.513
		c0.485,0,0.859,0.148,1.123,0.446C161.799,45.588,161.931,45.945,161.931,46.362z"/>
	<path fill="#C1272D" d="M170.749,56.401c0,2.051-1.518,3.076-4.553,3.076c-1.107,0-2.075-0.12-2.902-0.359l0.349-2.02
		c0.854,0.308,1.706,0.461,2.553,0.461c0.82,0,1.389-0.068,1.708-0.205c0.317-0.137,0.477-0.366,0.477-0.687
		c0-0.499-0.574-0.974-1.723-1.425c-1.005-0.396-1.736-0.786-2.194-1.169c-0.629-0.533-0.943-1.186-0.943-1.958
		c0-0.909,0.338-1.641,1.015-2.194s1.661-0.831,2.953-0.831c1.21,0,2.16,0.106,2.851,0.318l-0.349,2.03
		c-0.772-0.301-1.606-0.451-2.502-0.451c-1.094,0-1.641,0.28-1.641,0.841c0,0.287,0.116,0.518,0.349,0.692
		c0.232,0.175,0.708,0.395,1.425,0.662c0.991,0.362,1.712,0.735,2.164,1.118C170.428,54.846,170.749,55.546,170.749,56.401z"/>
	<path fill="#C1272D" d="M175.497,59.2h-2.758c0.096-1.415,0.144-3.039,0.144-4.871c0-1.818-0.116-3.411-0.349-4.778l2.953-0.297
		c-0.089,1.326-0.133,3.018-0.133,5.076C175.353,56.086,175.401,57.71,175.497,59.2z M175.968,46.362
		c0,0.465-0.159,0.872-0.477,1.22c-0.317,0.349-0.76,0.523-1.328,0.523c-0.479,0-0.853-0.15-1.123-0.451
		c-0.271-0.301-0.405-0.663-0.405-1.087c0-0.465,0.159-0.868,0.477-1.21c0.318-0.342,0.764-0.513,1.338-0.513
		c0.485,0,0.859,0.148,1.123,0.446C175.836,45.588,175.968,45.945,175.968,46.362z"/>
	<path fill="#C1272D" d="M183.895,57.283l-0.174,1.825c-0.479,0.205-1.08,0.308-1.805,0.308c-1.107,0-1.941-0.301-2.502-0.902
		s-0.841-1.76-0.841-3.476c0-1.032,0.007-2.201,0.021-3.507c-0.349,0-0.82,0.021-1.415,0.062l0.072-2.02
		c0.526,0.041,1.015,0.062,1.466,0.062c0.007-0.362,0.034-1.316,0.082-2.861l2.43-0.297c-0.103,1.36-0.154,2.413-0.154,3.158
		c0.574,0,1.432-0.027,2.574-0.082l-0.082,2.041c-1.039-0.041-1.883-0.062-2.533-0.062c-0.014,0.909-0.021,1.863-0.021,2.861
		c0,1.217,0.123,2.032,0.369,2.446s0.68,0.62,1.302,0.62C183.061,57.457,183.464,57.399,183.895,57.283z"/>
	<path fill="#C1272D" d="M194.343,53.284c0,0.349-0.021,0.803-0.062,1.364l-6.604,0.113c0.096,0.772,0.427,1.415,0.995,1.928
		s1.313,0.769,2.235,0.769c1.025,0,2.116-0.154,3.271-0.461l-0.205,1.989c-0.943,0.342-2.112,0.513-3.507,0.513
		c-1.764,0-3.116-0.496-4.056-1.487s-1.41-2.184-1.41-3.579c0-1.456,0.446-2.719,1.338-3.789c0.892-1.07,2.131-1.605,3.717-1.605
		c1.449,0,2.526,0.393,3.23,1.179S194.343,52.026,194.343,53.284z M191.944,53.191c0-1.572-0.67-2.358-2.01-2.358
		c-1.278,0-2.037,0.813-2.276,2.44L191.944,53.191z"/>
	<path fill="#C1272D" d="M202.957,49.459l-0.596,2.399c-0.506-0.205-1.018-0.308-1.538-0.308c-1.005,0-1.668,0.451-1.989,1.354
		c0,2.728,0.021,4.826,0.062,6.296h-2.728c0.116-2.058,0.174-3.739,0.174-5.045c0-1.627-0.171-3.168-0.513-4.625l2.615-0.287
		c0.116,0.752,0.174,1.193,0.174,1.323h0.164c0.629-0.964,1.466-1.446,2.512-1.446C201.787,49.121,202.342,49.233,202.957,49.459z"
		/>
	<path fill="#C1272D" d="M215.805,56.401c0,2.051-1.518,3.076-4.553,3.076c-1.107,0-2.074-0.12-2.902-0.359l0.35-2.02
		c0.854,0.308,1.705,0.461,2.553,0.461c0.82,0,1.389-0.068,1.707-0.205s0.477-0.366,0.477-0.687c0-0.499-0.574-0.974-1.723-1.425
		c-1.004-0.396-1.736-0.786-2.193-1.169c-0.629-0.533-0.943-1.186-0.943-1.958c0-0.909,0.338-1.641,1.015-2.194
		s1.661-0.831,2.953-0.831c1.21,0,2.16,0.106,2.851,0.318l-0.349,2.03c-0.772-0.301-1.606-0.451-2.502-0.451
		c-1.094,0-1.641,0.28-1.641,0.841c0,0.287,0.116,0.518,0.349,0.692c0.232,0.175,0.707,0.395,1.426,0.662
		c0.99,0.362,1.712,0.735,2.163,1.118C215.483,54.846,215.805,55.546,215.805,56.401z"/>
	<path fill="#C1272D" d="M226.551,53.284c0,0.349-0.021,0.803-0.062,1.364l-6.604,0.113c0.096,0.772,0.427,1.415,0.995,1.928
		c0.566,0.513,1.313,0.769,2.234,0.769c1.025,0,2.116-0.154,3.271-0.461l-0.205,1.989c-0.943,0.342-2.112,0.513-3.507,0.513
		c-1.764,0-3.116-0.496-4.056-1.487s-1.41-2.184-1.41-3.579c0-1.456,0.446-2.719,1.339-3.789c0.892-1.07,2.131-1.605,3.717-1.605
		c1.449,0,2.526,0.393,3.229,1.179C226.199,51.004,226.551,52.026,226.551,53.284z M224.151,53.191c0-1.572-0.67-2.358-2.01-2.358
		c-1.278,0-2.037,0.813-2.276,2.44L224.151,53.191z"/>
	<path fill="#C1272D" d="M237.563,59.19l-2.399,0.082C235.055,58.903,235,58.609,235,58.39h-0.164
		c-0.896,0.738-1.941,1.107-3.138,1.107c-1.128,0-1.978-0.296-2.548-0.887c-0.571-0.591-0.856-1.772-0.856-3.542
		c0-0.212,0.005-0.509,0.015-0.892c0.012-0.383,0.016-0.718,0.016-1.005c0-0.759-0.064-1.969-0.194-3.63l2.86-0.103
		c-0.109,1.313-0.164,2.557-0.164,3.732c0,1.675,0.125,2.803,0.375,3.384c0.249,0.581,0.74,0.872,1.471,0.872
		c0.801,0,1.49-0.191,2.072-0.574c0-3.596-0.041-6.036-0.123-7.321l2.768-0.092c-0.068,1.292-0.102,2.967-0.102,5.024
		C237.287,55.987,237.379,57.563,237.563,59.19z"/>
	<path fill="#C1272D" d="M242.813,59.2h-2.8c0.104-2.345,0.154-4.884,0.154-7.619c0-2.666-0.105-4.932-0.318-6.798l2.964-0.164
		c-0.103,1.935-0.153,4.255-0.153,6.962C242.66,54.33,242.711,56.869,242.813,59.2z"/>
	<path fill="#C1272D" d="M259.6,54.104c0,1.723-0.53,3.069-1.59,4.04s-2.307,1.456-3.742,1.456c-1.367,0-2.54-0.442-3.518-1.328
		s-1.467-2.131-1.467-3.738c0-1.729,0.533-3.083,1.6-4.061s2.318-1.466,3.754-1.466c1.359,0,2.527,0.446,3.501,1.338
		C259.112,51.238,259.6,52.491,259.6,54.104z M256.923,54.412c0-0.991-0.232-1.823-0.697-2.497s-1.069-1.01-1.815-1.01
		c-0.725,0-1.314,0.314-1.769,0.943s-0.682,1.415-0.682,2.358c0,0.991,0.232,1.824,0.697,2.497c0.465,0.674,1.069,1.01,1.815,1.01
		c0.725,0,1.313-0.314,1.769-0.943C256.695,56.141,256.923,55.355,256.923,54.412z"/>
	<path fill="#C1272D" d="M270.611,59.19l-2.398,0.082c-0.11-0.369-0.164-0.663-0.164-0.882h-0.164
		c-0.896,0.738-1.942,1.107-3.139,1.107c-1.127,0-1.977-0.296-2.548-0.887c-0.571-0.591-0.856-1.772-0.856-3.542
		c0-0.212,0.006-0.509,0.016-0.892c0.011-0.383,0.016-0.718,0.016-1.005c0-0.759-0.064-1.969-0.195-3.63l2.861-0.103
		c-0.109,1.313-0.164,2.557-0.164,3.732c0,1.675,0.125,2.803,0.374,3.384c0.25,0.581,0.74,0.872,1.472,0.872
		c0.8,0,1.49-0.191,2.071-0.574c0-3.596-0.041-6.036-0.123-7.321l2.769-0.092c-0.068,1.292-0.103,2.967-0.103,5.024
		C270.335,55.987,270.428,57.563,270.611,59.19z"/>
	<path fill="#C1272D" d="M286.26,53.284c0,0.349-0.021,0.803-0.062,1.364l-6.604,0.113c0.096,0.772,0.427,1.415,0.995,1.928
		c0.566,0.513,1.313,0.769,2.234,0.769c1.025,0,2.116-0.154,3.271-0.461l-0.205,1.989c-0.943,0.342-2.112,0.513-3.507,0.513
		c-1.764,0-3.115-0.496-4.056-1.487c-0.939-0.991-1.41-2.184-1.41-3.579c0-1.456,0.446-2.719,1.339-3.789
		c0.892-1.07,2.131-1.605,3.717-1.605c1.449,0,2.525,0.393,3.229,1.179S286.26,52.026,286.26,53.284z M283.86,53.191
		c0-1.572-0.67-2.358-2.01-2.358c-1.278,0-2.037,0.813-2.276,2.44L283.86,53.191z"/>
	<path fill="#C1272D" d="M297.375,59.2h-2.729c0.15-1.729,0.227-3.479,0.227-5.25c0-1.073-0.159-1.801-0.478-2.184
		c-0.317-0.383-0.802-0.574-1.45-0.574c-0.779,0-1.518,0.267-2.215,0.8c0.033,2.666,0.051,5.069,0.051,7.208h-2.758
		c0.123-2.14,0.184-3.821,0.184-5.045c0-1.634-0.167-3.175-0.502-4.625l2.625-0.287l0.174,1.087h0.164
		c0.937-0.807,2.014-1.21,3.23-1.21c1.053,0,1.896,0.248,2.527,0.744c0.633,0.496,0.949,1.41,0.949,2.743
		c0,0.198-0.009,0.463-0.026,0.794c-0.017,0.332-0.025,0.672-0.025,1.021C297.323,55.345,297.34,56.938,297.375,59.2z"/>
	<path fill="#C1272D" d="M310.623,44.65l-0.369,1.825c-0.389-0.096-0.789-0.144-1.199-0.144c-0.492,0-0.83,0.226-1.016,0.677
		c-0.184,0.451-0.276,1.326-0.276,2.625c0.608,0,1.446-0.027,2.513-0.082l-0.082,2.041c-1.066-0.041-1.877-0.062-2.431-0.062
		c0,2.577,0.052,5.134,0.153,7.67h-2.707c0.104-2.502,0.154-5.059,0.154-7.67c-0.403,0-1.002,0.021-1.795,0.062l0.082-2.03
		c0.725,0.048,1.296,0.072,1.713,0.072c0-3.438,1.155-5.158,3.466-5.158C309.52,44.476,310.117,44.534,310.623,44.65z"/>
	<path fill="#C1272D" d="M320.148,59.19l-2.42,0.082c-0.109-0.287-0.164-0.547-0.164-0.779h-0.133
		c-0.752,0.643-1.768,0.964-3.045,0.964c-0.855,0-1.564-0.238-2.128-0.712c-0.564-0.475-0.847-1.106-0.847-1.892
		c0-1.039,0.439-1.89,1.318-2.553c0.878-0.663,2.418-1.015,4.619-1.056c0.014-0.123,0.021-0.239,0.021-0.349
		c0-0.738-0.178-1.225-0.533-1.461c-0.355-0.235-1.009-0.354-1.958-0.354c-1.033,0-2.041,0.137-3.025,0.41l0.226-1.887
		c0.93-0.321,2.242-0.482,3.938-0.482c1.237,0,2.192,0.26,2.866,0.779c0.673,0.52,1.01,1.429,1.01,2.728
		c0,0.287-0.012,0.81-0.036,1.569c-0.023,0.759-0.036,1.265-0.036,1.518C319.82,57.129,319.93,58.288,320.148,59.19z
		 M317.411,57.057c-0.041-0.923-0.062-1.719-0.062-2.389c-2.331,0-3.496,0.591-3.496,1.774c0,0.813,0.512,1.22,1.537,1.22
		C316.197,57.662,316.871,57.46,317.411,57.057z"/>
	<path fill="#C1272D" d="M337.314,59.2h-2.717c0.144-1.729,0.215-3.411,0.215-5.045c0-1.224-0.157-2.023-0.471-2.399
		c-0.315-0.376-0.817-0.564-1.508-0.564c-0.554,0-1.139,0.202-1.754,0.605c-0.027,0.854-0.041,1.62-0.041,2.297
		c0,1.142,0.021,2.844,0.063,5.106h-2.748c0.149-1.873,0.225-3.695,0.225-5.465c0-0.916-0.128-1.569-0.384-1.958
		c-0.257-0.39-0.788-0.584-1.595-0.584c-0.745,0-1.363,0.25-1.855,0.749c0.033,2.707,0.051,5.127,0.051,7.26h-2.758
		c0.123-2.133,0.184-3.814,0.184-5.045c0-1.6-0.167-3.141-0.502-4.625l2.625-0.287l0.174,1.087h0.164
		c0.889-0.807,1.891-1.21,3.005-1.21c1.395,0,2.375,0.403,2.942,1.21h0.164c1.012-0.807,2.014-1.21,3.005-1.21
		c1.162,0,2.039,0.251,2.63,0.753c0.592,0.503,0.887,1.414,0.887,2.733c0,0.13-0.007,0.378-0.02,0.744
		c-0.015,0.366-0.021,0.613-0.021,0.743C337.273,55.235,337.287,56.938,337.314,59.2z"/>
	<path fill="#C1272D" d="M342.504,59.2h-2.759c0.096-1.415,0.144-3.039,0.144-4.871c0-1.818-0.116-3.411-0.349-4.778l2.953-0.297
		c-0.089,1.326-0.134,3.018-0.134,5.076C342.359,56.086,342.407,57.71,342.504,59.2z M342.975,46.362
		c0,0.465-0.158,0.872-0.477,1.22c-0.317,0.349-0.761,0.523-1.328,0.523c-0.479,0-0.853-0.15-1.122-0.451
		c-0.271-0.301-0.405-0.663-0.405-1.087c0-0.465,0.159-0.868,0.477-1.21c0.318-0.342,0.764-0.513,1.338-0.513
		c0.485,0,0.86,0.148,1.123,0.446C342.844,45.588,342.975,45.945,342.975,46.362z"/>
	<path fill="#C1272D" d="M347.886,59.2h-2.8c0.104-2.345,0.154-4.884,0.154-7.619c0-2.666-0.106-4.932-0.318-6.798l2.964-0.164
		c-0.103,1.935-0.153,4.255-0.153,6.962C347.732,54.33,347.783,56.869,347.886,59.2z"/>
	<path fill="#C1272D" d="M353.3,59.2h-2.8c0.104-2.345,0.154-4.884,0.154-7.619c0-2.666-0.106-4.932-0.318-6.798l2.964-0.164
		c-0.103,1.935-0.153,4.255-0.153,6.962C353.146,54.33,353.197,56.869,353.3,59.2z"/>
	<path fill="#C1272D" d="M364.559,53.284c0,0.349-0.021,0.803-0.062,1.364l-6.604,0.113c0.096,0.772,0.427,1.415,0.995,1.928
		c0.566,0.513,1.313,0.769,2.234,0.769c1.025,0,2.116-0.154,3.271-0.461l-0.205,1.989c-0.943,0.342-2.112,0.513-3.507,0.513
		c-1.764,0-3.115-0.496-4.056-1.487c-0.939-0.991-1.41-2.184-1.41-3.579c0-1.456,0.446-2.719,1.339-3.789
		c0.892-1.07,2.131-1.605,3.717-1.605c1.449,0,2.525,0.393,3.229,1.179S364.559,52.026,364.559,53.284z M362.159,53.191
		c0-1.572-0.67-2.358-2.01-2.358c-1.278,0-2.037,0.813-2.276,2.44L362.159,53.191z"/>
	<path fill="#C1272D" d="M372.248,48.608c0,1.477-0.953,2.656-2.86,3.538l-0.216,1.548h-1.363l-0.39-2.184
		c1.47-0.431,2.204-1.142,2.204-2.133c0-1.21-1.268-1.853-3.804-1.928l0.235-1.938c2.126,0,3.69,0.224,4.691,0.671
		C371.748,46.631,372.248,47.439,372.248,48.608z M370.105,57.416c0,0.499-0.173,0.938-0.518,1.317
		c-0.346,0.38-0.822,0.569-1.431,0.569c-0.513,0-0.913-0.164-1.2-0.492s-0.43-0.721-0.43-1.179c0-0.499,0.172-0.931,0.518-1.297
		c0.345-0.365,0.825-0.548,1.44-0.548c0.52,0,0.919,0.159,1.2,0.477C369.965,56.58,370.105,56.965,370.105,57.416z"/>
</g>
<image overflow="visible" width="3008" height="2000" xlink:href="../../../../../../Desktop/2518653159_e1617ca9e2_o.jpg"  transform="matrix(0.1611 0 0 0.1601 -33.0322 80.5122)">
</image>
<circle fill="none" stroke="#E41818" stroke-width="8" stroke-miterlimit="10" cx="86.083" cy="506.477" r="34.879"/>
<g>
	
		<rect x="83.146" y="487.295" transform="matrix(-0.7071 0.7071 -0.7071 -0.7071 504.5629 802.5509)" fill="#E52321" stroke="#E41818" stroke-width="4" stroke-miterlimit="10" width="5.871" height="36.94"/>
	
		<rect x="83.147" y="487.295" transform="matrix(0.7071 0.7071 -0.7071 0.7071 382.843 87.2655)" fill="#E52321" stroke="#E41818" stroke-width="4" stroke-miterlimit="10" width="5.871" height="36.94"/>
</g>
<ellipse fill="none" stroke="#FBAE17" stroke-width="8" stroke-miterlimit="10" cx="195.22" cy="516.661" rx="26.78" ry="26.032"/>
<path fill="#FBAE17" stroke="#FBAE17" stroke-width="2" stroke-miterlimit="10" d="M211.611,512.346
	c-0.289-0.852-1.023-1.474-1.904-1.607l-8.594-1.318l-3.735-8.005c-0.39-0.843-1.234-1.378-2.158-1.378
	c-0.922,0-1.765,0.535-2.16,1.378l-3.735,8.005l-8.595,1.318c-0.883,0.135-1.614,0.757-1.899,1.607
	c-0.284,0.854-0.072,1.795,0.555,2.436l6.3,6.491l-1.464,9c-0.148,0.911,0.234,1.817,0.976,2.351
	c0.411,0.29,0.896,0.438,1.376,0.438c0.395,0,0.792-0.098,1.151-0.301l7.491-4.163l7.492,4.163c0.363,0.203,0.76,0.301,1.155,0.301
	c0.482,0,0.962-0.147,1.373-0.438c0.745-0.533,1.126-1.441,0.98-2.351l-1.462-9l6.3-6.491
	C211.678,514.141,211.893,513.199,211.611,512.346z"/>
<circle fill="none" stroke="#71B84C" stroke-width="8" stroke-miterlimit="10" cx="303.568" cy="505.766" r="38.169"/>
<path fill="#73B84D" d="M293.447,490.802h0.466c2.415,0.063,4.821,0.806,6.794,2.21c1.125,0.796,2.107,1.794,2.861,2.948
	c1.316-2.02,3.329-3.548,5.583-4.382c1.306-0.49,2.694-0.731,4.087-0.776h0.465c1.722,0.051,3.443,0.406,5.008,1.139
	c1.871,0.859,3.526,2.218,4.669,3.935c1.068,1.565,1.65,3.444,1.701,5.336v0.378c-0.037,1.672-0.369,3.342-1.044,4.875
	c-0.996,2.294-2.633,4.249-4.447,5.945c-1.205,1.172-2.51,2.235-3.813,3.291c-2.697,2.216-5.471,4.356-7.93,6.842
	c-1.462,1.414-2.772,2.978-3.977,4.612h-0.588c-1.275-1.626-2.629-3.195-4.139-4.609c-2.996-2.939-6.406-5.404-9.619-8.095
	c-0.724-0.639-1.469-1.254-2.148-1.942c-1.576-1.487-2.992-3.188-3.955-5.143c-0.898-1.792-1.33-3.793-1.367-5.791v-0.392
	c0.047-1.117,0.241-2.234,0.649-3.279c0.913-2.418,2.788-4.421,5.058-5.629C289.499,491.321,291.476,490.854,293.447,490.802z"/>
</svg>
