<?xml version="1.0" encoding="utf-8"?>
<!-- Generator: Adobe Illustrator 16.0.0, SVG Export Plug-In . SVG Version: 6.00 Build 0)  -->
<!DOCTYPE svg PUBLIC "-//W3C//DTD SVG 1.1//EN" "http://www.w3.org/Graphics/SVG/1.1/DTD/svg11.dtd">
<svg version="1.1" xmlns="http://www.w3.org/2000/svg" xmlns:xlink="http://www.w3.org/1999/xlink" x="0px" y="0px" width="512px"
	 height="512px" viewBox="0 0 512 512" enable-background="new 0 0 512 512" xml:space="preserve">
<g id="Calque_2" display="none">
	<rect x="-160.5" y="-69.5" display="inline" fill="#EF0F0F" stroke="#000000" stroke-miterlimit="10" width="842" height="675"/>
</g>
<g id="Capa_1">
	<g>
		<g>
			<path fill="#FFFFFF" d="M449.496,61.179H62.61C28.073,61.179,0,89.253,0,123.789v264.422c0,34.536,28.073,62.609,62.609,62.609
				h386.78c34.536,0,62.61-28.073,62.61-62.609V123.895C512.106,89.359,484.032,61.179,449.496,61.179z M483.502,388.211
				c0,18.751-15.255,34.006-34.006,34.006H62.61c-18.751,0-34.006-15.255-34.006-34.006V123.895
				c0-18.751,15.255-34.006,34.006-34.006h386.78c18.751,0,34.007,15.255,34.007,34.006v264.316H483.502z"/>
			<path fill="#FFFFFF" d="M322.9,252.716l125.22-112.294c5.826-5.297,6.355-14.302,1.059-20.234
				c-5.297-5.827-14.302-6.356-20.234-1.059L256.265,274.115l-33.688-30.086c-0.105-0.106-0.212-0.212-0.212-0.318
				c-0.741-0.741-1.483-1.377-2.331-2.013L82.949,119.021c-5.933-5.297-14.938-4.767-20.234,1.166s-4.767,14.938,1.166,20.234
				l126.702,113.248L64.41,371.791c-5.721,5.402-6.038,14.407-0.636,20.234c2.86,2.966,6.675,4.555,10.488,4.555
				c3.496,0,6.992-1.271,9.746-3.813L212.088,272.95l34.748,31.04c2.755,2.437,6.145,3.602,9.534,3.602
				c3.391,0,6.887-1.271,9.535-3.707l35.701-31.994l127.338,120.981c2.754,2.648,6.355,3.92,9.852,3.92
				c3.814,0,7.521-1.483,10.382-4.449c5.403-5.721,5.191-14.831-0.529-20.234L322.9,252.716z"/>
		</g>
	</g>
</g>
</svg>
