<?xml version="1.0" encoding="utf-8"?>
<!-- Generator: Adobe Illustrator 16.0.0, SVG Export Plug-In . SVG Version: 6.00 Build 0)  -->
<!DOCTYPE svg PUBLIC "-//W3C//DTD SVG 1.1//EN" "http://www.w3.org/Graphics/SVG/1.1/DTD/svg11.dtd">
<svg version="1.1" id="Calque_1" xmlns="http://www.w3.org/2000/svg" xmlns:xlink="http://www.w3.org/1999/xlink" x="0px" y="0px"
	 width="106.095px" height="104.325px" viewBox="0 0 106.095 104.325" enable-background="new 0 0 106.095 104.325"
	 xml:space="preserve">
<ellipse fill="none" stroke="#FBAE17" stroke-width="8" stroke-miterlimit="10" cx="53.818" cy="52.297" rx="48.378" ry="47.027"/>
<path fill="#FBAE17" stroke="#FBAE17" stroke-width="2" stroke-miterlimit="10" d="M83.428,44.5
	c-0.521-1.538-1.848-2.661-3.44-2.904l-15.524-2.381l-6.747-14.461c-0.705-1.523-2.229-2.489-3.899-2.489
	c-1.665,0-3.187,0.966-3.901,2.489L43.17,39.215l-15.527,2.381c-1.594,0.244-2.915,1.368-3.43,2.904
	c-0.513,1.544-0.13,3.243,1.002,4.4l11.38,11.727L33.95,76.886c-0.268,1.645,0.424,3.282,1.764,4.245
	c0.741,0.526,1.617,0.791,2.486,0.791c0.714,0,1.431-0.175,2.08-0.543l13.533-7.521l13.534,7.521
	c0.657,0.368,1.372,0.543,2.086,0.543c0.871,0,1.739-0.265,2.481-0.791c1.346-0.963,2.034-2.603,1.771-4.245l-2.641-16.259
	L82.425,48.9C83.549,47.743,83.936,46.043,83.428,44.5z"/>
<circle fill="#EAEAE8" stroke="#71B84C" stroke-width="8" stroke-miterlimit="10" cx="235.44" cy="34.041" r="71.283"/>
<path fill="#73B84D" d="M216.54,6.095h0.869c4.51,0.118,9.004,1.505,12.688,4.127c2.1,1.487,3.937,3.349,5.343,5.507
	c2.459-3.773,6.218-6.627,10.427-8.184c2.438-0.915,5.032-1.367,7.632-1.45h0.869c3.216,0.095,6.432,0.759,9.353,2.126
	c3.493,1.605,6.585,4.141,8.719,7.349c1.995,2.923,3.082,6.431,3.176,9.965v0.704c-0.068,3.123-0.688,6.243-1.948,9.105
	c-1.861,4.285-4.918,7.936-8.307,11.104c-2.25,2.188-4.685,4.174-7.119,6.146c-5.038,4.139-10.216,8.137-14.81,12.778
	c-2.73,2.64-5.177,5.56-7.426,8.614h-1.099c-2.381-3.037-4.909-5.967-7.727-8.609c-5.595-5.49-11.965-10.093-17.964-15.117
	c-1.353-1.193-2.745-2.342-4.014-3.627c-2.944-2.779-5.588-5.955-7.385-9.605c-1.677-3.346-2.484-7.083-2.553-10.815v-0.73
	c0.086-2.087,0.449-4.174,1.212-6.125c1.705-4.517,5.207-8.256,9.446-10.513C209.166,7.065,212.856,6.192,216.54,6.095z"/>
</svg>
