<?xml version="1.0" encoding="utf-8"?>
<!-- Generator: Adobe Illustrator 16.0.0, SVG Export Plug-In . SVG Version: 6.00 Build 0)  -->
<!DOCTYPE svg PUBLIC "-//W3C//DTD SVG 1.1//EN" "http://www.w3.org/Graphics/SVG/1.1/DTD/svg11.dtd">
<svg version="1.1" xmlns="http://www.w3.org/2000/svg" xmlns:xlink="http://www.w3.org/1999/xlink" x="0px" y="0px" width="425.5px"
	 height="371px" viewBox="0 53.5 425.5 371" enable-background="new 0 53.5 425.5 371" xml:space="preserve">
<g id="Calque_2" display="none">
	<rect x="-127.5" y="-93.5" display="inline" fill="#E81010" stroke="#000000" stroke-miterlimit="10" width="754" height="705"/>
</g>
<g id="Capa_1">
	<g>
		<path fill="#FFFFFF" d="M96.933,247.064c12.583,19.702,23.889,34.07,20.561,57.099c-3.218,22.302-1.896,45.728-12.936,66.224
			c-7.824,14.545,5.068,15.162,11.613,20.781c25.807,22.302,58.973,13.311,88.305,20.34c22.038,5.289,54.434,26.622,60.56-21.707
			c1.102-8.682,14.566-11.15,24.902-11.503c16.528-0.683,32.064,3.019,47.447,8.573c21.816,7.822,58.598-7.779,67.457-27.768
			c3.725-8.441-0.265-9.697-7.118-13.135c-18.247-9.058-17.146-23.471-12.672-41.871c3.835-16.021,6.876-39.382-13.156-46.742
			c-18.38-6.766-6.699-13.333-2.557-17.3c19.812-19.327,31.448-42.224,43.37-67.435c12.121-25.563-0.242-26.048-15.272-30.434
			c-55.578-16.264-106.684-41.298-153.205-75.854c-17.718-13.2-32.946-8.991-34.246,12.937
			c-1.301,21.398-9.741,28.825-29.288,28.979c-7.735,0.11-15.36,2.424-18.864,10.379c-11.283,25.718-27.194,14.126-41.078,4.121
			c-7.272-5.289-12.385-12.627-21.972-6.083c-10.512,7.14-4.055,14.303-0.021,22.038c11.701,22.346,6.303,26.093-19.151,24.66
			c-5.267-0.331-9.608-2.292-13.641-4.54c-6.766-3.747-12.738-8.044-20.937-5.818c-7.294,1.785-14.5,4.143-21.883,5.201
			c-9.939,1.433-23.426-3.482-23.14,14.104c0.242,15.074,4.584,25.982,22.016,30.324C50.852,209.82,76.966,215.771,96.933,247.064z"
			/>
		<path fill="#FFFFFF" d="M482.635,410.825c-7.537,10.622-4.077,22.412,2.005,33.034c3.306,5.818,8.044,11.526,15.118,8.419
			c11.481-5.224,11.481-17.123,11.613-27.481c0.11-10.159,3.46-21.244-6.435-34.025
			C496.563,398.065,488.012,403.289,482.635,410.825z"/>
	</g>
</g>
</svg>
