<?xml version="1.0" encoding="utf-8"?>
<!-- Generator: Adobe Illustrator 16.0.0, SVG Export Plug-In . SVG Version: 6.00 Build 0)  -->
<!DOCTYPE svg PUBLIC "-//W3C//DTD SVG 1.1//EN" "http://www.w3.org/Graphics/SVG/1.1/DTD/svg11.dtd">
<svg version="1.1" id="Calque_1" xmlns="http://www.w3.org/2000/svg" xmlns:xlink="http://www.w3.org/1999/xlink" x="0px" y="0px"
	 width="72.503px" height="70.419px" viewBox="27.693 31.333 72.503 70.419" enable-background="new 27.693 31.333 72.503 70.419"
	 xml:space="preserve">
<g id="Layer_2">
</g>
<g id="Capa_1">
	<g>
		<path fill="#FFFFFF" d="M44.59,68.647c2.086,3.753,3.961,6.491,3.41,10.879c-0.534,4.25-0.314,8.712-2.146,12.617
			c-1.297,2.771,0.841,2.889,1.926,3.958c4.279,4.25,9.779,2.537,14.643,3.874c3.655,1.01,9.027,5.074,10.042-4.135
			c0.185-1.653,2.416-2.124,4.13-2.191c2.74-0.129,5.317,0.574,7.868,1.634c3.618,1.491,9.718-1.482,11.187-5.29
			c0.617-1.609-0.044-1.847-1.181-2.502c-3.024-1.727-2.843-4.472-2.101-7.979c0.636-3.052,1.141-7.501-2.182-8.903
			c-3.049-1.29-1.111-2.541-0.425-3.298c3.286-3.681,5.216-8.043,7.193-12.847c2.009-4.871-0.041-4.961-2.533-5.797
			c-9.216-3.099-17.692-7.869-25.406-14.452c-2.938-2.516-5.464-1.714-5.679,2.464c-0.216,4.077-1.615,5.492-4.857,5.522
			c-1.283,0.02-2.547,0.46-3.128,1.976c-1.871,4.9-4.51,2.691-6.812,0.785c-1.207-1.008-2.055-2.405-3.645-1.157
			c-1.743,1.358-0.672,2.724-0.003,4.198c1.94,4.258,1.045,4.97-3.176,4.697c-0.873-0.062-1.593-0.436-2.262-0.865
			c-1.122-0.712-2.112-1.532-3.472-1.107c-1.21,0.34-2.405,0.79-3.629,0.991c-1.648,0.272-3.885-0.663-3.837,2.687
			c0.04,2.872,0.76,4.951,3.651,5.778C36.948,61.552,41.279,62.685,44.59,68.647z"/>
		<path fill="#FFFFFF" d="M108.552,99.848c-1.25,2.023-0.677,4.269,0.332,6.292c0.548,1.109,1.335,2.196,2.507,1.605
			c1.904-0.996,1.904-3.263,1.926-5.236c0.019-1.935,0.574-4.049-1.067-6.481C110.861,97.416,109.442,98.41,108.552,99.848z"/>
	</g>
</g>
</svg>
