<?xml version="1.0" encoding="utf-8"?>
<!-- Generator: Adobe Illustrator 16.0.0, SVG Export Plug-In . SVG Version: 6.00 Build 0)  -->
<!DOCTYPE svg PUBLIC "-//W3C//DTD SVG 1.1//EN" "http://www.w3.org/Graphics/SVG/1.1/DTD/svg11.dtd">
<svg version="1.1" id="Calque_1" xmlns="http://www.w3.org/2000/svg" xmlns:xlink="http://www.w3.org/1999/xlink" x="0px" y="0px"
	 width="151.221px" height="151.332px" viewBox="0 0 151.221 151.332" enable-background="new 0 0 151.221 151.332"
	 xml:space="preserve">
<circle fill="none" stroke="#71B84C" stroke-width="8" stroke-miterlimit="10" cx="75.662" cy="75.817" r="71.283"/>
<path fill="#73B84D" d="M56.761,47.871h0.869c4.51,0.118,9.004,1.505,12.688,4.127c2.1,1.487,3.937,3.349,5.343,5.507
	c2.459-3.773,6.218-6.627,10.427-8.184c2.438-0.915,5.032-1.367,7.632-1.45h0.869c3.216,0.095,6.432,0.759,9.353,2.126
	c3.493,1.605,6.585,4.141,8.719,7.349c1.995,2.923,3.082,6.431,3.176,9.965v0.704c-0.068,3.123-0.688,6.243-1.948,9.105
	c-1.861,4.285-4.918,7.936-8.307,11.104c-2.25,2.188-4.685,4.174-7.119,6.146c-5.038,4.139-10.216,8.137-14.81,12.778
	c-2.73,2.64-5.177,5.56-7.426,8.614h-1.099c-2.381-3.037-4.909-5.967-7.727-8.609c-5.595-5.49-11.965-10.093-17.964-15.117
	c-1.353-1.193-2.745-2.342-4.014-3.627c-2.944-2.779-5.588-5.955-7.385-9.605c-1.677-3.346-2.484-7.083-2.553-10.815v-0.73
	c0.086-2.087,0.449-4.174,1.212-6.125c1.705-4.517,5.207-8.256,9.446-10.513C49.387,48.841,53.078,47.968,56.761,47.871z"/>
</svg>
