<?xml version="1.0" encoding="utf-8"?>
<!-- Generator: Adobe Illustrator 16.0.0, SVG Export Plug-In . SVG Version: 6.00 Build 0)  -->
<!DOCTYPE svg PUBLIC "-//W3C//DTD SVG 1.1//EN" "http://www.w3.org/Graphics/SVG/1.1/DTD/svg11.dtd">
<svg version="1.1" xmlns="http://www.w3.org/2000/svg" xmlns:xlink="http://www.w3.org/1999/xlink" x="0px" y="0px" width="512px"
	 height="518px" viewBox="0 -2.5 512 518" enable-background="new 0 -2.5 512 518" xml:space="preserve">
<g id="Calque_2" display="none">
	<rect x="-131.5" y="-61.5" display="inline" fill="#E01919" stroke="#000000" stroke-miterlimit="10" width="780" height="706"/>
</g>
<g id="Capa_1">
	<g>
		<path fill="#FFFFFF" d="M362.337,456.747l-7.153,29.244c-21.462,8.471-38.605,14.918-51.371,19.351
			c-12.78,4.446-27.629,6.658-44.548,6.658c-25.981,0-46.19-6.364-60.604-19.007c-14.413-12.692-21.622-28.776-21.622-48.287
			c0-7.554,0.522-15.322,1.61-23.237c1.097-7.926,2.841-16.85,5.227-26.826l26.821-94.933c2.386-9.09,4.414-17.703,6.039-25.849
			c1.647-8.094,2.441-15.541,2.441-22.246c0-12.123-2.511-20.604-7.508-25.371c-4.997-4.754-14.532-7.167-28.688-7.167
			c-6.934,0-14.061,1.11-21.324,3.258c-7.296,2.157-13.532,4.24-18.769,6.177l7.173-29.267c17.57-7.154,34.365-13.28,50.431-18.364
			c16.064-5.098,31.244-7.649,45.603-7.649c25.803,0,45.714,6.236,59.695,18.708c13.981,12.481,20.971,28.662,20.971,48.6
			c0,4.125-0.459,11.394-1.445,21.782c-0.964,10.412-2.758,19.953-5.374,28.63l-26.706,94.552
			c-2.188,7.594-4.157,16.275-5.869,26.045c-1.767,9.706-2.611,17.121-2.611,22.096c0,12.555,2.8,21.126,8.411,25.683
			c5.653,4.557,15.391,6.824,29.222,6.824c6.493,0,13.881-1.152,22.09-3.414C352.664,460.473,358.634,458.486,362.337,456.747z
			 M369.111,59.792c0,16.474-6.209,30.543-18.686,42.111c-12.444,11.61-27.44,17.419-44.983,17.419
			c-17.598,0-32.631-5.809-45.218-17.419c-12.563-11.573-18.859-25.637-18.859-42.111c0-16.441,6.296-30.534,18.859-42.249
			C272.788,5.846,287.848,0,305.442,0c17.538,0,32.539,5.86,44.983,17.543C362.911,29.258,369.111,43.354,369.111,59.792z"/>
	</g>
</g>
</svg>
