<?xml version="1.0" encoding="utf-8"?>
<!-- Generator: Adobe Illustrator 16.0.0, SVG Export Plug-In . SVG Version: 6.00 Build 0)  -->
<!DOCTYPE svg PUBLIC "-//W3C//DTD SVG 1.1//EN" "http://www.w3.org/Graphics/SVG/1.1/DTD/svg11.dtd">
<svg version="1.1" id="Calque_1" xmlns="http://www.w3.org/2000/svg" xmlns:xlink="http://www.w3.org/1999/xlink" x="0px" y="0px"
	 width="72.503px" height="70.419px" viewBox="27.693 31.333 72.503 70.419" enable-background="new 27.693 31.333 72.503 70.419"
	 xml:space="preserve">
<g id="Layer_2">
</g>
<g id="Layer_1">
	<path fill="#FFFFFF" d="M82.23,101.301c-1.994-1.107-19.021-10.56-19.021-10.56s-17.659,8.893-19.156,9.645
		c-1.497,0.751-5.058-0.425-4.447-3.552c0.608-3.129,4.085-20.961,4.085-20.961S30.684,62.639,28.752,60.795
		c-1.932-1.844-1.22-5.113,2.137-5.523s20.913-2.557,20.913-2.557s9.235-17.683,10.089-19.301c0.854-1.621,4.368-1.738,5.246,0.145
		c0.879,1.884,9.193,19.713,9.193,19.713s19.994,3.345,21.656,3.65c2.582,0.479,2.779,3.662,1.228,5.106
		c-1.55,1.444-15.833,14.746-15.833,14.746s2.989,19.789,3.294,22.219C86.979,101.421,84.227,102.408,82.23,101.301z"/>
</g>
</svg>
